{
.appVersion = "922";
DisplayStrings = (
hx
);
classes = (
{
automatic = 1;

glyphs = (
{
glyphname = A;
lastChange = "2016-09-21 08:56:17 +0000";
layers = (
{
anchors = (
{
name = bottom;
position = "{371, 0}";
},
{
name = ogonek;
position = "{705, 10}";
},
{
name = top;
position = "{371, 728}";
}
);
background = {
anchors = (
{
name = bottom;
position = "{1197, 0}";
},
{
name = ogonek;
position = "{1531, 10}";
},
{
name = top;
position = "{1197, 728}";
}
);
paths = (
{
closed = 1;
nodes = (
"95 0 LINE",
"167 201 LINE",
"507 201 LINE",
"580 0 LINE",
"636 0 LINE",
"369 734 LINE",
"302 734 LINE",
"34 0 LINE"
);
},
{
closed = 1;
nodes = (
"337 689 LINE",
"494 239 LINE",
"181 239 LINE"
);
}
);
};
layerId = "9E718F8A-2CEA-4931-B05D-987794BD97DA";
paths = (
{
closed = 1;
nodes = (
"384 691 LINE",
"357 691 LINE",
"654 0 LINE",
"712 0 LINE",
"397 728 LINE",
"345 728 LINE",
"30 0 LINE",
"88 0 LINE"
);
},
{
closed = 1;
nodes = (
"585 197 LINE",
"567 247 LINE",
"177 247 LINE",
"160 197 LINE"
);
}
);
width = 742;
},
{
anchors = (
{
name = bottom;
position = "{389, 0}";
},
{
name = ogonek;
position = "{729, 10}";
},
{
name = top;
position = "{388, 728}";
}
);
background = {
paths = (
{
closed = 1;
nodes = (
"117 0 LINE",
"191 193 LINE",
"511 193 LINE",
"586 0 LINE",
"691 0 LINE",
"403 734 LINE",
"301 734 LINE",
"13 0 LINE"
);
},
{
closed = 1;
nodes = (
"350 638 LINE",
"478 277 LINE",
"221 277 LINE"
);
}
);
};
layerId = "E1B555A7-F4E1-459C-9C1A-AE952106EEF9";
paths = (
{
closed = 1;
nodes = (
"410 596 LINE",
"371 596 LINE",
"627 0 LINE",
"791 0 LINE",
"456 728 LINE",
"322 728 LINE",
"-13 0 LINE",
"154 0 LINE"
);
},
{
closed = 1;
nodes = (
"629 159 LINE",
"566 285 LINE",
"202 285 LINE",
"139 159 LINE"
);
}
);
width = 778;
}
);
leftKerningGroup = A;
rightKerningGroup = A;
unicode = 0041;
userData = {
anchors = (
);
b = {
};
com.typemytype.robofont.layerData = {
b = {
anchors = (
);
components = (
);
contours = (
{
points = (
{
segmentType = line;
smooth = 0;
x = 403;
y = 502;
},
{
segmentType = line;
smooth = 0;
x = 703;
y = 1275;
},
{
segmentType = line;
smooth = 0;
x = 705;
y = 1275;
},
{
segmentType = line;
smooth = 0;
x = 1004;
y = 502;
}
);
},
{
points = (
{
segmentType = curve;
smooth = 1;
x = 150;
y = 0;
},
{
smooth = 0;
x = 181;
y = 0;
},
{
smooth = 0;
x = 214;
y = 15;
},
{
segmentType = curve;
smooth = 1;
x = 229;
y = 53;
},
{
segmentType = line;
smooth = 0;
x = 356;
y = 373;
},
{
segmentType = line;
smooth = 0;
x = 1051;
y = 373;
},
{
segmentType = line;
smooth = 1;
x = 1179;
y = 53;
},
{
smooth = 0;
x = 1193;
y = 17;
},
{
smooth = 0;
x = 1228;
y = 0;
},
{
segmentType = curve;
smooth = 1;
x = 1260;
y = 0;
},
{
smooth = 0;
x = 1306;
y = 0;
},
{
smooth = 0;
x = 1354;
y = 31;
},
{
segmentType = curve;
smooth = 1;
x = 1354;
y = 80;
},
{
smooth = 0;
x = 1354;
y = 87;
},
{
smooth = 0;
x = 1352;
y = 97;
},
{
segmentType = curve;
smooth = 0;
x = 1349;
y = 108;
},
{
segmentType = line;
smooth = 1;
x = 871;
y = 1288;
},
{
smooth = 0;
x = 817;
y = 1420;
},
{
smooth = 0;
x = 777;
y = 1430;
},
{
segmentType = curve;
smooth = 1;
x = 710;
y = 1430;
},
{
smooth = 0;
x = 644;
y = 1430;
},
{
smooth = 0;
x = 596;
y = 1413;
},
{
segmentType = curve;
smooth = 1;
x = 542;
y = 1280;
},
{
segmentType = line;
smooth = 1;
x = 66;
y = 108;
},
{
smooth = 0;
x = 62;
y = 97;
},
{
smooth = 0;
x = 60;
y = 87;
},
{
segmentType = curve;
smooth = 1;
x = 60;
y = 78;
},
{
smooth = 0;
x = 60;
y = 32;
},
{
smooth = 0;
x = 106;
y = 0;
}
);
}
);
lib = {
};
name = A;
unicodes = (
);
width = 1414;
};
};
components = (
);
contours = {
};
lib = {
};
name = A;
points = {
};
segmentType = line;
unicodes = (
);
width = 1445;
x = 718;
y = 1232;
};
},
{
glyphname = Aogonek;
lastChange = "2016-09-21 08:56:17 +0000";
layers = (
{
background = {
components = (
{
name = A;
},
{
name = ogonek;
transform = "{1, 0, 0, 1, 438, 0}";
}
);
};
layerId = "9E718F8A-2CEA-4931-B05D-987794BD97DA";
paths = (
{
closed = 1;
nodes = (
"585 197 LINE",
"567 247 LINE",
"177 247 LINE",
"160 197 LINE"
);
},
{
closed = 1;
nodes = (
"719 -147 OFFCURVE",
"696 -153 OFFCURVE",
"680 -153 CURVE SMOOTH",
"638 -153 OFFCURVE",
"609 -129 OFFCURVE",
"609 -85 CURVE SMOOTH",
"609 -39 OFFCURVE",
"638 0 OFFCURVE",
"705 0 CURVE SMOOTH",
"712 0 LINE",
"397 728 LINE",
"345 728 LINE",
"30 0 LINE",
"88 0 LINE",
"384 691 LINE",
"357 691 LINE",
"654 0 LINE",
"678 39 LINE",
"599 22 OFFCURVE",
"558 -29 OFFCURVE",
"558 -91 CURVE SMOOTH",
"558 -153 OFFCURVE",
"604 -197 OFFCURVE",
"675 -197 CURVE SMOOTH",
"709 -197 OFFCURVE",
"738 -187 OFFCURVE",
"757 -174 CURVE",
"741 -134 LINE"
);
}
);
width = 742;
},
{
background = {
components = (
{
name = A;
},
{
name = ogonek;
transform = "{1, 0, 0, 1, 465, 0}";
}
);
};
layerId = "E1B555A7-F4E1-459C-9C1A-AE952106EEF9";
paths = (
{
closed = 1;
nodes = (
"629 159 LINE",
"566 285 LINE",
"202 285 LINE",
"139 159 LINE"
);
},
{
closed = 1;
nodes = (
"757 -117 OFFCURVE",
"739 -121 OFFCURVE",
"721 -121 CURVE SMOOTH",
"682 -121 OFFCURVE",
"660 -102 OFFCURVE",
"660 -66 CURVE SMOOTH",
"660 -28 OFFCURVE",
"690 0 OFFCURVE",
"737 0 CURVE SMOOTH",
"791 0 LINE",
"456 728 LINE",
"322 728 LINE",
"-13 0 LINE",
"154 0 LINE",
"410 596 LINE",
"371 596 LINE",
"627 0 LINE",
"649 34 LINE",
"590 11 OFFCURVE",
"558 -36 OFFCURVE",
"558 -90 CURVE SMOOTH",
"558 -159 OFFCURVE",
"616 -204 OFFCURVE",
"690 -204 CURVE SMOOTH",
"727 -204 OFFCURVE",
"763 -196 OFFCURVE",
"794 -183 CURVE",
"777 -108 LINE"
);
}
);
width = 778;
}
);
leftKerningGroup = A;
leftMetricsKey = A;
widthMetricsKey = A;
rightKerningGroup = A;
unicode = 0104;
},
{
glyphname = Aring;
lastChange = "2016-09-21 08:56:17 +0000";
layers = (
{
background = {
components = (
{
name = A;
},
{
name = ring;
transform = "{1, 0, 0, 1, 194, 210}";
}
);
};
layerId = "9E718F8A-2CEA-4931-B05D-987794BD97DA";
paths = (
{
closed = 1;
nodes = (
"427 697 OFFCURVE",
"472 741 OFFCURVE",
"472 796 CURVE SMOOTH",
"472 852 OFFCURVE",
"427 896 OFFCURVE",
"371 896 CURVE SMOOTH",
"315 896 OFFCURVE",
"270 852 OFFCURVE",
"270 796 CURVE SMOOTH",
"270 741 OFFCURVE",
"315 697 OFFCURVE",
"371 697 CURVE SMOOTH"
);
},
{
closed = 1;
nodes = (
"341 743 OFFCURVE",
"319 766 OFFCURVE",
"319 796 CURVE SMOOTH",
"319 826 OFFCURVE",
"341 850 OFFCURVE",
"371 850 CURVE SMOOTH",
"401 850 OFFCURVE",
"422 826 OFFCURVE",
"422 796 CURVE SMOOTH",
"422 766 OFFCURVE",
"401 743 OFFCURVE",
"371 743 CURVE SMOOTH"
);
},
{
closed = 1;
nodes = (
"384 691 LINE",
"357 691 LINE",
"654 0 LINE",
"712 0 LINE",
"397 728 LINE",
"345 728 LINE",
"30 0 LINE",
"88 0 LINE"
);
},
{
closed = 1;
nodes = (
"585 197 LINE",
"567 247 LINE",
"177 247 LINE",
"160 197 LINE"
);
}
);
width = 742;
},
{
background = {
components = (
{
name = A;
},
{
name = ring;
transform = "{1, 0, 0, 1, 188, 244}";
}
);
};
layerId = "E1B555A7-F4E1-459C-9C1A-AE952106EEF9";
paths = (
{
closed = 1;
nodes = (
"452 692 OFFCURVE",
"503 741 OFFCURVE",
"503 804 CURVE SMOOTH",
"503 867 OFFCURVE",
"452 915 OFFCURVE",
"389 915 CURVE SMOOTH",
"326 915 OFFCURVE",
"276 867 OFFCURVE",
"276 804 CURVE SMOOTH",
"276 741 OFFCURVE",
"326 692 OFFCURVE",
"389 692 CURVE SMOOTH"
);
},
{
closed = 1;
nodes = (
"364 757 OFFCURVE",
"345 778 OFFCURVE",
"345 804 CURVE SMOOTH",
"345 829 OFFCURVE",
"364 850 OFFCURVE",
"389 850 CURVE SMOOTH",
"415 850 OFFCURVE",
"434 829 OFFCURVE",
"434 804 CURVE SMOOTH",
"434 778 OFFCURVE",
"415 757 OFFCURVE",
"389 757 CURVE SMOOTH"
);
},
{
closed = 1;
nodes = (
"410 596 LINE",
"371 596 LINE",
"627 0 LINE",
"791 0 LINE",
"456 728 LINE",
"322 728 LINE",
"-13 0 LINE",
"154 0 LINE"
);
},
{
closed = 1;
nodes = (
"629 159 LINE",
"566 285 LINE",
"202 285 LINE",
"139 159 LINE"
);
}
);
width = 778;
}
);
leftKerningGroup = A;
leftMetricsKey = A;
widthMetricsKey = A;
rightKerningGroup = A;
unicode = 00C5;
},
{
glyphname = Aringacute;
lastChange = "2016-09-21 08:56:17 +0000";
layers = (
{
background = {
components = (
{
name = A;
},
{
name = ring;
transform = "{1, 0, 0, 1, 194, 210}";
},
{
name = acute;
transform = "{1, 0, 0, 1, 253, 420}";
}
);
};
layerId = "9E718F8A-2CEA-4931-B05D-987794BD97DA";
paths = (
{
closed = 1;
nodes = (
"88 0 LINE",
"384 691 LINE",
"357 691 LINE",
"654 0 LINE",
"712 0 LINE",
"397 728 LINE",
"345 728 LINE",
"30 0 LINE"
);
},
{
closed = 1;
nodes = (
"585 197 LINE",
"567 247 LINE",
"177 247 LINE",
"160 197 LINE"
);
},
{
closed = 1;
nodes = (
"427 697 OFFCURVE",
"472 741 OFFCURVE",
"472 796 CURVE SMOOTH",
"472 852 OFFCURVE",
"427 896 OFFCURVE",
"371 896 CURVE SMOOTH",
"315 896 OFFCURVE",
"270 852 OFFCURVE",
"270 796 CURVE SMOOTH",
"270 741 OFFCURVE",
"315 697 OFFCURVE",
"371 697 CURVE SMOOTH"
);
},
{
closed = 1;
nodes = (
"341 743 OFFCURVE",
"319 766 OFFCURVE",
"319 796 CURVE SMOOTH",
"319 826 OFFCURVE",
"341 850 OFFCURVE",
"371 850 CURVE SMOOTH",
"401 850 OFFCURVE",
"422 826 OFFCURVE",
"422 796 CURVE SMOOTH",
"422 766 OFFCURVE",
"401 743 OFFCURVE",
"371 743 CURVE SMOOTH"
);
},
{
closed = 1;
nodes = (
"591 970 LINE",
"515 970 LINE",
"411 863 LINE",
"445 845 LINE"
);
}
);
width = 742;
},
{
layerId = "E1B555A7-F4E1-459C-9C1A-AE952106EEF9";
paths = (
{
closed = 1;
nodes = (
"154 0 LINE",
"410 596 LINE",
"371 596 LINE",
"627 0 LINE",
"791 0 LINE",
"456 728 LINE",
"322 728 LINE",
"-13 0 LINE"
);
},
{
closed = 1;
nodes = (
"629 159 LINE",
"566 285 LINE",
"202 285 LINE",
"139 159 LINE"
);
},
{
closed = 1;
nodes = (
"452 692 OFFCURVE",
"503 741 OFFCURVE",
"503 804 CURVE SMOOTH",
"503 867 OFFCURVE",
"452 915 OFFCURVE",
"389 915 CURVE SMOOTH",
"326 915 OFFCURVE",
"276 867 OFFCURVE",
"276 804 CURVE SMOOTH",
"276 741 OFFCURVE",
"326 692 OFFCURVE",
"389 692 CURVE SMOOTH"
);
},
{
closed = 1;
nodes = (
"364 757 OFFCURVE",
"345 778 OFFCURVE",
"345 804 CURVE SMOOTH",
"345 829 OFFCURVE",
"364 850 OFFCURVE",
"389 850 CURVE SMOOTH",
"415 850 OFFCURVE",
"434 829 OFFCURVE",
"434 804 CURVE SMOOTH",
"434 778 OFFCURVE",
"415 757 OFFCURVE",
"389 757 CURVE SMOOTH"
);
},
{
closed = 1;
nodes = (
"650 977 LINE",
"502 977 LINE",
"420 887 LINE",
"486 841 LINE"
);
}
);
width = 778;
}
);
leftKerningGroup = A;
leftMetricsKey = A;
widthMetricsKey = A;
rightKerningGroup = A;
unicode = 01FA;
},
{
color = 4;
glyphname = AE;
lastChange = "2016-09-21 08:56:23 +0000";
layers = (
{
anchors = (
{
name = bottom;
position = "{513, 0}";
},
{
name = top;
position = "{512, 728}";
}
);
background = {
anchors = (
{
name = bottom;
position = "{1237, 0}";
},
{
name = top;
position = "{1235, 728}";
}
);
paths = (
{
closed = 1;
nodes = (
"786 0 LINE",
"918 231 LINE",
"1246 231 LINE",
"1267 0 LINE",
"1631 0 LINE",
"1631 42 LINE",
"1302 42 LINE",
"1273 363 LINE",
"1584 363 LINE",
"1584 402 LINE",
"1274 402 LINE",
"1250 690 LINE",
"1620 690 LINE",
"1620 734 LINE",
"1161 734 LINE",
"741 0 LINE"
);
},
{
closed = 1;
nodes = (
"1175 690 LINE",
"1208 690 LINE",
"1241 271 LINE",
"936 271 LINE"
);
},
{
closed = 1;
nodes = (
"965 0 LINE",
"965 51 LINE",
"638 51 LINE",
"499 705 LINE",
"491 678 LINE",
"965 678 LINE",
"965 728 LINE",
"446 728 LINE",
"9 0 LINE",
"69 0 LINE",
"476 687 LINE",
"451 687 LINE",
"596 0 LINE"
);
},
{
closed = 1;
nodes = (
"577 197 LINE",
"558 247 LINE",
"167 247 LINE",
"151 197 LINE"
);
},
{
closed = 1;
nodes = (
"944 345 LINE",
"944 395 LINE",
"556 395 LINE",
"556 345 LINE"
);
}
);
};
layerId = "9E718F8A-2CEA-4931-B05D-987794BD97DA";
paths = (
{
closed = 1;
nodes = (
"69 0 LINE",
"476 687 LINE",
"451 678 LINE",
"965 678 LINE",
"965 728 LINE",
"446 728 LINE",
"9 0 LINE"
);
},
{
closed = 1;
nodes = (
"588 197 LINE",
"578 247 LINE",
"167 247 LINE",
"151 197 LINE"
);
},
{
closed = 1;
nodes = (
"965 0 LINE",
"965 51 LINE",
"621 51 LINE",
"559 703 LINE",
"509 703 LINE",
"575 0 LINE"
);
},
{
closed = 1;
nodes = (
"944 345 LINE",
"944 395 LINE",
"576 395 LINE",
"576 345 LINE"
);
}
);
width = 1021;
},
{
anchors = (
{
name = bottom;
position = "{522, 0}";
},
{
name = top;
position = "{522, 728}";
}
);
background = {
paths = (
{
closed = 1;
nodes = (
"1253 0 LINE",
"1678 734 LINE",
"2191 734 LINE",
"2191 652 LINE",
"1843 652 LINE",
"1864 417 LINE",
"2174 417 LINE",
"2174 339 LINE",
"1871 339 LINE",
"1895 82 LINE",
"2203 82 LINE",
"2203 0 LINE",
"1804 0 LINE",
"1786 202 LINE",
"1477 202 LINE",
"1361 0 LINE"
);
},
{
closed = 1;
nodes = (
"1514 277 LINE",
"1779 277 LINE",
"1751 652 LINE",
"1727 652 LINE"
);
},
{
closed = 1;
nodes = (
"448 606 LINE",
"582 0 LINE",
"997 0 LINE",
"997 129 LINE",
"705 129 LINE",
"588 654 LINE"
);
},
{
closed = 1;
nodes = (
"605 159 LINE",
"568 285 LINE",
"205 285 LINE",
"140 159 LINE"
);
},
{
closed = 1;
nodes = (
"976 306 LINE",
"976 435 LINE",
"586 435 LINE",
"586 306 LINE"
);
},
{
closed = 1;
nodes = (
"555 599 LINE",
"997 599 LINE",
"997 728 LINE",
"426 728 LINE",
"-34 0 LINE",
"147 0 LINE",
"496 590 LINE",
"545 590 LINE"
);
}
);
};
layerId = "E1B555A7-F4E1-459C-9C1A-AE952106EEF9";
paths = (
{
closed = 1;
nodes = (
"147 0 LINE",
"514 621 LINE",
"482 599 LINE",
"997 599 LINE",
"997 728 LINE",
"426 728 LINE",
"-34 0 LINE"
);
},
{
closed = 1;
nodes = (
"605 159 LINE",
"568 285 LINE",
"205 285 LINE",
"140 159 LINE"
);
},
{
closed = 1;
nodes = (
"997 0 LINE",
"997 129 LINE",
"702 129 LINE",
"666 654 LINE",
"517 654 LINE",
"561 0 LINE"
);
},
{
closed = 1;
nodes = (
"976 306 LINE",
"976 435 LINE",
"586 435 LINE",
"586 306 LINE"
);
}
);
width = 1035;
}
);
leftKerningGroup = A;
rightKerningGroup = E;
rightMetricsKey = E;
unicode = 00C6;
userData = {
com.typemytype.robofont.layerData = {
b = {
anchors = (
);
components = (
);
contours = (
);
lib = {
};
name = AE;
unicodes = (
);
width = 1976;
};
};
};
},
{
glyphname = B;
lastChange = "2016-09-21 08:56:17 +0000";
layers = (
{
anchors = (
{
name = bottom;
position = "{349, 0}";
},
{
name = top;
position = "{348, 728}";
}
);
background = {
anchors = (
{
name = bottom;
position = "{349, 0}";
},
{
name = top;
position = "{348, 728}";
}
);
paths = (
{
closed = 1;
nodes = (
"366 0 LINE SMOOTH",
"530 0 OFFCURVE",
"617 67 OFFCURVE",
"617 194 CURVE SMOOTH",
"617 309 OFFCURVE",
"547 373 OFFCURVE",
"437 382 CURVE",
"529 392 OFFCURVE",
"581 447 OFFCURVE",
"581 555 CURVE SMOOTH",
"581 672 OFFCURVE",
"495 734 OFFCURVE",
"321 734 CURVE SMOOTH",
"113 734 LINE",
"113 0 LINE"
);
},
{
closed = 1;
nodes = (
"167 357 LINE",
"344 357 LINE SMOOTH",
"504 357 OFFCURVE",
"561 302 OFFCURVE",
"561 194 CURVE SMOOTH",
"561 95 OFFCURVE",
"494 43 OFFCURVE",
"366 43 CURVE SMOOTH",
"167 43 LINE"
);
},
{
closed = 1;
nodes = (
"168 691 LINE",
"321 691 LINE SMOOTH",
"460 691 OFFCURVE",
"526 644 OFFCURVE",
"526 555 CURVE SMOOTH",
"526 453 OFFCURVE",
"478 401 OFFCURVE",
"344 401 CURVE SMOOTH",
"168 401 LINE"
);
}
);
};
layerId = "9E718F8A-2CEA-4931-B05D-987794BD97DA";
paths = (
{
closed = 1;
nodes = (
"383 0 LINE SMOOTH",
"535 0 OFFCURVE",
"621 68 OFFCURVE",
"621 197 CURVE SMOOTH",
"621 294 OFFCURVE",
"566 359 OFFCURVE",
"474 376 CURVE",
"474 368 LINE",
"555 393 OFFCURVE",
"604 452 OFFCURVE",
"604 537 CURVE SMOOTH",
"604 661 OFFCURVE",
"520 728 OFFCURVE",
"372 728 CURVE SMOOTH",
"96 728 LINE",
"96 0 LINE"
);
},
{
closed = 1;
nodes = (
"152 345 LINE",
"380 345 LINE SMOOTH",
"503 345 OFFCURVE",
"564 293 OFFCURVE",
"564 194 CURVE SMOOTH",
"564 96 OFFCURVE",
"505 50 OFFCURVE",
"380 50 CURVE SMOOTH",
"152 50 LINE"
);
},
{
closed = 1;
nodes = (
"152 679 LINE",
"365 679 LINE SMOOTH",
"488 679 OFFCURVE",
"547 632 OFFCURVE",
"547 540 CURVE SMOOTH",
"547 446 OFFCURVE",
"484 395 OFFCURVE",
"365 395 CURVE SMOOTH",
"152 395 LINE"
);
}
);
width = 690;
},
{
anchors = (
{
name = bottom;
position = "{361, 0}";
},
{
name = top;
position = "{361, 728}";
}
);
background = {
anchors = (
{
name = bottom;
position = "{361, 0}";
},
{
name = top;
position = "{361, 728}";
}
);
paths = (
{
closed = 1;
nodes = (
"356 0 LINE SMOOTH",
"531 0 OFFCURVE",
"618 90 OFFCURVE",
"618 202 CURVE SMOOTH",
"618 301 OFFCURVE",
"557 371 OFFCURVE",
"457 387 CURVE",
"542 409 OFFCURVE",
"583 475 OFFCURVE",
"583 553 CURVE SMOOTH",
"583 717 OFFCURVE",
"415 734 OFFCURVE",
"280 734 CURVE SMOOTH",
"95 734 LINE",
"95 0 LINE"
);
},
{
closed = 1;
nodes = (
"191 339 LINE",
"322 339 LINE SMOOTH",
"458 339 OFFCURVE",
"515 307 OFFCURVE",
"515 206 CURVE SMOOTH",
"515 121 OFFCURVE",
"453 83 OFFCURVE",
"338 83 CURVE SMOOTH",
"191 83 LINE"
);
},
{
closed = 1;
nodes = (
"191 652 LINE",
"301 652 LINE SMOOTH",
"407 652 OFFCURVE",
"482 632 OFFCURVE",
"482 539 CURVE SMOOTH",
"482 445 OFFCURVE",
"401 419 OFFCURVE",
"310 419 CURVE SMOOTH",
"191 419 LINE"
);
}
);
};
layerId = "E1B555A7-F4E1-459C-9C1A-AE952106EEF9";
paths = (
{
closed = 1;
nodes = (
"420 0 LINE SMOOTH",
"578 0 OFFCURVE",
"676 76 OFFCURVE",
"676 199 CURVE SMOOTH",
"676 293 OFFCURVE",
"623 359 OFFCURVE",
"529 380 CURVE",
"529 372 LINE",
"609 396 OFFCURVE",
"657 459 OFFCURVE",
"657 539 CURVE SMOOTH",
"657 656 OFFCURVE",
"562 728 OFFCURVE",
"410 728 CURVE SMOOTH",
"71 728 LINE",
"71 0 LINE"
);
},
{
closed = 1;
nodes = (
"233 307 LINE",
"401 307 LINE SMOOTH",
"484 307 OFFCURVE",
"520 279 OFFCURVE",
"520 216 CURVE SMOOTH",
"520 154 OFFCURVE",
"484 127 OFFCURVE",
"401 127 CURVE SMOOTH",
"233 127 LINE"
);
},
{
closed = 1;
nodes = (
"233 601 LINE",
"382 601 LINE SMOOTH",
"463 601 OFFCURVE",
"500 574 OFFCURVE",
"500 517 CURVE SMOOTH",
"500 461 OFFCURVE",
"463 434 OFFCURVE",
"382 434 CURVE SMOOTH",
"233 434 LINE"
);
}
);
width = 713;
}
);
leftKerningGroup = H;
leftMetricsKey = H;
rightKerningGroup = B;
unicode = 0042;
userData = {
anchors = (
);
b = {
};
com.typemytype.robofont.layerData = {
b = {
anchors = (
);
components = (
);
contours = (
{
points = (
{
segmentType = curve;
smooth = 1;
x = 266;
y = 0;
},
{
segmentType = line;
smooth = 1;
x = 1035;
y = 0;
},
{
smooth = 0;
x = 1084;
y = 0;
},
{
smooth = 0;
x = 1108;
y = 36;
},
{
segmentType = curve;
smooth = 1;
x = 1108;
y = 73;
},
{
smooth = 0;
x = 1108;
y = 109;
},
{
smooth = 0;
x = 1084;
y = 145;
},
{
segmentType = curve;
smooth = 1;
x = 1035;
y = 145;
},
{
segmentType = line;
smooth = 0;
x = 353;
y = 145;
},
{
segmentType = line;
smooth = 0;
x = 353;
y = 662;
},
{
segmentType = line;
smooth = 1;
x = 975;
y = 662;
},
{
smooth = 0;
x = 1024;
y = 662;
},
{
smooth = 0;
x = 1049;
y = 698;
},
{
segmentType = curve;
smooth = 1;
x = 1049;
y = 734;
},
{
smooth = 0;
x = 1049;
y = 770;
},
{
smooth = 0;
x = 1026;
y = 806;
},
{
segmentType = curve;
smooth = 1;
x = 975;
y = 806;
},
{
segmentType = line;
smooth = 0;
x = 353;
y = 806;
},
{
segmentType = line;
smooth = 0;
x = 353;
y = 1281;
},
{
segmentType = line;
smooth = 1;
x = 1007;
y = 1281;
},
{
smooth = 0;
x = 1056;
y = 1281;
},
{
smooth = 0;
x = 1080;
y = 1317;
},
{
segmentType = curve;
smooth = 1;
x = 1080;
y = 1354;
},
{
smooth = 0;
x = 1080;
y = 1390;
},
{
smooth = 0;
x = 1056;
y = 1426;
},
{
segmentType = curve;
smooth = 1;
x = 1007;
y = 1426;
},
{
segmentType = line;
smooth = 1;
x = 261;
y = 1426;
},
{
smooth = 0;
x = 213;
y = 1426;
},
{
smooth = 0;
x = 178;
y = 1383;
},
{
segmentType = curve;
smooth = 1;
x = 178;
y = 1340;
},
{
segmentType = line;
smooth = 1;
x = 178;
y = 86;
},
{
smooth = 0;
x = 178;
y = 41;
},
{
smooth = 0;
x = 222;
y = 0;
}
);
}
);
lib = {
};
name = B;
unicodes = (
);
width = 1292;
};
};
components = (
);
contours = {
};
lib = {
};
name = B;
points = {
};
segmentType = curve;
unicodes = (
);
width = 1395;
x = 676;
y = 1260;
};
},
{
glyphname = C;
lastChange = "2016-09-21 08:56:17 +0000";
layers = (
{
anchors = (
{
name = bottom;
position = "{395, 0}";
},
{
name = top;
position = "{396, 728}";
}
);
background = {
paths = (
{
closed = 1;
nodes = (
"492 -11 OFFCURVE",
"572 12 OFFCURVE",
"643 58 CURVE",
"624 96 LINE",
"562 55 OFFCURVE",
"488 33 OFFCURVE",
"409 33 CURVE SMOOTH",
"227 33 OFFCURVE",
"111 158 OFFCURVE",
"111 353 CURVE SMOOTH",
"111 566 OFFCURVE",
"230 703 OFFCURVE",
"415 703 CURVE SMOOTH",
"489 703 OFFCURVE",
"554 683 OFFCURVE",
"604 643 CURVE",
"627 677 LINE",
"573 723 OFFCURVE",
"500 747 OFFCURVE",
"415 747 CURVE SMOOTH",
"196 747 OFFCURVE",
"56 593 OFFCURVE",
"56 353 CURVE SMOOTH",
"56 131 OFFCURVE",
"194 -11 OFFCURVE",
"409 -11 CURVE SMOOTH"
);
}
);
};
layerId = "9E718F8A-2CEA-4931-B05D-987794BD97DA";
paths = (
{
closed = 1;
nodes = (
"496 -8 OFFCURVE",
"581 24 OFFCURVE",
"644 88 CURVE",
"619 133 LINE",
"547 68 OFFCURVE",
"481 43 OFFCURVE",
"396 43 CURVE SMOOTH",
"224 43 OFFCURVE",
"126 160 OFFCURVE",
"126 365 CURVE SMOOTH",
"126 568 OFFCURVE",
"225 685 OFFCURVE",
"396 685 CURVE SMOOTH",
"481 685 OFFCURVE",
"547 660 OFFCURVE",
"619 595 CURVE",
"644 640 LINE",
"581 705 OFFCURVE",
"496 737 OFFCURVE",
"396 737 CURVE SMOOTH",
"193 737 OFFCURVE",
"67 597 OFFCURVE",
"67 365 CURVE SMOOTH",
"67 132 OFFCURVE",
"193 -8 OFFCURVE",
"396 -8 CURVE SMOOTH"
);
}
);
width = 699;
},
{
anchors = (
{
name = bottom;
position = "{408, 0}";
},
{
name = top;
position = "{408, 728}";
}
);
background = {
anchors = (
{
name = bottom;
position = "{408, 0}";
},
{
name = top;
position = "{408, 728}";
}
);
paths = (
{
closed = 1;
nodes = (
"504 -11 OFFCURVE",
"589 13 OFFCURVE",
"661 66 CURVE",
"628 145 LINE",
"560 94 OFFCURVE",
"491 71 OFFCURVE",
"420 71 CURVE SMOOTH",
"269 71 OFFCURVE",
"156 178 OFFCURVE",
"156 362 CURVE SMOOTH",
"156 521 OFFCURVE",
"249 665 OFFCURVE",
"420 665 CURVE SMOOTH",
"487 665 OFFCURVE",
"551 647 OFFCURVE",
"605 606 CURVE",
"644 672 LINE",
"577 726 OFFCURVE",
"501 748 OFFCURVE",
"411 748 CURVE SMOOTH",
"199 748 OFFCURVE",
"54 581 OFFCURVE",
"54 362 CURVE SMOOTH",
"54 112 OFFCURVE",
"230 -11 OFFCURVE",
"416 -11 CURVE SMOOTH"
);
}
);
};
layerId = "E1B555A7-F4E1-459C-9C1A-AE952106EEF9";
paths = (
{
closed = 1;
nodes = (
"511 -9 OFFCURVE",
"605 22 OFFCURVE",
"662 73 CURVE",
"609 192 LINE",
"545 145 OFFCURVE",
"484 124 OFFCURVE",
"418 124 CURVE SMOOTH",
"291 124 OFFCURVE",
"220 207 OFFCURVE",
"220 365 CURVE SMOOTH",
"220 523 OFFCURVE",
"291 604 OFFCURVE",
"418 604 CURVE SMOOTH",
"484 604 OFFCURVE",
"545 584 OFFCURVE",
"609 536 CURVE",
"662 655 LINE",
"605 707 OFFCURVE",
"511 738 OFFCURVE",
"415 738 CURVE SMOOTH",
"190 738 OFFCURVE",
"51 590 OFFCURVE",
"51 365 CURVE SMOOTH",
"51 139 OFFCURVE",
"190 -9 OFFCURVE",
"415 -9 CURVE SMOOTH"
);
}
);
width = 700;
}
);
leftKerningGroup = O;
leftMetricsKey = O;
rightKerningGroup = C;
unicode = 0043;
userData = {
anchors = (
);
b = {
};
com.typemytype.robofont.layerData = {
b = {
anchors = (
);
components = (
);
contours = (
);
lib = {
};
name = C;
unicodes = (
);
width = 1353.8900;
};
};
components = (
);
contours = (
);
lib = {
};
name = C;
unicodes = (
);
width = 1354;
};
},
{
glyphname = D;
lastChange = "2016-09-21 08:56:23 +0000";
layers = (
{
anchors = (
{
name = bottom;
position = "{377, 0}";
},
{
name = center;
position = "{377, 365}";
},
{
name = top;
position = "{376, 728}";
}
);
background = {
anchors = (
{
name = bottom;
position = "{377, 0}";
},
{
name = center;
position = "{377, 365}";
},
{
name = top;
position = "{376, 728}";
}
);
paths = (
{
closed = 1;
nodes = (
"313 0 LINE SMOOTH",
"566 0 OFFCURVE",
"699 124 OFFCURVE",
"699 359 CURVE SMOOTH",
"699 604 OFFCURVE",
"562 734 OFFCURVE",
"302 734 CURVE SMOOTH",
"113 734 LINE",
"113 0 LINE"
);
},
{
closed = 1;
nodes = (
"167 691 LINE",
"302 691 LINE SMOOTH",
"526 691 OFFCURVE",
"645 576 OFFCURVE",
"645 359 CURVE SMOOTH",
"645 152 OFFCURVE",
"530 43 OFFCURVE",
"313 43 CURVE SMOOTH",
"167 43 LINE"
);
}
);
};
layerId = "9E718F8A-2CEA-4931-B05D-987794BD97DA";
paths = (
{
closed = 1;
nodes = (
"326 0 LINE SMOOTH",
"556 0 OFFCURVE",
"686 131 OFFCURVE",
"686 365 CURVE SMOOTH",
"686 598 OFFCURVE",
"557 728 OFFCURVE",
"326 728 CURVE SMOOTH",
"96 728 LINE",
"96 0 LINE"
);
},
{
closed = 1;
nodes = (
"152 679 LINE",
"324 679 LINE SMOOTH",
"526 679 OFFCURVE",
"627 573 OFFCURVE",
"627 365 CURVE SMOOTH",
"627 156 OFFCURVE",
"525 50 OFFCURVE",
"324 50 CURVE SMOOTH",
"152 50 LINE"
);
}
);
width = 753;
},
{
anchors = (
{
name = bottom;
position = "{395, 0}";
},
{
name = center;
position = "{395, 365}";
},
{
name = top;
position = "{395, 728}";
}
);
background = {
anchors = (
{
name = bottom;
position = "{395, 0}";
},
{
name = center;
position = "{395, 365}";
},
{
name = top;
position = "{395, 728}";
}
);
paths = (
{
closed = 1;
nodes = (
"308 0 LINE SMOOTH",
"570 0 OFFCURVE",
"713 139 OFFCURVE",
"713 367 CURVE SMOOTH",
"713 638 OFFCURVE",
"532 734 OFFCURVE",
"260 734 CURVE SMOOTH",
"95 734 LINE",
"95 0 LINE"
);
},
{
closed = 1;
nodes = (
"191 652 LINE",
"272 652 LINE SMOOTH",
"501 652 OFFCURVE",
"611 572 OFFCURVE",
"611 366 CURVE SMOOTH",
"611 196 OFFCURVE",
"519 83 OFFCURVE",
"314 83 CURVE SMOOTH",
"191 83 LINE"
);
}
);
};
layerId = "E1B555A7-F4E1-459C-9C1A-AE952106EEF9";
paths = (
{
closed = 1;
nodes = (
"356 0 LINE SMOOTH",
"598 0 OFFCURVE",
"740 135 OFFCURVE",
"740 365 CURVE SMOOTH",
"740 593 OFFCURVE",
"597 728 OFFCURVE",
"356 728 CURVE SMOOTH",
"71 728 LINE",
"71 0 LINE"
);
},
{
closed = 1;
nodes = (
"238 594 LINE",
"345 594 LINE SMOOTH",
"498 594 OFFCURVE",
"573 519 OFFCURVE",
"573 365 CURVE SMOOTH",
"573 211 OFFCURVE",
"498 134 OFFCURVE",
"345 134 CURVE SMOOTH",
"238 134 LINE"
);
}
);
width = 791;
}
);
leftKerningGroup = H;
leftMetricsKey = I;
rightKerningGroup = O;
rightMetricsKey = O;
unicode = 0044;
userData = {
anchors = (
);
b = {
};
com.typemytype.robofont.layerData = {
b = {
anchors = (
);
components = (
);
contours = (
{
points = (
{
segmentType = curve;
smooth = 1;
x = 266;
y = 0;
},
{
segmentType = line;
smooth = 1;
x = 1035;
y = 0;
},
{
smooth = 0;
x = 1084;
y = 0;
},
{
smooth = 0;
x = 1108;
y = 34;
},
{
segmentType = curve;
smooth = 1;
x = 1108;
y = 71;
},
{
smooth = 0;
x = 1108;
y = 107;
},
{
smooth = 0;
x = 1084;
y = 141;
},
{
segmentType = curve;
smooth = 1;
x = 1035;
y = 141;
},
{
segmentType = line;
smooth = 0;
x = 356;
y = 141;
},
{
segmentType = line;
smooth = 0;
x = 356;
y = 665;
},
{
segmentType = line;
smooth = 1;
x = 975;
y = 665;
},
{
smooth = 0;
x = 1024;
y = 665;
},
{
smooth = 0;
x = 1049;
y = 698;
},
{
segmentType = curve;
smooth = 1;
x = 1049;
y = 734;
},
{
smooth = 0;
x = 1049;
y = 770;
},
{
smooth = 0;
x = 1026;
y = 803;
},
{
segmentType = curve;
smooth = 1;
x = 975;
y = 803;
},
{
segmentType = line;
smooth = 0;
x = 356;
y = 803;
},
{
segmentType = line;
smooth = 0;
x = 356;
y = 1285;
},
{
segmentType = line;
smooth = 1;
x = 1007;
y = 1285;
},
{
smooth = 0;
x = 1056;
y = 1285;
},
{
smooth = 0;
x = 1080;
y = 1319;
},
{
segmentType = curve;
smooth = 1;
x = 1080;
y = 1356;
},
{
smooth = 0;
x = 1080;
y = 1392;
},
{
smooth = 0;
x = 1056;
y = 1426;
},
{
segmentType = curve;
smooth = 1;
x = 1007;
y = 1426;
},
{
segmentType = line;
smooth = 1;
x = 261;
y = 1426;
},
{
smooth = 0;
x = 213;
y = 1426;
},
{
smooth = 0;
x = 178;
y = 1383;
},
{
segmentType = curve;
smooth = 1;
x = 178;
y = 1340;
},
{
segmentType = line;
smooth = 1;
x = 178;
y = 86;
},
{
smooth = 0;
x = 178;
y = 41;
},
{
smooth = 0;
x = 222;
y = 0;
}
);
}
);
lib = {
};
name = D;
unicodes = (
);
width = 1499;
};
};
components = (
);
contours = (
);
lib = {
};
name = D;
unicodes = (
);
width = 1535;
};
},
{
glyphname = Eth;
lastChange = "2016-09-21 08:56:23 +0000";
layers = (
{
background = {
components = (
{
name = D;
},
{
name = hyphen;
transform = "{1, 0, 0, 1, -1, 93}";
}
);
};
layerId = "9E718F8A-2CEA-4931-B05D-987794BD97DA";
paths = (
{
closed = 1;
nodes = (
"361 346 LINE",
"361 394 LINE",
"5 394 LINE",
"5 346 LINE"
);
},
{
closed = 1;
nodes = (
"334 0 LINE SMOOTH",
"563 0 OFFCURVE",
"693 131 OFFCURVE",
"693 365 CURVE SMOOTH",
"693 598 OFFCURVE",
"564 728 OFFCURVE",
"334 728 CURVE SMOOTH",
"103 728 LINE",
"103 0 LINE"
);
},
{
closed = 1;
nodes = (
"159 679 LINE",
"332 679 LINE SMOOTH",
"533 679 OFFCURVE",
"634 573 OFFCURVE",
"634 365 CURVE SMOOTH",
"634 156 OFFCURVE",
"532 50 OFFCURVE",
"332 50 CURVE SMOOTH",
"159 50 LINE"
);
}
);
width = 760;
},
{
background = {
components = (
{
name = D;
}
);
paths = (
{
closed = 1;
nodes = (
"6 399 LINE",
"289 399 LINE",
"289 331 LINE",
"6 331 LINE"
);
}
);
};
layerId = "E1B555A7-F4E1-459C-9C1A-AE952106EEF9";
paths = (
{
closed = 1;
nodes = (
"461 305 LINE",
"461 431 LINE",
"15 431 LINE",
"15 305 LINE"
);
},
{
closed = 1;
nodes = (
"388 0 LINE SMOOTH",
"630 0 OFFCURVE",
"772 135 OFFCURVE",
"772 365 CURVE SMOOTH",
"772 593 OFFCURVE",
"629 728 OFFCURVE",
"388 728 CURVE SMOOTH",
"103 728 LINE",
"103 0 LINE"
);
},
{
closed = 1;
nodes = (
"270 594 LINE",
"377 594 LINE SMOOTH",
"530 594 OFFCURVE",
"605 519 OFFCURVE",
"605 365 CURVE SMOOTH",
"605 211 OFFCURVE",
"530 134 OFFCURVE",
"377 134 CURVE SMOOTH",
"270 134 LINE"
);
}
);
width = 823;
}
);
leftKerningGroup = H;
rightKerningGroup = O;
rightMetricsKey = O;
unicode = 00D0;
},
{
glyphname = E;
lastChange = "2016-09-21 08:56:17 +0000";
layers = (
{
anchors = (
{
name = bottom;
position = "{332, 0}";
},
{
name = ogonek;
position = "{522, 10}";
},
{
name = top;
position = "{332, 728}";
},
{
name = topleft;
position = "{27, 728}";
}
);
background = {
anchors = (
{
name = bottom;
position = "{332, 0}";
},
{
name = ogonek;
position = "{522, 10}";
},
{
name = top;
position = "{332, 728}";
},
{
name = topleft;
position = "{27, 728}";
}
);
paths = (
{
closed = 1;
nodes = (
"537 0 LINE",
"537 43 LINE",
"166 43 LINE",
"166 353 LINE",
"502 353 LINE",
"502 397 LINE",
"167 397 LINE",
"167 691 LINE",
"522 691 LINE",
"522 734 LINE",
"113 734 LINE",
"113 0 LINE"
);
}
);
};
guideLines = (
{
angle = 90;
position = "{546, 255}";
}
);
layerId = "9E718F8A-2CEA-4931-B05D-987794BD97DA";
paths = (
{
closed = 1;
nodes = (
"541 0 LINE",
"541 50 LINE",
"152 50 LINE",
"152 345 LINE",
"521 345 LINE",
"521 395 LINE",
"152 395 LINE",
"152 679 LINE",
"541 679 LINE",
"541 728 LINE",
"96 728 LINE",
"96 0 LINE"
);
}
);
width = 597;
},
{
anchors = (
{
name = bottom;
position = "{342, 0}";
},
{
name = ogonek;
position = "{554, 10}";
},
{
name = top;
position = "{342, 728}";
},
{
name = topleft;
position = "{22, 728}";
}
);
background = {
anchors = (
{
name = bottom;
position = "{342, 0}";
},
{
name = ogonek;
position = "{554, 10}";
},
{
name = top;
position = "{342, 728}";
},
{
name = topleft;
position = "{22, 728}";
}
);
paths = (
{
closed = 1;
nodes = (
"95 0 LINE",
"95 734 LINE",
"534 734 LINE",
"534 652 LINE",
"191 652 LINE",
"191 415 LINE",
"515 415 LINE",
"515 333 LINE",
"191 333 LINE",
"191 83 LINE",
"550 83 LINE",
"550 0 LINE"
);
}
);
};
guideLines = (
{
angle = 90;
position = "{592, 255}";
}
);
layerId = "E1B555A7-F4E1-459C-9C1A-AE952106EEF9";
paths = (
{
closed = 1;
nodes = (
"576 0 LINE",
"576 129 LINE",
"233 129 LINE",
"233 306 LINE",
"556 306 LINE",
"556 435 LINE",
"233 435 LINE",
"233 599 LINE",
"576 599 LINE",
"576 728 LINE",
"71 728 LINE",
"71 0 LINE"
);
}
);
width = 614;
}
);
leftKerningGroup = H;
leftMetricsKey = H;
rightKerningGroup = E;
unicode = 0045;
userData = {
anchors = (
);
b = {
};
com.typemytype.robofont.layerData = {
b = {
anchors = (
);
components = (
);
contours = (
);
lib = {
};
name = E;
unicodes = (
);
width = 1234;
};
};
components = (
);
contours = (
);
lib = {
};
name = E;
unicodes = (
);
width = 1258;
};
},
{
glyphname = Eogonek;
lastChange = "2016-09-21 08:56:17 +0000";
layers = (
{
anchors = (
{
name = top;
position = "{332, 728}";
}
);
background = {
anchors = (
{
name = top;
position = "{332, 728}";
}
);
components = (
{
name = E;
},
{
name = ogonek;
transform = "{1, 0, 0, 1, 264, 0}";
}
);
};
layerId = "9E718F8A-2CEA-4931-B05D-987794BD97DA";
paths = (
{
closed = 1;
nodes = (
"536 -147 OFFCURVE",
"513 -153 OFFCURVE",
"497 -153 CURVE SMOOTH",
"456 -153 OFFCURVE",
"427 -129 OFFCURVE",
"427 -85 CURVE SMOOTH",
"427 -37 OFFCURVE",
"460 0 OFFCURVE",
"528 0 CURVE SMOOTH",
"541 0 LINE",
"541 50 LINE",
"152 50 LINE",
"152 345 LINE",
"521 345 LINE",
"521 395 LINE",
"152 395 LINE",
"152 679 LINE",
"541 679 LINE",
"541 728 LINE",
"96 728 LINE",
"96 0 LINE",
"463 0 LINE",
"446 20 LINE",
"400 -5 OFFCURVE",
"375 -43 OFFCURVE",
"375 -91 CURVE SMOOTH",
"375 -153 OFFCURVE",
"421 -197 OFFCURVE",
"492 -197 CURVE SMOOTH",
"526 -197 OFFCURVE",
"555 -187 OFFCURVE",
"574 -174 CURVE",
"558 -134 LINE"
);
}
);
width = 597;
},
{
anchors = (
{
name = top;
position = "{342, 728}";
}
);
background = {
anchors = (
{
name = top;
position = "{342, 728}";
}
);
components = (
{
name = E;
},
{
name = ogonek;
transform = "{1, 0, 0, 1, 265, 0}";
}
);
};
layerId = "E1B555A7-F4E1-459C-9C1A-AE952106EEF9";
paths = (
{
closed = 1;
nodes = (
"580 -117 OFFCURVE",
"561 -121 OFFCURVE",
"543 -121 CURVE SMOOTH",
"504 -121 OFFCURVE",
"482 -102 OFFCURVE",
"482 -66 CURVE SMOOTH",
"482 -26 OFFCURVE",
"510 0 OFFCURVE",
"554 0 CURVE SMOOTH",
"576 0 LINE",
"576 129 LINE",
"233 129 LINE",
"233 306 LINE",
"556 306 LINE",
"556 435 LINE",
"233 435 LINE",
"233 599 LINE",
"576 599 LINE",
"576 728 LINE",
"71 728 LINE",
"71 0 LINE",
"467 0 LINE",
"448 21 LINE",
"403 -5 OFFCURVE",
"380 -43 OFFCURVE",
"380 -90 CURVE SMOOTH",
"380 -156 OFFCURVE",
"435 -204 OFFCURVE",
"512 -204 CURVE SMOOTH",
"550 -204 OFFCURVE",
"586 -196 OFFCURVE",
"617 -183 CURVE",
"599 -108 LINE"
);
}
);
width = 614;
}
);
leftKerningGroup = H;
leftMetricsKey = E;
widthMetricsKey = E;
rightKerningGroup = E;
unicode = 0118;
userData = {
com.typemytype.robofont.layerData = {
b = {
anchors = (
);
components = (
);
contours = (
);
lib = {
};
name = Eogonek;
unicodes = (
);
width = 1234;
};
};
};
},
{
glyphname = F;
lastChange = "2016-09-21 08:56:17 +0000";
layers = (
{
anchors = (
{
name = bottom;
position = "{316, 0}";
},
{
name = top;
position = "{294, 728}";
}
);
background = {
anchors = (
{
name = bottom;
position = "{316, 0}";
},
{
name = top;
position = "{294, 728}";
}
);
paths = (
{
closed = 1;
nodes = (
"167 0 LINE",
"167 349 LINE",
"476 349 LINE",
"476 393 LINE",
"167 393 LINE",
"167 691 LINE",
"505 691 LINE",
"505 734 LINE",
"113 734 LINE",
"113 0 LINE"
);
}
);
};
layerId = "9E718F8A-2CEA-4931-B05D-987794BD97DA";
paths = (
{
closed = 1;
nodes = (
"152 0 LINE",
"152 345 LINE",
"510 345 LINE",
"510 395 LINE",
"152 395 LINE",
"152 679 LINE",
"531 679 LINE",
"531 728 LINE",
"96 728 LINE",
"96 0 LINE"
);
}
);
width = 569;
},
{
anchors = (
{
name = bottom;
position = "{326, 0}";
},
{
name = top;
position = "{298, 728}";
}
);
background = {
anchors = (
{
name = bottom;
position = "{326, 0}";
},
{
name = top;
position = "{298, 728}";
}
);
paths = (
{
closed = 1;
nodes = (
"95 0 LINE",
"95 734 LINE",
"519 734 LINE",
"519 652 LINE",
"191 652 LINE",
"191 412 LINE",
"496 412 LINE",
"496 330 LINE",
"191 330 LINE",
"191 0 LINE"
);
}
);
};
layerId = "E1B555A7-F4E1-459C-9C1A-AE952106EEF9";
paths = (
{
closed = 1;
nodes = (
"236 0 LINE",
"236 305 LINE",
"545 305 LINE",
"545 436 LINE",
"236 436 LINE",
"236 597 LINE",
"566 597 LINE",
"566 728 LINE",
"71 728 LINE",
"71 0 LINE"
);
}
);
width = 592;
}
);
leftKerningGroup = H;
leftMetricsKey = H;
rightKerningGroup = F;
unicode = 0046;
userData = {
anchors = (
);
b = {
};
com.typemytype.robofont.layerData = {
b = {
anchors = (
);
components = (
);
contours = (
{
points = (
{
segmentType = curve;
smooth = 1;
x = 266;
y = 0;
},
{
segmentType = line;
smooth = 1;
x = 1035;
y = 0;
},
{
smooth = 0;
x = 1084;
y = 0;
},
{
smooth = 0;
x = 1108;
y = 34;
},
{
segmentType = curve;
smooth = 1;
x = 1108;
y = 71;
},
{
smooth = 0;
x = 1108;
y = 107;
},
{
smooth = 0;
x = 1084;
y = 141;
},
{
segmentType = curve;
smooth = 1;
x = 1035;
y = 141;
},
{
segmentType = line;
smooth = 0;
x = 353;
y = 141;
},
{
segmentType = line;
smooth = 0;
x = 353;
y = 665;
},
{
segmentType = line;
smooth = 1;
x = 975;
y = 665;
},
{
smooth = 0;
x = 1024;
y = 665;
},
{
smooth = 0;
x = 1049;
y = 698;
},
{
segmentType = curve;
smooth = 1;
x = 1049;
y = 734;
},
{
smooth = 0;
x = 1049;
y = 770;
},
{
smooth = 0;
x = 1026;
y = 803;
},
{
segmentType = curve;
smooth = 1;
x = 975;
y = 803;
},
{
segmentType = line;
smooth = 0;
x = 353;
y = 803;
},
{
segmentType = line;
smooth = 0;
x = 353;
y = 1285;
},
{
segmentType = line;
smooth = 1;
x = 1007;
y = 1285;
},
{
smooth = 0;
x = 1056;
y = 1285;
},
{
smooth = 0;
x = 1080;
y = 1319;
},
{
segmentType = curve;
smooth = 1;
x = 1080;
y = 1356;
},
{
smooth = 0;
x = 1080;
y = 1392;
},
{
smooth = 0;
x = 1056;
y = 1426;
},
{
segmentType = curve;
smooth = 1;
x = 1007;
y = 1426;
},
{
segmentType = line;
smooth = 1;
x = 261;
y = 1426;
},
{
smooth = 0;
x = 213;
y = 1426;
},
{
smooth = 0;
x = 178;
y = 1383;
},
{
segmentType = curve;
smooth = 1;
x = 178;
y = 1340;
},
{
segmentType = line;
smooth = 1;
x = 178;
y = 86;
},
{
smooth = 0;
x = 178;
y = 41;
},
{
smooth = 0;
x = 222;
y = 0;
}
);
}
);
lib = {
};
name = F;
unicodes = (
);
width = 1142;
};
};
components = (
);
contours = (
);
lib = {
};
name = F;
unicodes = (
);
width = 1175;
};
},
{
glyphname = G;
lastChange = "2016-09-21 08:56:17 +0000";
layers = (
{
anchors = (
{
name = bottom;
position = "{406, 0}";
},
{
name = top;
position = "{399, 728}";
}
);
background = {
anchors = (
{
name = bottom;
position = "{406, 0}";
},
{
name = top;
position = "{399, 728}";
}
);
paths = (
{
closed = 1;
nodes = (
"508 -10 OFFCURVE",
"605 5 OFFCURVE",
"679 40 CURVE",
"679 369 LINE",
"424 369 LINE",
"424 325 LINE",
"630 325 LINE",
"630 68 LINE",
"575 43 OFFCURVE",
"490 33 OFFCURVE",
"421 33 CURVE SMOOTH",
"229 33 OFFCURVE",
"111 160 OFFCURVE",
"111 356 CURVE SMOOTH",
"111 567 OFFCURVE",
"234 703 OFFCURVE",
"425 703 CURVE SMOOTH",
"467 703 OFFCURVE",
"542 697 OFFCURVE",
"637 634 CURVE",
"660 672 LINE",
"565 743 OFFCURVE",
"480 747 OFFCURVE",
"440 747 CURVE SMOOTH",
"425 747 LINE SMOOTH",
"199 747 OFFCURVE",
"56 594 OFFCURVE",
"56 356 CURVE SMOOTH",
"56 133 OFFCURVE",
"194 -10 OFFCURVE",
"420 -10 CURVE SMOOTH"
);
}
);
};
layerId = "9E718F8A-2CEA-4931-B05D-987794BD97DA";
paths = (
{
closed = 1;
nodes = (
"500 -8 OFFCURVE",
"601 12 OFFCURVE",
"654 41 CURVE",
"654 371 LINE",
"407 371 LINE",
"407 321 LINE",
"602 321 LINE",
"602 42 LINE",
"617 83 LINE",
"562 58 OFFCURVE",
"484 42 OFFCURVE",
"406 42 CURVE SMOOTH",
"225 42 OFFCURVE",
"126 156 OFFCURVE",
"126 365 CURVE SMOOTH",
"126 569 OFFCURVE",
"225 685 OFFCURVE",
"399 685 CURVE SMOOTH",
"486 685 OFFCURVE",
"552 660 OFFCURVE",
"623 595 CURVE",
"648 640 LINE",
"585 705 OFFCURVE",
"500 737 OFFCURVE",
"401 737 CURVE SMOOTH",
"194 737 OFFCURVE",
"67 599 OFFCURVE",
"67 365 CURVE SMOOTH",
"67 130 OFFCURVE",
"193 -8 OFFCURVE",
"406 -8 CURVE SMOOTH"
);
}
);
width = 742;
},
{
anchors = (
{
name = bottom;
position = "{429, 0}";
},
{
name = top;
position = "{421, 728}";
}
);
background = {
anchors = (
{
name = bottom;
position = "{429, 0}";
},
{
name = top;
position = "{421, 728}";
}
);
paths = (
{
closed = 1;
nodes = (
"426 -11 CURVE SMOOTH",
"182 -11 OFFCURVE",
"54 134 OFFCURVE",
"54 354 CURVE SMOOTH",
"54 589 OFFCURVE",
"221 748 OFFCURVE",
"433 748 CURVE SMOOTH",
"531 748 OFFCURVE",
"609 723 OFFCURVE",
"676 675 CURVE",
"636 607 LINE",
"577 648 OFFCURVE",
"512 665 OFFCURVE",
"436 665 CURVE SMOOTH",
"276 665 OFFCURVE",
"154 543 OFFCURVE",
"154 361 CURVE SMOOTH",
"154 190 OFFCURVE",
"240 71 OFFCURVE",
"429 71 CURVE SMOOTH",
"482 71 OFFCURVE",
"542 80 OFFCURVE",
"589 98 CURVE",
"589 304 LINE",
"405 304 LINE",
"405 386 LINE",
"686 386 LINE",
"686 42 LINE",
"602 4 OFFCURVE",
"511 -11 OFFCURVE"
);
}
);
};
layerId = "E1B555A7-F4E1-459C-9C1A-AE952106EEF9";
paths = (
{
closed = 1;
nodes = (
"528 -9 OFFCURVE",
"628 10 OFFCURVE",
"700 45 CURVE",
"700 404 LINE",
"411 404 LINE",
"411 288 LINE",
"552 288 LINE",
"552 91 LINE",
"588 144 LINE",
"538 127 OFFCURVE",
"486 119 OFFCURVE",
"436 119 CURVE SMOOTH",
"290 119 OFFCURVE",
"219 199 OFFCURVE",
"219 365 CURVE SMOOTH",
"219 526 OFFCURVE",
"288 605 OFFCURVE",
"427 605 CURVE SMOOTH",
"500 605 OFFCURVE",
"560 586 OFFCURVE",
"628 538 CURVE",
"681 657 LINE",
"622 708 OFFCURVE",
"526 738 OFFCURVE",
"421 738 CURVE SMOOTH",
"195 738 OFFCURVE",
"51 594 OFFCURVE",
"51 365 CURVE SMOOTH",
"51 131 OFFCURVE",
"194 -9 OFFCURVE",
"429 -9 CURVE SMOOTH"
);
}
);
width = 763;
}
);
leftKerningGroup = O;
leftMetricsKey = O;
rightKerningGroup = G;
unicode = 0047;
userData = {
anchors = (
);
b = {
};
com.typemytype.robofont.layerData = {
b = {
anchors = (
);
components = (
);
contours = (
{
points = (
{
segmentType = curve;
smooth = 1;
x = 783;
y = "-22";
},
{
smooth = 0;
x = 965;
y = "-22";
},
{
smooth = 0;
x = 1086;
y = 34;
},
{
segmentType = curve;
smooth = 1;
x = 1166;
y = 86;
},
{
smooth = 0;
x = 1270;
y = 154;
},
{
smooth = 0;
x = 1186;
y = 258;
},
{
segmentType = curve;
smooth = 1;
x = 1112;
y = 214;
},
{
smooth = 0;
x = 1024;
y = 162;
},
{
smooth = 0;
x = 939;
y = 120;
},
{
segmentType = curve;
smooth = 1;
x = 806;
y = 120;
},
{
smooth = 0;
x = 446;
y = 120;
},
{
smooth = 0;
x = 316;
y = 406;
},
{
segmentType = curve;
smooth = 1;
x = 316;
y = 706;
},
{
smooth = 0;
x = 316;
y = 1005;
},
{
smooth = 0;
x = 450;
y = 1296;
},
{
segmentType = curve;
smooth = 1;
x = 801;
y = 1296;
},
{
smooth = 0;
x = 980;
y = 1296;
},
{
smooth = 0;
x = 1053;
y = 1246;
},
{
segmentType = curve;
smooth = 1;
x = 1094;
y = 1225;
},
{
smooth = 0;
x = 1174;
y = 1184;
},
{
smooth = 0;
x = 1231;
y = 1300;
},
{
segmentType = curve;
smooth = 1;
x = 1156;
y = 1343;
},
{
smooth = 0;
x = 1106;
y = 1372;
},
{
smooth = 0;
x = 995;
y = 1438;
},
{
segmentType = curve;
smooth = 1;
x = 797;
y = 1438;
},
{
smooth = 0;
x = 359;
y = 1438;
},
{
smooth = 0;
x = 128;
y = 1093;
},
{
segmentType = curve;
smooth = 1;
x = 128;
y = 704;
},
{
smooth = 0;
x = 128;
y = 307;
},
{
smooth = 0;
x = 350;
y = "-22";
}
);
}
);
lib = {
};
name = G;
unicodes = (
);
width = 1448;
};
};
components = (
);
contours = (
);
lib = {
};
name = G;
unicodes = (
);
width = 1538;
};
},
{
glyphname = H;
lastChange = "2016-09-21 08:56:17 +0000";
layers = (
{
anchors = (
{
name = bottom;
position = "{389, 0}";
},
{
name = center;
position = "{389, 370}";
},
{
name = top;
position = "{388, 728}";
},
{
name = topleft;
position = "{27, 728}";
}
);
background = {
paths = (
{
closed = 1;
nodes = (
"167 0 LINE",
"167 353 LINE",
"619 353 LINE",
"619 0 LINE",
"672 0 LINE",
"672 734 LINE",
"621 734 LINE",
"621 397 LINE",
"169 397 LINE",
"169 734 LINE",
"113 734 LINE",
"113 0 LINE"
);
}
);
};
layerId = "9E718F8A-2CEA-4931-B05D-987794BD97DA";
paths = (
{
closed = 1;
nodes = (
"682 0 LINE",
"682 728 LINE",
"626 728 LINE",
"626 0 LINE"
);
},
{
closed = 1;
nodes = (
"152 0 LINE",
"152 728 LINE",
"96 728 LINE",
"96 0 LINE"
);
},
{
closed = 1;
nodes = (
"635 345 LINE",
"635 395 LINE",
"131 395 LINE",
"131 345 LINE"
);
}
);
width = 778;
},
{
anchors = (
{
name = bottom;
position = "{399, 0}";
},
{
name = center;
position = "{399, 370}";
},
{
name = top;
position = "{399, 728}";
},
{
name = topleft;
position = "{22, 728}";
}
);
background = {
anchors = (
{
name = bottom;
position = "{399, 0}";
},
{
name = center;
position = "{399, 370}";
},
{
name = top;
position = "{399, 728}";
},
{
name = topleft;
position = "{22, 728}";
}
);
paths = (
{
closed = 1;
nodes = (
"204 0 LINE",
"204 336 LINE",
"594 336 LINE",
"594 0 LINE",
"690 0 LINE",
"690 734 LINE",
"594 734 LINE",
"594 417 LINE",
"204 417 LINE",
"204 734 LINE",
"106 734 LINE",
"106 0 LINE"
);
}
);
};
layerId = "E1B555A7-F4E1-459C-9C1A-AE952106EEF9";
paths = (
{
closed = 1;
nodes = (
"726 0 LINE",
"726 728 LINE",
"563 728 LINE",
"563 0 LINE"
);
},
{
closed = 1;
nodes = (
"234 0 LINE",
"234 728 LINE",
"71 728 LINE",
"71 0 LINE"
);
},
{
closed = 1;
nodes = (
"661 304 LINE",
"661 436 LINE",
"124 436 LINE",
"124 304 LINE"
);
}
);
width = 797;
}
);
leftKerningGroup = H;
rightKerningGroup = H;
unicode = 0048;
userData = {
anchors = (
);
b = {
};
com.typemytype.robofont.layerData = {
b = {
anchors = (
);
components = (
);
contours = (
);
lib = {
};
name = H;
unicodes = (
);
width = 1464;
};
};
components = (
);
contours = (
);
lib = {
};
name = H;
unicodes = (
);
width = 1524;
};
},
{
glyphname = Hbar;
lastChange = "2016-09-21 08:56:17 +0000";
layers = (
{
background = {
components = (
{
name = H;
}
);
paths = (
{
closed = 1;
nodes = (
"732 617 LINE",
"732 646 LINE",
"68 646 LINE",
"69 617 LINE"
);
}
);
};
layerId = "9E718F8A-2CEA-4931-B05D-987794BD97DA";
paths = (
{
closed = 1;
nodes = (
"787 542 LINE",
"787 590 LINE",
"5 590 LINE",
"5 542 LINE"
);
},
{
closed = 1;
nodes = (
"689 0 LINE",
"689 728 LINE",
"633 728 LINE",
"633 0 LINE"
);
},
{
closed = 1;
nodes = (
"159 0 LINE",
"159 728 LINE",
"103 728 LINE",
"103 0 LINE"
);
},
{
closed = 1;
nodes = (
"644 345 LINE",
"644 395 LINE",
"139 395 LINE",
"139 345 LINE"
);
}
);
width = 792;
},
{
background = {
components = (
{
name = H;
}
);
paths = (
{
closed = 1;
nodes = (
"46 584 LINE",
"45 652 LINE",
"726 652 LINE",
"726 584 LINE"
);
}
);
};
layerId = "E1B555A7-F4E1-459C-9C1A-AE952106EEF9";
paths = (
{
closed = 1;
nodes = (
"846 524 LINE",
"846 646 LINE",
"15 646 LINE",
"15 524 LINE"
);
},
{
closed = 1;
nodes = (
"758 0 LINE",
"758 728 LINE",
"595 728 LINE",
"595 0 LINE"
);
},
{
closed = 1;
nodes = (
"267 0 LINE",
"267 728 LINE",
"103 728 LINE",
"103 0 LINE"
);
},
{
closed = 1;
nodes = (
"693 304 LINE",
"693 436 LINE",
"156 436 LINE",
"156 304 LINE"
);
}
);
width = 862;
}
);
leftKerningGroup = H;
rightKerningGroup = H;
unicode = 0126;
userData = {
com.typemytype.robofont.layerData = {
b = {
anchors = (
);
components = (
);
contours = (
);
lib = {
};
name = Hbar;
unicodes = (
);
width = 1464;
};
};
};
},
{
glyphname = I;
lastChange = "2016-09-21 08:56:17 +0000";
layers = (
{
anchors = (
{
name = bottom;
position = "{124, 0}";
},
{
name = ogonek;
position = "{149, 10}";
},
{
name = top;
position = "{124, 728}";
},
{
name = topleft;
position = "{27, 728}";
}
);
background = {
anchors = (
{
name = bottom;
position = "{124, 0}";
},
{
name = ogonek;
position = "{149, 10}";
},
{
name = top;
position = "{124, 728}";
},
{
name = topleft;
position = "{27, 728}";
}
);
paths = (
{
closed = 1;
nodes = (
"177 0 LINE",
"177 734 LINE",
"122 734 LINE",
"122 0 LINE"
);
}
);
};
layerId = "9E718F8A-2CEA-4931-B05D-987794BD97DA";
paths = (
{
closed = 1;
nodes = (
"152 0 LINE",
"152 728 LINE",
"96 728 LINE",
"96 0 LINE"
);
}
);
width = 248;
},
{
anchors = (
{
name = bottom;
position = "{154, 0}";
},
{
name = ogonek;
position = "{207, 10}";
},
{
name = top;
position = "{154, 728}";
},
{
name = topleft;
position = "{22, 728}";
}
);
background = {
anchors = (
{
name = bottom;
position = "{154, 0}";
},
{
name = ogonek;
position = "{207, 10}";
},
{
name = top;
position = "{154, 728}";
},
{
name = topleft;
position = "{22, 728}";
}
);
paths = (
{
closed = 1;
nodes = (
"97 0 LINE",
"97 734 LINE",
"193 734 LINE",
"193 0 LINE"
);
}
);
};
layerId = "E1B555A7-F4E1-459C-9C1A-AE952106EEF9";
paths = (
{
closed = 1;
nodes = (
"238 0 LINE",
"238 728 LINE",
"71 728 LINE",
"71 0 LINE"
);
}
);
width = 309;
}
);
leftKerningGroup = H;
leftMetricsKey = H;
rightKerningGroup = H;
rightMetricsKey = H;
unicode = 0049;
userData = {
anchors = (
);
b = {
};
com.typemytype.robofont.layerData = {
b = {
anchors = (
);
components = (
);
contours = (
);
lib = {
};
name = I;
unicodes = (
);
width = 592;
};
};
components = (
);
contours = (
);
lib = {
};
name = I;
unicodes = (
);
width = 637;
};
},
{
glyphname = Iogonek;
lastChange = "2016-09-21 08:56:17 +0000";
layers = (
{
background = {
components = (
{
name = I;
},
{
name = ogonek;
}
);
};
layerId = "9E718F8A-2CEA-4931-B05D-987794BD97DA";
paths = (
{
closed = 1;
nodes = (
"152 -197 OFFCURVE",
"181 -187 OFFCURVE",
"200 -174 CURVE",
"184 -134 LINE",
"162 -147 OFFCURVE",
"139 -153 OFFCURVE",
"123 -153 CURVE SMOOTH",
"82 -153 OFFCURVE",
"53 -129 OFFCURVE",
"53 -85 CURVE SMOOTH",
"53 -39 OFFCURVE",
"87 0 OFFCURVE",
"148 0 CURVE SMOOTH",
"152 0 LINE",
"152 728 LINE",
"96 728 LINE",
"96 0 LINE",
"114 0 LINE",
"134 39 LINE",
"48 25 OFFCURVE",
"1 -28 OFFCURVE",
"1 -91 CURVE SMOOTH",
"1 -153 OFFCURVE",
"48 -197 OFFCURVE",
"118 -197 CURVE SMOOTH"
);
}
);
width = 248;
},
{
background = {
components = (
{
name = I;
},
{
name = ogonek;
transform = "{1, 0, 0, 1, -21, 0}";
}
);
};
layerId = "E1B555A7-F4E1-459C-9C1A-AE952106EEF9";
paths = (
{
closed = 1;
nodes = (
"204 -204 OFFCURVE",
"240 -196 OFFCURVE",
"271 -183 CURVE",
"253 -108 LINE",
"233 -117 OFFCURVE",
"215 -121 OFFCURVE",
"197 -121 CURVE SMOOTH",
"158 -121 OFFCURVE",
"136 -102 OFFCURVE",
"136 -66 CURVE SMOOTH",
"136 -28 OFFCURVE",
"169 0 OFFCURVE",
"222 0 CURVE SMOOTH",
"238 0 LINE",
"238 728 LINE",
"71 728 LINE",
"71 0 LINE",
"118 0 LINE",
"131 38 LINE",
"65 11 OFFCURVE",
"34 -36 OFFCURVE",
"34 -88 CURVE SMOOTH",
"34 -159 OFFCURVE",
"92 -204 OFFCURVE",
"166 -204 CURVE SMOOTH"
);
}
);
width = 309;
}
);
leftKerningGroup = H;
rightKerningGroup = H;
unicode = 012E;
},
{
color = 4;
glyphname = J;
lastChange = "2016-09-21 08:56:23 +0000";
layers = (
{
anchors = (
{
name = bottom;
position = "{192, 0}";
},
{
name = top;
position = "{192, 728}";
}
);
background = {
anchors = (
{
name = bottom;
position = "{192, 0}";
},
{
name = top;
position = "{192, 728}";
}
);
paths = (
{
closed = 1;
nodes = (
"166 -157 OFFCURVE",
"223 -126 OFFCURVE",
"223 66 CURVE SMOOTH",
"223 734 LINE",
"169 734 LINE",
"169 66 LINE SMOOTH",
"169 -86 OFFCURVE",
"144 -114 OFFCURVE",
"49 -114 CURVE SMOOTH",
"35 -114 OFFCURVE",
"19 -114 OFFCURVE",
"1 -113 CURVE",
"0 -156 LINE",
"17 -157 OFFCURVE",
"32 -157 OFFCURVE",
"46 -157 CURVE SMOOTH"
);
},
{
closed = 1;
nodes = (
"52 -2 LINE SMOOTH",
"160 5 OFFCURVE",
"220 72 OFFCURVE",
"220 186 CURVE SMOOTH",
"220 728 LINE",
"164 728 LINE",
"164 188 LINE SMOOTH",
"164 105 OFFCURVE",
"121 53 OFFCURVE",
"45 46 CURVE SMOOTH",
"-9 42 LINE",
"-5 -6 LINE"
);
}
);
};
layerId = "9E718F8A-2CEA-4931-B05D-987794BD97DA";
paths = (
{
closed = 1;
nodes = (
"155 -211 OFFCURVE",
"220 -165 OFFCURVE",
"220 -2 CURVE SMOOTH",
"220 728 LINE",
"164 728 LINE",
"164 0 LINE SMOOTH",
"164 -131 OFFCURVE",
"120 -156 OFFCURVE",
"-7 -131 CURVE",
"-7 -182 LINE"
);
}
);
width = 316;
},
{
anchors = (
{
name = bottom;
position = "{239, 0}";
},
{
name = top;
position = "{239, 728}";
}
);
background = {
anchors = (
{
name = bottom;
position = "{239, 0}";
},
{
name = top;
position = "{239, 728}";
}
);
paths = (
{
closed = 1;
nodes = (
"204 -166 OFFCURVE",
"260 -91 OFFCURVE",
"260 59 CURVE SMOOTH",
"260 734 LINE",
"163 734 LINE",
"163 61 LINE SMOOTH",
"163 -35 OFFCURVE",
"150 -84 OFFCURVE",
"79 -84 CURVE SMOOTH",
"34 -84 OFFCURVE",
"-4 -71 OFFCURVE",
"-20 -66 CURVE",
"-33 -144 LINE",
"-13 -151 OFFCURVE",
"37 -166 OFFCURVE",
"91 -166 CURVE SMOOTH"
);
},
{
closed = 1;
nodes = (
"103 -5 LINE SMOOTH",
"249 3 OFFCURVE",
"322 76 OFFCURVE",
"322 214 CURVE SMOOTH",
"322 728 LINE",
"155 728 LINE",
"155 212 LINE SMOOTH",
"155 157 OFFCURVE",
"130 131 OFFCURVE",
"75 128 CURVE SMOOTH",
"-4 123 LINE",
"6 -10 LINE"
);
}
);
};
layerId = "E1B555A7-F4E1-459C-9C1A-AE952106EEF9";
paths = (
{
closed = 1;
nodes = (
"246 -219 OFFCURVE",
"322 -145 OFFCURVE",
"322 46 CURVE SMOOTH",
"322 728 LINE",
"155 728 LINE",
"155 44 LINE SMOOTH",
"155 -53 OFFCURVE",
"129 -65 OFFCURVE",
"0 -50 CURVE",
"0 -183 LINE"
);
}
);
width = 393;
}
);
leftKerningGroup = J;
rightKerningGroup = J;
rightMetricsKey = H;
unicode = 004A;
userData = {
anchors = (
);
b = {
};
com.typemytype.robofont.layerData = {
b = {
anchors = (
);
components = (
);
contours = (
);
lib = {
};
name = J;
unicodes = (
);
width = 1003;
};
};
components = (
);
contours = (
);
lib = {
};
name = J;
unicodes = (
);
width = 1126;
};
},
{
glyphname = K;
lastChange = "2016-09-21 08:56:17 +0000";
layers = (
{
anchors = (
{
name = bottom;
position = "{316, 0}";
},
{
name = top;
position = "{315, 728}";
}
);
background = {
anchors = (
{
name = bottom;
position = "{316, 0}";
},
{
name = top;
position = "{315, 728}";
}
);
paths = (
{
closed = 1;
nodes = (
"166 0 LINE",
"166 376 LINE",
"554 0 LINE",
"617 0 LINE",
"226 382 LINE",
"594 734 LINE",
"528 734 LINE",
"167 390 LINE",
"167 734 LINE",
"113 734 LINE",
"113 0 LINE"
);
}
);
};
layerId = "9E718F8A-2CEA-4931-B05D-987794BD97DA";
paths = (
{
closed = 1;
nodes = (
"627 0 LINE",
"185 392 LINE",
"183 350 LINE",
"604 728 LINE",
"529 728 LINE",
"129 369 LINE",
"550 0 LINE"
);
},
{
closed = 1;
nodes = (
"152 0 LINE",
"152 728 LINE",
"96 728 LINE",
"96 0 LINE"
);
}
);
width = 628;
},
{
anchors = (
{
name = bottom;
position = "{354, 0}";
},
{
name = top;
position = "{354, 728}";
}
);
background = {
paths = (
{
closed = 1;
nodes = (
"95 0 LINE",
"95 734 LINE",
"191 734 LINE",
"191 403 LINE",
"507 734 LINE",
"627 734 LINE",
"287 381 LINE",
"651 0 LINE",
"529 0 LINE",
"191 349 LINE",
"191 0 LINE"
);
}
);
};
layerId = "E1B555A7-F4E1-459C-9C1A-AE952106EEF9";
paths = (
{
closed = 1;
nodes = (
"749 0 LINE",
"366 418 LINE",
"353 332 LINE",
"735 728 LINE",
"539 728 LINE",
"202 372 LINE",
"550 0 LINE"
);
},
{
closed = 1;
nodes = (
"238 0 LINE",
"238 728 LINE",
"71 728 LINE",
"71 0 LINE"
);
}
);
width = 705;
}
);
leftKerningGroup = H;
leftMetricsKey = H;
rightKerningGroup = K;
unicode = 004B;
userData = {
anchors = (
);
b = {
};
com.typemytype.robofont.layerData = {
b = {
anchors = (
);
components = (
);
contours = (
);
lib = {
};
name = K;
unicodes = (
);
width = 1210;
};
};
components = (
);
contours = (
);
lib = {
};
name = K;
unicodes = (
);
width = 1329;
};
},
{
glyphname = L;
lastChange = "2016-09-21 08:56:17 +0000";
layers = (
{
anchors = (
{
name = bottom;
position = "{317, 0}";
},
{
name = center;
position = "{345, 365}";
},
{
name = top;
position = "{124, 728}";
},
{
name = topright;
position = "{245, 728}";
}
);
background = {
anchors = (
{
name = bottom;
position = "{317, 0}";
},
{
name = center;
position = "{345, 365}";
},
{
name = top;
position = "{124, 728}";
},
{
name = topright;
position = "{245, 728}";
}
);
paths = (
{
closed = 1;
nodes = (
"511 0 LINE",
"511 43 LINE",
"167 43 LINE",
"167 734 LINE",
"113 734 LINE",
"113 0 LINE"
);
}
);
};
layerId = "9E718F8A-2CEA-4931-B05D-987794BD97DA";
paths = (
{
closed = 1;
nodes = (
"532 0 LINE",
"532 50 LINE",
"152 50 LINE",
"152 728 LINE",
"96 728 LINE",
"96 0 LINE"
);
}
);
width = 549;
},
{
anchors = (
{
name = bottom;
position = "{323, 0}";
},
{
name = center;
position = "{407, 365}";
},
{
name = top;
position = "{154, 728}";
},
{
name = topright;
position = "{331, 728}";
}
);
background = {
anchors = (
{
name = bottom;
position = "{323, 0}";
},
{
name = center;
position = "{407, 365}";
},
{
name = top;
position = "{154, 728}";
},
{
name = topright;
position = "{331, 728}";
}
);
paths = (
{
closed = 1;
nodes = (
"95 0 LINE",
"95 734 LINE",
"191 734 LINE",
"191 83 LINE",
"532 83 LINE",
"532 0 LINE"
);
}
);
};
layerId = "E1B555A7-F4E1-459C-9C1A-AE952106EEF9";
paths = (
{
closed = 1;
nodes = (
"560 0 LINE",
"560 135 LINE",
"238 135 LINE",
"238 728 LINE",
"71 728 LINE",
"71 0 LINE"
);
}
);
width = 584;
}
);
leftKerningGroup = H;
leftMetricsKey = H;
rightKerningGroup = L;
unicode = 004C;
userData = {
anchors = (
);
b = {
};
com.typemytype.robofont.layerData = {
b = {
anchors = (
);
components = (
);
contours = (
{
points = (
{
segmentType = curve;
smooth = 1;
x = 266;
y = 0;
},
{
segmentType = line;
smooth = 1;
x = 1035;
y = 0;
},
{
smooth = 0;
x = 1084;
y = 0;
},
{
smooth = 0;
x = 1108;
y = 34;
},
{
segmentType = curve;
smooth = 1;
x = 1108;
y = 71;
},
{
smooth = 0;
x = 1108;
y = 107;
},
{
smooth = 0;
x = 1084;
y = 141;
},
{
segmentType = curve;
smooth = 1;
x = 1035;
y = 141;
},
{
segmentType = line;
smooth = 0;
x = 356;
y = 141;
},
{
segmentType = line;
smooth = 0;
x = 356;
y = 665;
},
{
segmentType = line;
smooth = 1;
x = 975;
y = 665;
},
{
smooth = 0;
x = 1024;
y = 665;
},
{
smooth = 0;
x = 1049;
y = 698;
},
{
segmentType = curve;
smooth = 1;
x = 1049;
y = 734;
},
{
smooth = 0;
x = 1049;
y = 770;
},
{
smooth = 0;
x = 1026;
y = 803;
},
{
segmentType = curve;
smooth = 1;
x = 975;
y = 803;
},
{
segmentType = line;
smooth = 0;
x = 356;
y = 803;
},
{
segmentType = line;
smooth = 0;
x = 356;
y = 1285;
},
{
segmentType = line;
smooth = 1;
x = 1007;
y = 1285;
},
{
smooth = 0;
x = 1056;
y = 1285;
},
{
smooth = 0;
x = 1080;
y = 1319;
},
{
segmentType = curve;
smooth = 1;
x = 1080;
y = 1356;
},
{
smooth = 0;
x = 1080;
y = 1392;
},
{
smooth = 0;
x = 1056;
y = 1426;
},
{
segmentType = curve;
smooth = 1;
x = 1007;
y = 1426;
},
{
segmentType = line;
smooth = 1;
x = 261;
y = 1426;
},
{
smooth = 0;
x = 213;
y = 1426;
},
{
smooth = 0;
x = 178;
y = 1383;
},
{
segmentType = curve;
smooth = 1;
x = 178;
y = 1340;
},
{
segmentType = line;
smooth = 1;
x = 178;
y = 86;
},
{
smooth = 0;
x = 178;
y = 41;
},
{
smooth = 0;
x = 222;
y = 0;
}
);
}
);
lib = {
};
name = L;
unicodes = (
);
width = 1095;
};
};
components = (
);
contours = (
);
lib = {
};
name = L;
unicodes = (
);
width = 1169;
};
},
{
color = 4;
glyphname = LJ;
lastChange = "2016-09-21 08:56:23 +0000";
layers = (
{
background = {
paths = (
{
closed = 1;
nodes = (
"501 0 LINE",
"501 50 LINE",
"152 50 LINE",
"152 728 LINE",
"96 728 LINE",
"96 0 LINE"
);
},
{
closed = 1;
nodes = (
"598 -2 LINE SMOOTH",
"710 5 OFFCURVE",
"766 66 OFFCURVE",
"766 177 CURVE SMOOTH",
"766 728 LINE",
"711 728 LINE",
"711 173 LINE SMOOTH",
"711 94 OFFCURVE",
"671 53 OFFCURVE",
"592 46 CURVE SMOOTH",
"537 42 LINE",
"541 -6 LINE"
);
}
);
};
layerId = "9E718F8A-2CEA-4931-B05D-987794BD97DA";
paths = (
{
closed = 1;
nodes = (
"501 0 LINE",
"501 50 LINE",
"152 50 LINE",
"152 728 LINE",
"96 728 LINE",
"96 0 LINE"
);
},
{
closed = 1;
nodes = (
"614 -211 OFFCURVE",
"679 -165 OFFCURVE",
"679 -2 CURVE SMOOTH",
"679 728 LINE",
"623 728 LINE",
"623 0 LINE SMOOTH",
"623 -131 OFFCURVE",
"578 -156 OFFCURVE",
"451 -131 CURVE",
"451 -182 LINE"
);
}
);
width = 775;
},
{
background = {
paths = (
{
closed = 1;
nodes = (
"529 0 LINE",
"529 135 LINE",
"238 135 LINE",
"238 728 LINE",
"71 728 LINE",
"71 0 LINE"
);
},
{
closed = 1;
nodes = (
"690 -5 LINE SMOOTH",
"836 3 OFFCURVE",
"909 76 OFFCURVE",
"909 214 CURVE SMOOTH",
"909 728 LINE",
"742 728 LINE",
"742 212 LINE SMOOTH",
"742 157 OFFCURVE",
"717 131 OFFCURVE",
"662 128 CURVE SMOOTH",
"583 123 LINE",
"593 -10 LINE"
);
}
);
};
layerId = "E1B555A7-F4E1-459C-9C1A-AE952106EEF9";
paths = (
{
closed = 1;
nodes = (
"529 0 LINE",
"529 135 LINE",
"238 135 LINE",
"238 728 LINE",
"71 728 LINE",
"71 0 LINE"
);
},
{
closed = 1;
nodes = (
"782 -219 OFFCURVE",
"858 -145 OFFCURVE",
"858 46 CURVE SMOOTH",
"858 728 LINE",
"691 728 LINE",
"691 44 LINE SMOOTH",
"691 -53 OFFCURVE",
"665 -65 OFFCURVE",
"536 -50 CURVE",
"536 -183 LINE"
);
}
);
width = 929;
}
);
leftKerningGroup = H;
leftMetricsKey = L;
rightKerningGroup = J;
rightMetricsKey = J;
unicode = 01C7;
},
{
color = 4;
glyphname = Lslash;
lastChange = "2016-09-21 08:56:17 +0000";
layers = (
{
background = {
components = (
{
name = L;
}
);
paths = (
{
closed = 1;
nodes = (
"311 440 LINE",
"311 477 LINE",
"32 309 LINE",
"32 271 LINE"
);
},
{
closed = 1;
nodes = (
"367 476 LINE",
"342 519 LINE",
"-4 319 LINE",
"21 277 LINE"
);
},
{
closed = 1;
nodes = (
"539 0 LINE",
"539 50 LINE",
"159 50 LINE",
"159 728 LINE",
"103 728 LINE",
"103 0 LINE"
);
}
);
};
guideLines = (
{
position = "{397, 370}";
},
{
angle = 90;
position = "{0, 129}";
},
{
angle = 90;
position = "{262, 129}";
},
{
angle = 90;
position = "{366, 129}";
}
);
layerId = "9E718F8A-2CEA-4931-B05D-987794BD97DA";
paths = (
{
closed = 1;
nodes = (
"354 469 LINE",
"354 526 LINE",
"8 326 LINE",
"8 270 LINE"
);
},
{
closed = 1;
nodes = (
"539 0 LINE",
"539 50 LINE",
"159 50 LINE",
"159 728 LINE",
"103 728 LINE",
"103 0 LINE"
);
}
);
width = 556;
},
{
background = {
components = (
{
name = L;
}
);
paths = (
{
closed = 1;
nodes = (
"330 446 LINE",
"11 239 LINE",
"11 318 LINE",
"330 526 LINE"
);
},
{
closed = 1;
nodes = (
"486 469 LINE",
"426 576 LINE",
"-17 321 LINE",
"43 214 LINE"
);
},
{
closed = 1;
nodes = (
"592 0 LINE",
"592 135 LINE",
"270 135 LINE",
"270 728 LINE",
"103 728 LINE",
"103 0 LINE"
);
}
);
};
guideLines = (
{
angle = 90;
position = "{373, 241}";
},
{
angle = 90;
position = "{0, 241}";
},
{
position = "{344, 368}";
},
{
angle = 90;
position = "{476, 241}";
}
);
layerId = "E1B555A7-F4E1-459C-9C1A-AE952106EEF9";
paths = (
{
closed = 1;
nodes = (
"459 453 LINE",
"459 595 LINE",
"10 337 LINE",
"10 195 LINE"
);
},
{
closed = 1;
nodes = (
"592 0 LINE",
"592 135 LINE",
"270 135 LINE",
"270 728 LINE",
"103 728 LINE",
"103 0 LINE"
);
}
);
width = 616;
}
);
leftKerningGroup = L;
rightKerningGroup = L;
rightMetricsKey = L;
unicode = 0141;
},
{
color = 4;
glyphname = M;
lastChange = "2016-09-21 08:56:23 +0000";
layers = (
{
anchors = (
{
name = bottom;
position = "{434, 0}";
},
{
name = top;
position = "{434, 728}";
}
);
background = {
anchors = (
{
name = bottom;
position = "{434, 0}";
},
{
name = top;
position = "{434, 728}";
}
);
paths = (
{
closed = 1;
nodes = (
"150 0 LINE",
"149 667 LINE",
"120 665 LINE",
"413 115 LINE",
"457 115 LINE",
"745 664 LINE",
"719 667 LINE",
"718 0 LINE",
"772 0 LINE",
"772 728 LINE",
"724 728 LINE",
"422 144 LINE",
"449 144 LINE",
"144 728 LINE",
"96 728 LINE",
"96 0 LINE"
);
}
);
};
layerId = "9E718F8A-2CEA-4931-B05D-987794BD97DA";
paths = (
{
closed = 1;
nodes = (
"150 0 LINE",
"149 667 LINE",
"117 665 LINE",
"413 0 LINE",
"457 0 LINE",
"748 664 LINE",
"719 667 LINE",
"718 0 LINE",
"772 0 LINE",
"772 728 LINE",
"724 728 LINE",
"419 29 LINE",
"452 29 LINE",
"144 728 LINE",
"96 728 LINE",
"96 0 LINE"
);
}
);
width = 868;
},
{
anchors = (
{
name = bottom;
position = "{435, 0}";
},
{
name = top;
position = "{435, 728}";
}
);
background = {
paths = (
{
closed = 1;
nodes = (
"219 0 LINE",
"219 480 LINE",
"190 471 LINE",
"381 120 LINE",
"489 120 LINE",
"677 471 LINE",
"651 480 LINE",
"651 0 LINE",
"796 0 LINE",
"796 728 LINE",
"667 728 LINE",
"418 254 LINE",
"455 254 LINE",
"205 728 LINE",
"73 728 LINE",
"73 0 LINE"
);
}
);
};
layerId = "E1B555A7-F4E1-459C-9C1A-AE952106EEF9";
leftMetricsKey = "=H+2";
rightMetricsKey = "=H+2";
paths = (
{
closed = 1;
nodes = (
"219 0 LINE",
"219 480 LINE",
"180 471 LINE",
"381 0 LINE",
"489 0 LINE",
"687 471 LINE",
"651 480 LINE",
"651 0 LINE",
"796 0 LINE",
"796 728 LINE",
"667 728 LINE",
"408 134 LINE",
"465 134 LINE",
"205 728 LINE",
"73 728 LINE",
"73 0 LINE"
);
}
);
width = 869;
}
);
leftKerningGroup = H;
leftMetricsKey = H;
rightKerningGroup = H;
rightMetricsKey = H;
unicode = 004D;
userData = {
anchors = (
);
b = {
};
com.typemytype.robofont.layerData = {
b = {
anchors = (
);
components = (
);
contours = (
);
lib = {
};
name = M;
unicodes = (
);
width = 1899;
};
};
components = (
);
contours = (
);
lib = {
};
name = M;
unicodes = (
);
width = 1984;
};
},
{
glyphname = N;
lastChange = "2016-09-21 08:56:17 +0000";
layers = (
{
anchors = (
{
name = bottom;
position = "{379, 0}";
},
{
name = top;
position = "{379, 728}";
}
);
background = {
anchors = (
{
name = bottom;
position = "{379, 0}";
},
{
name = top;
position = "{379, 728}";
}
);
paths = (
{
closed = 1;
nodes = (
"166 0 LINE",
"166 657 LINE",
"221 573 LINE",
"626 0 LINE",
"680 0 LINE",
"680 734 LINE",
"626 734 LINE",
"626 71 LINE",
"562 169 LINE",
"166 734 LINE",
"113 734 LINE",
"113 0 LINE"
);
}
);
};
layerId = "9E718F8A-2CEA-4931-B05D-987794BD97DA";
paths = (
{
closed = 1;
nodes = (
"149 0 LINE",
"149 665 LINE",
"126 664 LINE",
"618 0 LINE",
"662 0 LINE",
"662 728 LINE",
"609 728 LINE",
"609 63 LINE",
"633 64 LINE",
"142 728 LINE",
"96 728 LINE",
"96 0 LINE"
);
}
);
width = 758;
},
{
anchors = (
{
name = bottom;
position = "{389, 0}";
},
{
name = top;
position = "{388, 728}";
}
);
background = {
anchors = (
{
name = bottom;
position = "{389, 0}";
},
{
name = top;
position = "{388, 728}";
}
);
paths = (
{
closed = 1;
nodes = (
"95 0 LINE",
"95 734 LINE",
"199 734 LINE",
"561 202 LINE",
"606 134 LINE",
"606 734 LINE",
"697 734 LINE",
"697 0 LINE",
"593 0 LINE",
"228 530 LINE",
"185 597 LINE",
"185 0 LINE"
);
}
);
};
layerId = "E1B555A7-F4E1-459C-9C1A-AE952106EEF9";
paths = (
{
closed = 1;
nodes = (
"226 0 LINE",
"226 511 LINE",
"198 490 LINE",
"583 0 LINE",
"707 0 LINE",
"707 728 LINE",
"551 728 LINE",
"551 217 LINE",
"580 238 LINE",
"193 728 LINE",
"71 728 LINE",
"71 0 LINE"
);
}
);
width = 778;
}
);
leftKerningGroup = H;
leftMetricsKey = H;
rightKerningGroup = H;
rightMetricsKey = H;
unicode = 004E;
userData = {
anchors = (
);
b = {
};
com.typemytype.robofont.layerData = {
b = {
anchors = (
);
components = (
);
contours = (
);
lib = {
};
name = N;
unicodes = (
);
width = 1499;
};
};
components = (
);
contours = (
);
lib = {
};
name = N;
unicodes = (
);
width = 1557;
};
},
{
glyphname = Eng;
lastChange = "2016-09-21 08:56:17 +0000";
layers = (
{
background = {
paths = (
{
closed = 1;
nodes = (
"676 -216 OFFCURVE",
"688 -117 OFFCURVE",
"689 0 CURVE SMOOTH",
"689 734 LINE",
"635 734 LINE",
"635 71 LINE",
"571 169 LINE",
"176 734 LINE",
"122 734 LINE",
"122 0 LINE",
"176 0 LINE",
"176 657 LINE",
"230 573 LINE",
"635 0 LINE",
"635 -42 LINE SMOOTH",
"635 -131 OFFCURVE",
"590 -175 OFFCURVE",
"490 -175 CURVE SMOOTH",
"443 -175 OFFCURVE",
"376 -169 OFFCURVE",
"278 -144 CURVE",
"274 -188 LINE",
"364 -208 OFFCURVE",
"434 -216 OFFCURVE",
"490 -216 CURVE SMOOTH"
);
}
);
};
layerId = "9E718F8A-2CEA-4931-B05D-987794BD97DA";
paths = (
{
closed = 1;
nodes = (
"609 63 LINE",
"633 64 LINE",
"142 728 LINE",
"96 728 LINE",
"96 0 LINE",
"149 0 LINE",
"149 665 LINE",
"126 664 LINE",
"618 0 LINE",
"609 39 LINE",
"609 -13 LINE SMOOTH",
"609 -93 OFFCURVE",
"566 -133 OFFCURVE",
"488 -139 CURVE SMOOTH",
"433 -144 LINE",
"437 -192 LINE",
"494 -188 LINE SMOOTH",
"614 -180 OFFCURVE",
"662 -112 OFFCURVE",
"662 -9 CURVE SMOOTH",
"662 728 LINE",
"609 728 LINE"
);
}
);
width = 758;
},
{
background = {
paths = (
{
closed = 1;
nodes = (
"275 -185 CURVE",
"286 -108 LINE",
"352 -126 OFFCURVE",
"408 -135 OFFCURVE",
"452 -135 CURVE SMOOTH",
"551 -135 OFFCURVE",
"595 -94 OFFCURVE",
"600 0 CURVE SMOOTH",
"601 3 OFFCURVE",
"601 24 OFFCURVE",
"601 28 CURVE",
"232 534 LINE",
"189 601 LINE",
"189 0 LINE",
"95 0 LINE",
"95 734 LINE",
"202 734 LINE",
"557 237 LINE",
"602 168 LINE",
"602 734 LINE",
"696 734 LINE",
"696 53 LINE SMOOTH",
"696 -117 OFFCURVE",
"631 -209 OFFCURVE",
"456 -209 CURVE SMOOTH",
"405 -209 OFFCURVE",
"345 -201 OFFCURVE"
);
}
);
};
layerId = "E1B555A7-F4E1-459C-9C1A-AE952106EEF9";
paths = (
{
closed = 1;
nodes = (
"551 217 LINE",
"580 238 LINE",
"193 728 LINE",
"71 728 LINE",
"71 0 LINE",
"226 0 LINE",
"226 511 LINE",
"198 490 LINE",
"577 7 LINE",
"550 94 LINE",
"550 25 LINE SMOOTH",
"550 -28 OFFCURVE",
"517 -61 OFFCURVE",
"460 -64 CURVE SMOOTH",
"380 -69 LINE",
"390 -194 LINE",
"488 -189 LINE SMOOTH",
"633 -181 OFFCURVE",
"707 -107 OFFCURVE",
"707 31 CURVE SMOOTH",
"707 728 LINE",
"551 728 LINE"
);
}
);
width = 778;
}
);
leftKerningGroup = H;
leftMetricsKey = H;
rightKerningGroup = H;
rightMetricsKey = H;
unicode = 014A;
userData = {
com.typemytype.robofont.layerData = {
b = {
anchors = (
);
components = (
);
contours = (
);
lib = {
};
name = Eng;
unicodes = (
);
width = 1495;
};
};
};
},
{
glyphname = O;
lastChange = "2016-09-21 08:56:17 +0000";
layers = (
{
anchors = (
{
name = bottom;
position = "{389, 0}";
},
{
name = center;
position = "{390, 365}";
},
{
name = ogonek;
position = "{498, 10}";
},
{
name = top;
position = "{389, 728}";
},
{
name = topleft;
position = "{27, 728}";
},
{
name = topright;
position = "{420, 728}";
}
);
background = {
anchors = (
{
name = bottom;
position = "{389, 0}";
},
{
name = center;
position = "{390, 365}";
},
{
name = ogonek;
position = "{498, 10}";
},
{
name = top;
position = "{389, 728}";
},
{
name = topleft;
position = "{27, 728}";
},
{
name = topright;
position = "{420, 728}";
}
);
paths = (
{
closed = 1;
nodes = (
"603 -10 OFFCURVE",
"738 136 OFFCURVE",
"738 365 CURVE SMOOTH",
"738 597 OFFCURVE",
"603 747 OFFCURVE",
"398 747 CURVE SMOOTH",
"188 747 OFFCURVE",
"56 597 OFFCURVE",
"56 365 CURVE SMOOTH",
"56 136 OFFCURVE",
"189 -10 OFFCURVE",
"398 -10 CURVE SMOOTH"
);
},
{
closed = 1;
nodes = (
"224 33 OFFCURVE",
"111 163 OFFCURVE",
"111 365 CURVE SMOOTH",
"111 571 OFFCURVE",
"223 703 OFFCURVE",
"398 703 CURVE SMOOTH",
"570 703 OFFCURVE",
"682 571 OFFCURVE",
"682 365 CURVE SMOOTH",
"682 163 OFFCURVE",
"571 33 OFFCURVE",
"398 33 CURVE SMOOTH"
);
}
);
};
layerId = "9E718F8A-2CEA-4931-B05D-987794BD97DA";
paths = (
{
closed = 1;
nodes = (
"589 -8 OFFCURVE",
"713 134 OFFCURVE",
"713 365 CURVE SMOOTH",
"713 595 OFFCURVE",
"590 737 OFFCURVE",
"389 737 CURVE SMOOTH",
"189 737 OFFCURVE",
"67 595 OFFCURVE",
"67 364 CURVE SMOOTH",
"67 134 OFFCURVE",
"191 -8 OFFCURVE",
"389 -8 CURVE SMOOTH"
);
},
{
closed = 1;
nodes = (
"223 43 OFFCURVE",
"126 161 OFFCURVE",
"126 365 CURVE SMOOTH",
"126 568 OFFCURVE",
"223 685 OFFCURVE",
"389 685 CURVE SMOOTH",
"558 685 OFFCURVE",
"654 569 OFFCURVE",
"654 365 CURVE SMOOTH",
"654 160 OFFCURVE",
"557 43 OFFCURVE",
"389 43 CURVE SMOOTH"
);
}
);
width = 780;
},
{
anchors = (
{
name = bottom;
position = "{408, 0}";
},
{
name = center;
position = "{408, 365}";
},
{
name = ogonek;
position = "{530, 10}";
},
{
name = top;
position = "{407, 728}";
},
{
name = topleft;
position = "{23, 728}";
},
{
name = topright;
position = "{439, 728}";
}
);
background = {
anchors = (
{
name = bottom;
position = "{408, 0}";
},
{
name = center;
position = "{408, 365}";
},
{
name = ogonek;
position = "{530, 10}";
},
{
name = top;
position = "{407, 728}";
},
{
name = topleft;
position = "{23, 728}";
},
{
name = topright;
position = "{439, 728}";
}
);
paths = (
{
closed = 1;
nodes = (
"635 -11 OFFCURVE",
"766 137 OFFCURVE",
"766 368 CURVE SMOOTH",
"766 590 OFFCURVE",
"631 748 OFFCURVE",
"412 748 CURVE SMOOTH",
"185 748 OFFCURVE",
"54 590 OFFCURVE",
"54 368 CURVE SMOOTH",
"54 136 OFFCURVE",
"186 -11 OFFCURVE",
"412 -11 CURVE SMOOTH"
);
},
{
closed = 1;
nodes = (
"241 71 OFFCURVE",
"158 191 OFFCURVE",
"158 368 CURVE SMOOTH",
"158 534 OFFCURVE",
"242 665 OFFCURVE",
"411 665 CURVE SMOOTH",
"586 665 OFFCURVE",
"661 534 OFFCURVE",
"661 368 CURVE SMOOTH",
"661 191 OFFCURVE",
"586 71 OFFCURVE",
"411 71 CURVE SMOOTH"
);
}
);
};
layerId = "E1B555A7-F4E1-459C-9C1A-AE952106EEF9";
paths = (
{
closed = 1;
nodes = (
"628 -9 OFFCURVE",
"764 136 OFFCURVE",
"764 365 CURVE SMOOTH",
"764 593 OFFCURVE",
"628 738 OFFCURVE",
"408 738 CURVE SMOOTH",
"188 738 OFFCURVE",
"51 593 OFFCURVE",
"51 365 CURVE SMOOTH",
"51 136 OFFCURVE",
"188 -9 OFFCURVE",
"408 -9 CURVE SMOOTH"
);
},
{
closed = 1;
nodes = (
"290 120 OFFCURVE",
"217 202 OFFCURVE",
"217 365 CURVE SMOOTH",
"217 527 OFFCURVE",
"290 608 OFFCURVE",
"408 608 CURVE SMOOTH",
"526 608 OFFCURVE",
"599 526 OFFCURVE",
"599 365 CURVE SMOOTH",
"599 204 OFFCURVE",
"526 120 OFFCURVE",
"408 120 CURVE SMOOTH"
);
}
);
width = 815;
}
);
leftKerningGroup = O;
rightKerningGroup = O;
unicode = 004F;
userData = {
anchors = (
);
b = {
};
com.typemytype.robofont.guides = (
);
com.typemytype.robofont.layerData = {
b = {
anchors = (
);
components = (
);
contours = (
);
lib = {
};
name = O;
unicodes = (
);
width = 1597;
};
};
components = (
);
contours = (
);
lib = {
};
name = O;
unicodes = (
);
width = 1604;
};
},
{
glyphname = Ohorn;
lastChange = "2016-09-21 08:56:17 +0000";
layers = (
{
anchors = (
{
name = bottom;
position = "{390, 0}";
},
{
name = top;
position = "{389, 728}";
}
);
background = {
anchors = (
{
name = bottom;
position = "{390, 0}";
},
{
name = top;
position = "{389, 728}";
}
);
paths = (
{
closed = 1;
nodes = (
"589 -8 OFFCURVE",
"713 134 OFFCURVE",
"713 365 CURVE SMOOTH",
"713 525 OFFCURVE",
"654 641 OFFCURVE",
"546 698 CURVE",
"553 685 LINE",
"654 685 OFFCURVE",
"713 741 OFFCURVE",
"713 835 CURVE SMOOTH",
"713 862 OFFCURVE",
"705 874 OFFCURVE",
"687 874 CURVE SMOOTH",
"670 874 OFFCURVE",
"661 862 OFFCURVE",
"660 840 CURVE SMOOTH",
"656 753 OFFCURVE",
"629 728 OFFCURVE",
"539 728 CURVE SMOOTH",
"498 728 OFFCURVE",
"444 737 OFFCURVE",
"394 737 CURVE SMOOTH",
"189 737 OFFCURVE",
"67 595 OFFCURVE",
"67 364 CURVE SMOOTH",
"67 134 OFFCURVE",
"191 -8 OFFCURVE",
"389 -8 CURVE SMOOTH"
);
},
{
closed = 1;
nodes = (
"223 43 OFFCURVE",
"126 161 OFFCURVE",
"126 365 CURVE SMOOTH",
"126 568 OFFCURVE",
"223 685 OFFCURVE",
"389 685 CURVE SMOOTH",
"558 685 OFFCURVE",
"654 569 OFFCURVE",
"654 365 CURVE SMOOTH",
"654 160 OFFCURVE",
"557 43 OFFCURVE",
"389 43 CURVE SMOOTH"
);
}
);
};
guideLines = (
{
angle = 90;
position = "{713, 479}";
}
);
layerId = "9E718F8A-2CEA-4931-B05D-987794BD97DA";
paths = (
{
closed = 1;
nodes = (
"588 -8 OFFCURVE",
"713 134 OFFCURVE",
"713 365 CURVE SMOOTH",
"713 525 OFFCURVE",
"654 641 OFFCURVE",
"546 698 CURVE",
"553 685 LINE",
"654 685 OFFCURVE",
"713 741 OFFCURVE",
"713 836 CURVE SMOOTH",
"713 858 LINE",
"661 858 LINE",
"661 845 LINE SMOOTH",
"661 761 OFFCURVE",
"628 729 OFFCURVE",
"539 728 CURVE SMOOTH",
"498 728 OFFCURVE",
"443 737 OFFCURVE",
"394 737 CURVE SMOOTH",
"189 737 OFFCURVE",
"67 595 OFFCURVE",
"67 364 CURVE SMOOTH",
"67 134 OFFCURVE",
"192 -8 OFFCURVE",
"389 -8 CURVE SMOOTH"
);
},
{
closed = 1;
nodes = (
"223 43 OFFCURVE",
"126 161 OFFCURVE",
"126 365 CURVE SMOOTH",
"126 568 OFFCURVE",
"223 685 OFFCURVE",
"389 685 CURVE SMOOTH",
"558 685 OFFCURVE",
"654 569 OFFCURVE",
"654 365 CURVE SMOOTH",
"654 160 OFFCURVE",
"557 43 OFFCURVE",
"389 43 CURVE SMOOTH"
);
}
);
width = 780;
},
{
anchors = (
{
name = bottom;
position = "{408, 0}";
},
{
name = top;
position = "{407, 728}";
}
);
background = {
anchors = (
{
name = bottom;
position = "{408, 0}";
},
{
name = top;
position = "{407, 728}";
}
);
paths = (
{
closed = 1;
nodes = (
"628 -9 OFFCURVE",
"764 136 OFFCURVE",
"764 365 CURVE SMOOTH",
"764 503 OFFCURVE",
"717 609 OFFCURVE",
"624 672 CURVE",
"607 651 LINE",
"702 651 OFFCURVE",
"764 725 OFFCURVE",
"764 807 CURVE SMOOTH",
"764 860 OFFCURVE",
"742 887 OFFCURVE",
"698 887 CURVE SMOOTH",
"653 887 OFFCURVE",
"626 862 OFFCURVE",
"621 803 CURVE SMOOTH",
"617 747 OFFCURVE",
"595 728 OFFCURVE",
"537 728 CURVE SMOOTH",
"492 728 OFFCURVE",
"457 738 OFFCURVE",
"410 738 CURVE SMOOTH",
"188 738 OFFCURVE",
"51 593 OFFCURVE",
"51 365 CURVE SMOOTH",
"51 136 OFFCURVE",
"188 -9 OFFCURVE",
"408 -9 CURVE SMOOTH"
);
},
{
closed = 1;
nodes = (
"290 120 OFFCURVE",
"217 202 OFFCURVE",
"217 365 CURVE SMOOTH",
"217 527 OFFCURVE",
"290 608 OFFCURVE",
"408 608 CURVE SMOOTH",
"526 608 OFFCURVE",
"599 526 OFFCURVE",
"599 365 CURVE SMOOTH",
"599 204 OFFCURVE",
"526 120 OFFCURVE",
"408 120 CURVE SMOOTH"
);
}
);
};
guideLines = (
{
angle = 90;
position = "{764, 661}";
}
);
layerId = "E1B555A7-F4E1-459C-9C1A-AE952106EEF9";
paths = (
{
closed = 1;
nodes = (
"628 -9 OFFCURVE",
"764 136 OFFCURVE",
"764 365 CURVE SMOOTH",
"764 503 OFFCURVE",
"717 609 OFFCURVE",
"624 672 CURVE",
"607 651 LINE",
"699 651 OFFCURVE",
"764 718 OFFCURVE",
"764 813 CURVE SMOOTH",
"764 853 LINE",
"626 853 LINE",
"626 833 LINE SMOOTH",
"626 756 OFFCURVE",
"602 728 OFFCURVE",
"537 728 CURVE SMOOTH",
"492 728 OFFCURVE",
"460 738 OFFCURVE",
"410 738 CURVE SMOOTH",
"188 738 OFFCURVE",
"51 593 OFFCURVE",
"51 365 CURVE SMOOTH",
"51 136 OFFCURVE",
"188 -9 OFFCURVE",
"408 -9 CURVE SMOOTH"
);
},
{
closed = 1;
nodes = (
"290 120 OFFCURVE",
"217 202 OFFCURVE",
"217 365 CURVE SMOOTH",
"217 527 OFFCURVE",
"290 608 OFFCURVE",
"408 608 CURVE SMOOTH",
"526 608 OFFCURVE",
"599 526 OFFCURVE",
"599 365 CURVE SMOOTH",
"599 204 OFFCURVE",
"526 120 OFFCURVE",
"408 120 CURVE SMOOTH"
);
}
);
width = 815;
}
);
leftKerningGroup = O;
leftMetricsKey = O;
widthMetricsKey = O;
rightKerningGroup = O;
unicode = 01A0;
},
{
glyphname = Oogonek;
lastChange = "2016-09-21 08:56:17 +0000";
layers = (
{
anchors = (
{
name = top;
position = "{389, 728}";
}
);
background = {
anchors = (
{
name = top;
position = "{389, 728}";
}
);
components = (
{
name = O;
},
{
name = ogonek;
transform = "{1, 0, 0, 1, 273, 0}";
}
);
};
layerId = "9E718F8A-2CEA-4931-B05D-987794BD97DA";
paths = (
{
closed = 1;
nodes = (
"629 44 OFFCURVE",
"713 174 OFFCURVE",
"713 365 CURVE SMOOTH",
"713 595 OFFCURVE",
"589 737 OFFCURVE",
"389 737 CURVE SMOOTH",
"190 737 OFFCURVE",
"67 595 OFFCURVE",
"67 364 CURVE SMOOTH",
"67 123 OFFCURVE",
"205 -22 OFFCURVE",
"417 -7 CURVE",
"409 11 LINE",
"373 -11 OFFCURVE",
"351 -50 OFFCURVE",
"351 -91 CURVE SMOOTH",
"351 -154 OFFCURVE",
"399 -197 OFFCURVE",
"468 -197 CURVE SMOOTH",
"500 -197 OFFCURVE",
"529 -189 OFFCURVE",
"551 -174 CURVE",
"534 -134 LINE",
"512 -146 OFFCURVE",
"491 -153 OFFCURVE",
"473 -153 CURVE SMOOTH",
"430 -153 OFFCURVE",
"403 -127 OFFCURVE",
"403 -85 CURVE SMOOTH",
"403 -41 OFFCURVE",
"430 -11 OFFCURVE",
"481 3 CURVE SMOOTH"
);
},
{
closed = 1;
nodes = (
"126 568 OFFCURVE",
"223 685 OFFCURVE",
"389 685 CURVE SMOOTH",
"558 685 OFFCURVE",
"654 569 OFFCURVE",
"654 365 CURVE SMOOTH",
"654 160 OFFCURVE",
"557 43 OFFCURVE",
"389 43 CURVE SMOOTH",
"223 43 OFFCURVE",
"126 161 OFFCURVE",
"126 365 CURVE SMOOTH"
);
}
);
width = 780;
},
{
anchors = (
{
name = top;
position = "{407, 728}";
}
);
background = {
anchors = (
{
name = top;
position = "{407, 728}";
}
);
};
layerId = "E1B555A7-F4E1-459C-9C1A-AE952106EEF9";
paths = (
{
closed = 1;
nodes = (
"677 51 OFFCURVE",
"764 181 OFFCURVE",
"764 365 CURVE SMOOTH",
"764 593 OFFCURVE",
"628 738 OFFCURVE",
"408 738 CURVE SMOOTH",
"188 738 OFFCURVE",
"51 593 OFFCURVE",
"51 365 CURVE SMOOTH",
"51 129 OFFCURVE",
"196 -17 OFFCURVE",
"425 -9 CURVE",
"411 12 LINE",
"376 -11 OFFCURVE",
"356 -50 OFFCURVE",
"356 -90 CURVE SMOOTH",
"356 -156 OFFCURVE",
"411 -204 OFFCURVE",
"489 -204 CURVE SMOOTH",
"526 -204 OFFCURVE",
"562 -196 OFFCURVE",
"593 -183 CURVE",
"575 -108 LINE",
"556 -117 OFFCURVE",
"537 -121 OFFCURVE",
"520 -121 CURVE SMOOTH",
"480 -121 OFFCURVE",
"459 -102 OFFCURVE",
"459 -66 CURVE SMOOTH",
"459 -32 OFFCURVE",
"480 -8 OFFCURVE",
"524 5 CURVE SMOOTH"
);
},
{
closed = 1;
nodes = (
"217 527 OFFCURVE",
"290 608 OFFCURVE",
"408 608 CURVE SMOOTH",
"526 608 OFFCURVE",
"599 526 OFFCURVE",
"599 365 CURVE SMOOTH",
"599 204 OFFCURVE",
"526 120 OFFCURVE",
"408 120 CURVE SMOOTH",
"290 120 OFFCURVE",
"217 202 OFFCURVE",
"217 365 CURVE SMOOTH"
);
}
);
width = 815;
}
);
leftKerningGroup = O;
leftMetricsKey = O;
rightKerningGroup = O;
rightMetricsKey = O;
unicode = 01EA;
},
{
glyphname = Oslash;
lastChange = "2016-09-21 08:56:17 +0000";
layers = (
{
anchors = (
{
name = bottom;
position = "{389, 0}";
},
{
name = top;
position = "{389, 728}";
}
);
background = {
anchors = (
{
name = bottom;
position = "{389, 0}";
},
{
name = top;
position = "{389, 728}";
}
);
components = (
{
name = O;
}
);
paths = (
{
closed = 1;
nodes = (
"658 793 LINE",
"628 810 LINE",
"150 -61 LINE",
"182 -79 LINE"
);
}
);
};
layerId = "9E718F8A-2CEA-4931-B05D-987794BD97DA";
paths = (
{
closed = 1;
nodes = (
"589 -8 OFFCURVE",
"713 134 OFFCURVE",
"713 365 CURVE SMOOTH",
"713 595 OFFCURVE",
"590 737 OFFCURVE",
"389 737 CURVE SMOOTH",
"189 737 OFFCURVE",
"67 595 OFFCURVE",
"67 364 CURVE SMOOTH",
"67 134 OFFCURVE",
"191 -8 OFFCURVE",
"389 -8 CURVE SMOOTH"
);
},
{
closed = 1;
nodes = (
"639 745 LINE",
"598 769 LINE",
"140 -17 LINE",
"182 -40 LINE"
);
},
{
closed = 1;
nodes = (
"223 43 OFFCURVE",
"126 161 OFFCURVE",
"126 365 CURVE SMOOTH",
"126 568 OFFCURVE",
"223 685 OFFCURVE",
"389 685 CURVE SMOOTH",
"558 685 OFFCURVE",
"654 569 OFFCURVE",
"654 365 CURVE SMOOTH",
"654 160 OFFCURVE",
"557 43 OFFCURVE",
"389 43 CURVE SMOOTH"
);
}
);
width = 780;
},
{
anchors = (
{
name = bottom;
position = "{408, 0}";
},
{
name = top;
position = "{407, 728}";
}
);
background = {
components = (
{
name = O;
}
);
paths = (
{
closed = 1;
nodes = (
"218 -63 LINE",
"171 -37 LINE",
"606 786 LINE",
"654 760 LINE"
);
}
);
};
layerId = "E1B555A7-F4E1-459C-9C1A-AE952106EEF9";
paths = (
{
closed = 1;
nodes = (
"628 -9 OFFCURVE",
"764 136 OFFCURVE",
"764 365 CURVE SMOOTH",
"764 593 OFFCURVE",
"628 738 OFFCURVE",
"408 738 CURVE SMOOTH",
"188 738 OFFCURVE",
"51 593 OFFCURVE",
"51 365 CURVE SMOOTH",
"51 136 OFFCURVE",
"188 -9 OFFCURVE",
"408 -9 CURVE SMOOTH"
);
},
{
closed = 1;
nodes = (
"695 737 LINE",
"590 800 LINE",
"120 -8 LINE",
"225 -71 LINE"
);
},
{
closed = 1;
nodes = (
"290 120 OFFCURVE",
"217 202 OFFCURVE",
"217 365 CURVE SMOOTH",
"217 527 OFFCURVE",
"290 608 OFFCURVE",
"408 608 CURVE SMOOTH",
"526 608 OFFCURVE",
"599 526 OFFCURVE",
"599 365 CURVE SMOOTH",
"599 204 OFFCURVE",
"526 120 OFFCURVE",
"408 120 CURVE SMOOTH"
);
}
);
width = 815;
}
);
leftKerningGroup = O;
leftMetricsKey = O;
rightKerningGroup = O;
rightMetricsKey = O;
unicode = 00D8;
userData = {
com.typemytype.robofont.layerData = {
b = {
anchors = (
);
components = (
);
contours = (
);
lib = {
};
name = Oslash;
unicodes = (
);
width = 1597;
};
};
};
},
{
color = 4;
glyphname = OE;
lastChange = "2016-09-21 08:56:23 +0000";
layers = (
{
anchors = (
{
name = bottom;
position = "{550, 0}";
},
{
name = top;
position = "{549, 728}";
}
);
background = {
paths = (
{
closed = 1;
nodes = (
"589 -8 OFFCURVE",
"713 134 OFFCURVE",
"713 365 CURVE SMOOTH",
"713 595 OFFCURVE",
"590 737 OFFCURVE",
"389 737 CURVE SMOOTH",
"189 737 OFFCURVE",
"67 595 OFFCURVE",
"67 364 CURVE SMOOTH",
"67 134 OFFCURVE",
"191 -8 OFFCURVE",
"389 -8 CURVE SMOOTH"
);
},
{
closed = 1;
nodes = (
"223 43 OFFCURVE",
"126 161 OFFCURVE",
"126 365 CURVE SMOOTH",
"126 568 OFFCURVE",
"223 685 OFFCURVE",
"389 685 CURVE SMOOTH",
"558 685 OFFCURVE",
"654 569 OFFCURVE",
"654 365 CURVE SMOOTH",
"654 160 OFFCURVE",
"557 43 OFFCURVE",
"389 43 CURVE SMOOTH"
);
},
{
closed = 1;
nodes = (
"1025 0 LINE",
"1025 50 LINE",
"635 50 LINE",
"635 345 LINE",
"1004 345 LINE",
"1004 395 LINE",
"635 395 LINE",
"635 679 LINE",
"1025 679 LINE",
"1025 728 LINE",
"580 728 LINE",
"580 0 LINE"
);
}
);
};
layerId = "9E718F8A-2CEA-4931-B05D-987794BD97DA";
paths = (
{
closed = 1;
nodes = (
"1025 0 LINE",
"1025 50 LINE",
"635 50 LINE",
"635 345 LINE",
"1004 345 LINE",
"1004 395 LINE",
"635 395 LINE",
"635 679 LINE",
"1025 679 LINE",
"1025 728 LINE",
"581 728 LINE",
"581 660 LINE",
"580 644 LINE",
"580 88 LINE",
"581 68 LINE",
"581 0 LINE"
);
},
{
closed = 1;
nodes = (
"597 666 LINE",
"542 713 OFFCURVE",
"472 737 OFFCURVE",
"389 737 CURVE SMOOTH",
"189 737 OFFCURVE",
"67 595 OFFCURVE",
"67 364 CURVE SMOOTH",
"67 134 OFFCURVE",
"191 -8 OFFCURVE",
"389 -8 CURVE SMOOTH",
"473 -8 OFFCURVE",
"542 15 OFFCURVE",
"597 63 CURVE",
"597 128 LINE",
"551 72 OFFCURVE",
"479 43 OFFCURVE",
"389 43 CURVE SMOOTH",
"223 43 OFFCURVE",
"126 161 OFFCURVE",
"126 365 CURVE SMOOTH",
"126 567 OFFCURVE",
"222 685 OFFCURVE",
"389 685 CURVE SMOOTH",
"479 685 OFFCURVE",
"551 656 OFFCURVE",
"597 601 CURVE"
);
}
);
width = 1081;
},
{
anchors = (
{
name = bottom;
position = "{546, 0}";
},
{
name = top;
position = "{546, 728}";
}
);
background = {
anchors = (
{
name = bottom;
position = "{546, 0}";
},
{
name = top;
position = "{546, 728}";
}
);
paths = (
{
closed = 1;
nodes = (
"1678 20 OFFCURVE",
"1622 -9 OFFCURVE",
"1542 -11 CURVE SMOOTH",
"1325 -17 OFFCURVE",
"1190 128 OFFCURVE",
"1190 368 CURVE SMOOTH",
"1190 592 OFFCURVE",
"1331 750 OFFCURVE",
"1542 748 CURVE",
"1627 748 OFFCURVE",
"1684 720 OFFCURVE",
"1707 698 CURVE",
"1707 734 LINE",
"2116 734 LINE",
"2116 652 LINE",
"1803 652 LINE",
"1803 417 LINE",
"2096 417 LINE",
"2096 335 LINE",
"1804 335 LINE",
"1804 83 LINE",
"2130 83 LINE",
"2130 0 LINE",
"1707 0 LINE",
"1707 48 LINE"
);
},
{
closed = 1;
nodes = (
"1294 193 OFFCURVE",
"1380 65 OFFCURVE",
"1546 69 CURVE SMOOTH",
"1630 71 OFFCURVE",
"1679 101 OFFCURVE",
"1707 132 CURVE",
"1707 612 LINE",
"1678 640 OFFCURVE",
"1625 667 OFFCURVE",
"1542 665 CURVE",
"1385 662 OFFCURVE",
"1294 536 OFFCURVE",
"1294 366 CURVE SMOOTH"
);
},
{
closed = 1;
nodes = (
"628 -9 OFFCURVE",
"764 136 OFFCURVE",
"764 365 CURVE SMOOTH",
"764 593 OFFCURVE",
"628 738 OFFCURVE",
"408 738 CURVE SMOOTH",
"188 738 OFFCURVE",
"51 593 OFFCURVE",
"51 365 CURVE SMOOTH",
"51 136 OFFCURVE",
"188 -9 OFFCURVE",
"408 -9 CURVE SMOOTH"
);
},
{
closed = 1;
nodes = (
"290 120 OFFCURVE",
"217 202 OFFCURVE",
"217 365 CURVE SMOOTH",
"217 527 OFFCURVE",
"290 608 OFFCURVE",
"408 608 CURVE SMOOTH",
"526 608 OFFCURVE",
"599 526 OFFCURVE",
"599 365 CURVE SMOOTH",
"599 204 OFFCURVE",
"526 120 OFFCURVE",
"408 120 CURVE SMOOTH"
);
},
{
closed = 1;
nodes = (
"1041 0 LINE",
"1041 129 LINE",
"698 129 LINE",
"698 306 LINE",
"1021 306 LINE",
"1021 435 LINE",
"698 435 LINE",
"698 599 LINE",
"1041 599 LINE",
"1041 728 LINE",
"536 728 LINE",
"536 0 LINE"
);
}
);
};
layerId = "E1B555A7-F4E1-459C-9C1A-AE952106EEF9";
paths = (
{
closed = 1;
nodes = (
"1041 0 LINE",
"1041 129 LINE",
"698 129 LINE",
"698 306 LINE",
"1021 306 LINE",
"1021 435 LINE",
"698 435 LINE",
"698 599 LINE",
"1041 599 LINE",
"1041 728 LINE",
"546 728 LINE",
"546 647 LINE",
"536 627 LINE",
"536 114 LINE",
"546 79 LINE",
"546 0 LINE"
);
},
{
closed = 1;
nodes = (
"571 669 LINE",
"535 714 OFFCURVE",
"471 738 OFFCURVE",
"387 738 CURVE SMOOTH",
"189 738 OFFCURVE",
"51 584 OFFCURVE",
"51 365 CURVE SMOOTH",
"51 145 OFFCURVE",
"189 -9 OFFCURVE",
"387 -9 CURVE SMOOTH",
"472 -9 OFFCURVE",
"535 15 OFFCURVE",
"571 62 CURVE",
"571 189 LINE",
"540 144 OFFCURVE",
"483 120 OFFCURVE",
"408 120 CURVE SMOOTH",
"286 120 OFFCURVE",
"217 208 OFFCURVE",
"217 365 CURVE SMOOTH",
"217 521 OFFCURVE",
"285 608 OFFCURVE",
"408 608 CURVE SMOOTH",
"483 608 OFFCURVE",
"540 585 OFFCURVE",
"571 539 CURVE"
);
}
);
width = 1079;
}
);
leftKerningGroup = O;
leftMetricsKey = O;
rightKerningGroup = E;
rightMetricsKey = E;
unicode = 0152;
},
{
color = 4;
glyphname = P;
lastChange = "2016-09-21 08:56:17 +0000";
layers = (
{
anchors = (
{
name = bottom;
position = "{328, 0}";
},
{
name = top;
position = "{328, 728}";
}
);
background = {
anchors = (
{
name = bottom;
position = "{328, 0}";
},
{
name = top;
position = "{328, 728}";
}
);
paths = (
{
closed = 1;
nodes = (
"167 0 LINE",
"167 353 LINE",
"331 353 LINE SMOOTH",
"504 353 OFFCURVE",
"578 410 OFFCURVE",
"578 544 CURVE SMOOTH",
"578 678 OFFCURVE",
"504 734 OFFCURVE",
"331 734 CURVE SMOOTH",
"113 734 LINE",
"113 0 LINE"
);
},
{
closed = 1;
nodes = (
"167 691 LINE",
"331 691 LINE",
"338 691 OFFCURVE",
"344 691 OFFCURVE",
"350 691 CURVE SMOOTH",
"473 691 OFFCURVE",
"527 647 OFFCURVE",
"527 544 CURVE SMOOTH",
"527 441 OFFCURVE",
"477 397 OFFCURVE",
"331 397 CURVE SMOOTH",
"167 397 LINE"
);
},
{
closed = 1;
nodes = (
"152 0 LINE",
"152 309 LINE",
"367 309 LINE SMOOTH",
"517 309 OFFCURVE",
"604 385 OFFCURVE",
"604 520 CURVE SMOOTH",
"604 654 OFFCURVE",
"518 728 OFFCURVE",
"367 728 CURVE",
"96 728 LINE",
"96 0 LINE"
);
},
{
closed = 1;
nodes = (
"152 679 LINE",
"364 679 LINE SMOOTH",
"487 679 OFFCURVE",
"547 625 OFFCURVE",
"547 520 CURVE SMOOTH",
"547 414 OFFCURVE",
"487 358 OFFCURVE",
"364 358 CURVE SMOOTH",
"152 358 LINE"
);
}
);
};
layerId = "9E718F8A-2CEA-4931-B05D-987794BD97DA";
paths = (
{
closed = 1;
nodes = (
"152 0 LINE",
"152 330 LINE",
"372 330 LINE SMOOTH",
"517 330 OFFCURVE",
"604 406 OFFCURVE",
"604 530 CURVE SMOOTH",
"604 654 OFFCURVE",
"518 728 OFFCURVE",
"372 728 CURVE SMOOTH",
"96 728 LINE",
"96 0 LINE"
);
},
{
closed = 1;
nodes = (
"152 679 LINE",
"369 679 LINE SMOOTH",
"487 679 OFFCURVE",
"547 625 OFFCURVE",
"547 530 CURVE SMOOTH",
"547 435 OFFCURVE",
"487 379 OFFCURVE",
"369 379 CURVE SMOOTH",
"152 379 LINE"
);
}
);
width = 657;
},
{
anchors = (
{
name = bottom;
position = "{349, 0}";
},
{
name = top;
position = "{348, 728}";
}
);
background = {
anchors = (
{
name = bottom;
position = "{349, 0}";
},
{
name = top;
position = "{348, 728}";
}
);
paths = (
{
closed = 1;
nodes = (
"95 0 LINE",
"95 734 LINE",
"305 734 LINE SMOOTH",
"477 734 OFFCURVE",
"594 703 OFFCURVE",
"594 534 CURVE SMOOTH",
"594 380 OFFCURVE",
"486 334 OFFCURVE",
"327 334 CURVE SMOOTH",
"191 334 LINE",
"191 0 LINE"
);
},
{
closed = 1;
nodes = (
"191 416 LINE",
"326 416 LINE SMOOTH",
"433 416 OFFCURVE",
"496 438 OFFCURVE",
"496 533 CURVE SMOOTH",
"496 635 OFFCURVE",
"430 651 OFFCURVE",
"308 651 CURVE SMOOTH",
"191 651 LINE"
);
},
{
closed = 1;
nodes = (
"238 0 LINE",
"238 272 LINE",
"409 272 LINE SMOOTH",
"567 272 OFFCURVE",
"661 357 OFFCURVE",
"661 500 CURVE SMOOTH",
"661 644 OFFCURVE",
"568 728 OFFCURVE",
"409 728 CURVE SMOOTH",
"71 728 LINE",
"71 0 LINE"
);
},
{
closed = 1;
nodes = (
"238 601 LINE",
"387 601 LINE SMOOTH",
"467 601 OFFCURVE",
"505 568 OFFCURVE",
"505 499 CURVE SMOOTH",
"505 431 OFFCURVE",
"466 398 OFFCURVE",
"387 398 CURVE SMOOTH",
"238 398 LINE"
);
}
);
};
layerId = "E1B555A7-F4E1-459C-9C1A-AE952106EEF9";
paths = (
{
closed = 1;
nodes = (
"238 0 LINE",
"238 292 LINE",
"405 292 LINE SMOOTH",
"567 292 OFFCURVE",
"661 378 OFFCURVE",
"661 510 CURVE SMOOTH",
"661 644 OFFCURVE",
"568 728 OFFCURVE",
"405 728 CURVE SMOOTH",
"71 728 LINE",
"71 0 LINE"
);
},
{
closed = 1;
nodes = (
"238 601 LINE",
"383 601 LINE SMOOTH",
"467 601 OFFCURVE",
"505 568 OFFCURVE",
"505 509 CURVE SMOOTH",
"505 451 OFFCURVE",
"466 418 OFFCURVE",
"383 418 CURVE SMOOTH",
"238 418 LINE"
);
}
);
width = 692;
}
);
leftKerningGroup = H;
leftMetricsKey = H;
rightKerningGroup = P;
unicode = 0050;
userData = {
anchors = (
);
b = {
};
com.typemytype.robofont.layerData = {
b = {
anchors = (
);
components = (
);
contours = (
{
points = (
{
segmentType = curve;
smooth = 1;
x = 266;
y = 0;
},
{
segmentType = line;
smooth = 1;
x = 1035;
y = 0;
},
{
smooth = 0;
x = 1084;
y = 0;
},
{
smooth = 0;
x = 1108;
y = 34;
},
{
segmentType = curve;
smooth = 1;
x = 1108;
y = 71;
},
{
smooth = 0;
x = 1108;
y = 107;
},
{
smooth = 0;
x = 1084;
y = 141;
},
{
segmentType = curve;
smooth = 1;
x = 1035;
y = 141;
},
{
segmentType = line;
smooth = 0;
x = 356;
y = 141;
},
{
segmentType = line;
smooth = 0;
x = 356;
y = 665;
},
{
segmentType = line;
smooth = 1;
x = 975;
y = 665;
},
{
smooth = 0;
x = 1024;
y = 665;
},
{
smooth = 0;
x = 1049;
y = 698;
},
{
segmentType = curve;
smooth = 1;
x = 1049;
y = 734;
},
{
smooth = 0;
x = 1049;
y = 770;
},
{
smooth = 0;
x = 1026;
y = 803;
},
{
segmentType = curve;
smooth = 1;
x = 975;
y = 803;
},
{
segmentType = line;
smooth = 0;
x = 356;
y = 803;
},
{
segmentType = line;
smooth = 0;
x = 356;
y = 1285;
},
{
segmentType = line;
smooth = 1;
x = 1007;
y = 1285;
},
{
smooth = 0;
x = 1056;
y = 1285;
},
{
smooth = 0;
x = 1080;
y = 1319;
},
{
segmentType = curve;
smooth = 1;
x = 1080;
y = 1356;
},
{
smooth = 0;
x = 1080;
y = 1392;
},
{
smooth = 0;
x = 1056;
y = 1426;
},
{
segmentType = curve;
smooth = 1;
x = 1007;
y = 1426;
},
{
segmentType = line;
smooth = 1;
x = 261;
y = 1426;
},
{
smooth = 0;
x = 213;
y = 1426;
},
{
smooth = 0;
x = 178;
y = 1383;
},
{
segmentType = curve;
smooth = 1;
x = 178;
y = 1340;
},
{
segmentType = line;
smooth = 1;
x = 178;
y = 86;
},
{
smooth = 0;
x = 178;
y = 41;
},
{
smooth = 0;
x = 222;
y = 0;
}
);
}
);
lib = {
};
name = P;
unicodes = (
);
width = 1201;
};
};
components = (
);
contours = (
);
lib = {
};
name = P;
unicodes = (
);
width = 1319;
};
},
{
glyphname = Thorn;
lastChange = "2016-09-21 08:56:17 +0000";
layers = (
{
anchors = (
{
name = bottom;
position = "{328, 0}";
},
{
name = top;
position = "{328, 728}";
}
);
background = {
anchors = (
{
name = bottom;
position = "{328, 0}";
},
{
name = top;
position = "{328, 728}";
}
);
paths = (
{
closed = 1;
nodes = (
"164 0 LINE",
"164 181 LINE",
"324 181 LINE SMOOTH",
"484 181 OFFCURVE",
"597 245 OFFCURVE",
"597 395 CURVE SMOOTH",
"597 571 OFFCURVE",
"455 611 OFFCURVE",
"284 611 CURVE SMOOTH",
"163 611 LINE",
"163 734 LINE",
"107 734 LINE",
"107 0 LINE"
);
},
{
closed = 1;
nodes = (
"164 560 LINE",
"292 560 LINE SMOOTH",
"438 560 OFFCURVE",
"538 526 OFFCURVE",
"538 393 CURVE SMOOTH",
"538 281 OFFCURVE",
"445 232 OFFCURVE",
"318 232 CURVE SMOOTH",
"164 232 LINE"
);
}
);
};
layerId = "9E718F8A-2CEA-4931-B05D-987794BD97DA";
paths = (
{
closed = 1;
nodes = (
"377 178 LINE SMOOTH",
"521 178 OFFCURVE",
"604 249 OFFCURVE",
"604 372 CURVE SMOOTH",
"604 494 OFFCURVE",
"523 563 OFFCURVE",
"377 563 CURVE SMOOTH",
"140 563 LINE",
"140 513 LINE",
"374 513 LINE SMOOTH",
"492 513 OFFCURVE",
"547 468 OFFCURVE",
"547 372 CURVE SMOOTH",
"547 275 OFFCURVE",
"491 227 OFFCURVE",
"374 227 CURVE SMOOTH",
"140 227 LINE",
"140 178 LINE"
);
},
{
closed = 1;
nodes = (
"152 0 LINE",
"152 728 LINE",
"96 728 LINE",
"96 0 LINE"
);
}
);
width = 657;
},
{
anchors = (
{
name = bottom;
position = "{349, 0}";
},
{
name = top;
position = "{348, 728}";
}
);
background = {
anchors = (
{
name = bottom;
position = "{349, 0}";
},
{
name = top;
position = "{348, 728}";
}
);
paths = (
{
closed = 1;
nodes = (
"101 0 LINE",
"101 734 LINE",
"197 734 LINE",
"197 614 LINE",
"296 614 LINE SMOOTH",
"468 614 OFFCURVE",
"607 575 OFFCURVE",
"607 393 CURVE SMOOTH",
"607 238 OFFCURVE",
"479 173 OFFCURVE",
"319 173 CURVE SMOOTH",
"197 173 LINE",
"197 0 LINE"
);
},
{
closed = 1;
nodes = (
"197 256 LINE",
"327 256 LINE SMOOTH",
"433 256 OFFCURVE",
"504 296 OFFCURVE",
"504 392 CURVE SMOOTH",
"504 504 OFFCURVE",
"426 531 OFFCURVE",
"303 531 CURVE SMOOTH",
"197 531 LINE"
);
}
);
};
layerId = "E1B555A7-F4E1-459C-9C1A-AE952106EEF9";
paths = (
{
closed = 1;
nodes = (
"410 157 LINE SMOOTH",
"566 157 OFFCURVE",
"661 238 OFFCURVE",
"661 370 CURVE SMOOTH",
"661 503 OFFCURVE",
"568 583 OFFCURVE",
"410 583 CURVE SMOOTH",
"214 583 LINE",
"214 456 LINE",
"382 456 LINE SMOOTH",
"467 456 OFFCURVE",
"505 430 OFFCURVE",
"505 370 CURVE SMOOTH",
"505 310 OFFCURVE",
"467 284 OFFCURVE",
"382 284 CURVE SMOOTH",
"214 284 LINE",
"214 157 LINE"
);
},
{
closed = 1;
nodes = (
"234 0 LINE",
"234 728 LINE",
"71 728 LINE",
"71 0 LINE"
);
}
);
width = 693;
}
);
leftKerningGroup = H;
leftMetricsKey = H;
rightKerningGroup = THORN;
unicode = 00DE;
},
{
color = 4;
glyphname = Q;
lastChange = "2016-09-21 08:56:17 +0000";
layers = (
{
anchors = (
{
name = bottom;
position = "{389, 0}";
},
{
name = center;
position = "{390, 365}";
},
{
name = ogonek;
position = "{498, 10}";
},
{
name = top;
position = "{389, 728}";
},
{
name = topleft;
position = "{27, 728}";
},
{
name = topright;
position = "{420, 728}";
}
);
background = {
components = (
{
name = O;
}
);
paths = (
{
closed = 1;
nodes = (
"622 -175 LINE",
"622 -175 OFFCURVE",
"526 -79 OFFCURVE",
"477 20 CURVE",
"436 10 LINE",
"480 -91 OFFCURVE",
"591 -205 OFFCURVE",
"591 -205 CURVE"
);
},
{
closed = 1;
nodes = (
"638 -173 LINE",
"573 -66 LINE SMOOTH",
"535 -3 OFFCURVE",
"505 15 OFFCURVE",
"440 15 CURVE",
"469 0 LINE",
"622 33 OFFCURVE",
"713 168 OFFCURVE",
"713 365 CURVE SMOOTH",
"713 595 OFFCURVE",
"589 737 OFFCURVE",
"389 737 CURVE SMOOTH",
"190 737 OFFCURVE",
"67 595 OFFCURVE",
"67 364 CURVE SMOOTH",
"67 134 OFFCURVE",
"192 -8 OFFCURVE",
"389 -8 CURVE SMOOTH",
"446 -8 OFFCURVE",
"490 -31 OFFCURVE",
"515 -73 CURVE SMOOTH",
"593 -199 LINE"
);
},
{
closed = 1;
nodes = (
"223 43 OFFCURVE",
"126 161 OFFCURVE",
"126 365 CURVE SMOOTH",
"126 568 OFFCURVE",
"223 685 OFFCURVE",
"389 685 CURVE SMOOTH",
"558 685 OFFCURVE",
"654 569 OFFCURVE",
"654 365 CURVE SMOOTH",
"654 160 OFFCURVE",
"557 43 OFFCURVE",
"389 43 CURVE SMOOTH"
);
}
);
};
layerId = "9E718F8A-2CEA-4931-B05D-987794BD97DA";
paths = (
{
closed = 1;
nodes = (
"625 -153 LINE",
"572 -108 OFFCURVE",
"526 -56 OFFCURVE",
"489 12 CURVE",
"430 -4 LINE",
"471 -76 OFFCURVE",
"532 -154 OFFCURVE",
"586 -195 CURVE"
);
},
{
closed = 1;
nodes = (
"589 -8 OFFCURVE",
"713 134 OFFCURVE",
"713 365 CURVE SMOOTH",
"713 595 OFFCURVE",
"590 737 OFFCURVE",
"389 737 CURVE SMOOTH",
"189 737 OFFCURVE",
"67 595 OFFCURVE",
"67 364 CURVE SMOOTH",
"67 134 OFFCURVE",
"191 -8 OFFCURVE",
"389 -8 CURVE SMOOTH"
);
},
{
closed = 1;
nodes = (
"223 43 OFFCURVE",
"126 161 OFFCURVE",
"126 365 CURVE SMOOTH",
"126 568 OFFCURVE",
"223 685 OFFCURVE",
"389 685 CURVE SMOOTH",
"558 685 OFFCURVE",
"654 569 OFFCURVE",
"654 365 CURVE SMOOTH",
"654 160 OFFCURVE",
"557 43 OFFCURVE",
"389 43 CURVE SMOOTH"
);
}
);
width = 780;
},
{
anchors = (
{
name = bottom;
position = "{408, 0}";
},
{
name = center;
position = "{408, 365}";
},
{
name = ogonek;
position = "{530, 10}";
},
{
name = top;
position = "{407, 728}";
},
{
name = topleft;
position = "{23, 728}";
},
{
name = topright;
position = "{439, 728}";
}
);
background = {
anchors = (
{
name = bottom;
position = "{408, 0}";
},
{
name = top;
position = "{407, 728}";
}
);
components = (
{
name = O;
}
);
paths = (
{
closed = 1;
nodes = (
"617 -216 LINE",
"617 -216 OFFCURVE",
"517 -121 OFFCURVE",
"460 -4 CURVE",
"550 12 LINE",
"594 -77 OFFCURVE",
"677 -153 OFFCURVE",
"677 -153 CURVE"
);
},
{
closed = 1;
nodes = (
"746 -162 LINE",
"667 -35 LINE SMOOTH",
"635 18 OFFCURVE",
"596 38 OFFCURVE",
"533 38 CURVE",
"550 17 LINE",
"687 66 OFFCURVE",
"764 192 OFFCURVE",
"764 365 CURVE SMOOTH",
"764 593 OFFCURVE",
"628 738 OFFCURVE",
"408 738 CURVE SMOOTH",
"188 738 OFFCURVE",
"51 593 OFFCURVE",
"51 365 CURVE SMOOTH",
"51 136 OFFCURVE",
"188 -9 OFFCURVE",
"408 -9 CURVE SMOOTH",
"450 -9 OFFCURVE",
"478 -23 OFFCURVE",
"495 -50 CURVE SMOOTH",
"604 -227 LINE"
);
},
{
closed = 1;
nodes = (
"290 120 OFFCURVE",
"217 202 OFFCURVE",
"217 365 CURVE SMOOTH",
"217 527 OFFCURVE",
"290 608 OFFCURVE",
"408 608 CURVE SMOOTH",
"526 608 OFFCURVE",
"599 526 OFFCURVE",
"599 365 CURVE SMOOTH",
"599 204 OFFCURVE",
"526 120 OFFCURVE",
"408 120 CURVE SMOOTH"
);
}
);
};
layerId = "E1B555A7-F4E1-459C-9C1A-AE952106EEF9";
paths = (
{
closed = 1;
nodes = (
"718 -112 LINE",
"665 -67 OFFCURVE",
"606 -14 OFFCURVE",
"573 54 CURVE",
"430 -4 LINE",
"471 -76 OFFCURVE",
"532 -146 OFFCURVE",
"606 -195 CURVE"
);
},
{
closed = 1;
nodes = (
"628 -9 OFFCURVE",
"764 136 OFFCURVE",
"764 365 CURVE SMOOTH",
"764 593 OFFCURVE",
"628 738 OFFCURVE",
"408 738 CURVE SMOOTH",
"188 738 OFFCURVE",
"51 593 OFFCURVE",
"51 365 CURVE SMOOTH",
"51 136 OFFCURVE",
"188 -9 OFFCURVE",
"408 -9 CURVE SMOOTH"
);
},
{
closed = 1;
nodes = (
"290 120 OFFCURVE",
"217 202 OFFCURVE",
"217 365 CURVE SMOOTH",
"217 527 OFFCURVE",
"290 608 OFFCURVE",
"408 608 CURVE SMOOTH",
"526 608 OFFCURVE",
"599 526 OFFCURVE",
"599 365 CURVE SMOOTH",
"599 204 OFFCURVE",
"526 120 OFFCURVE",
"408 120 CURVE SMOOTH"
);
}
);
width = 815;
}
);
leftKerningGroup = O;
leftMetricsKey = O;
widthMetricsKey = O;
rightKerningGroup = O;
unicode = 0051;
userData = {
anchors = (
);
b = {
};
com.typemytype.robofont.layerData = {
b = {
anchors = (
);
components = (
);
contours = (
);
lib = {
};
name = Q;
unicodes = (
);
width = 1597;
};
};
components = (
);
contours = (
);
lib = {
};
name = Q;
unicodes = (
);
width = 1604;
};
},
{
color = 4;
glyphname = R;
lastChange = "2016-09-21 08:56:17 +0000";
layers = (
{
anchors = (
{
name = bottom;
position = "{347, 0}";
},
{
name = top;
position = "{347, 728}";
}
);
background = {
anchors = (
{
name = bottom;
position = "{347, 0}";
},
{
name = top;
position = "{347, 728}";
}
);
paths = (
{
closed = 1;
nodes = (
"167 0 LINE",
"167 339 LINE",
"363 339 LINE SMOOTH",
"455 339 OFFCURVE",
"470 312 OFFCURVE",
"508 206 CURVE SMOOTH",
"581 0 LINE",
"631 0 LINE",
"556 217 LINE SMOOTH",
"521 316 OFFCURVE",
"509 346 OFFCURVE",
"426 361 CURVE",
"527 369 OFFCURVE",
"575 444 OFFCURVE",
"575 543 CURVE SMOOTH",
"575 677 OFFCURVE",
"502 734 OFFCURVE",
"333 734 CURVE SMOOTH",
"113 734 LINE",
"113 0 LINE"
);
},
{
closed = 1;
nodes = (
"169 691 LINE",
"333 691 LINE",
"339 691 OFFCURVE",
"346 691 OFFCURVE",
"352 691 CURVE SMOOTH",
"470 691 OFFCURVE",
"524 647 OFFCURVE",
"524 543 CURVE SMOOTH",
"524 438 OFFCURVE",
"470 382 OFFCURVE",
"347 382 CURVE SMOOTH",
"169 382 LINE"
);
},
{
closed = 1;
nodes = (
"152 0 LINE",
"152 318 LINE",
"310 318 LINE SMOOTH",
"386 318 OFFCURVE",
"428 301 OFFCURVE",
"463 233 CURVE SMOOTH",
"586 0 LINE",
"648 0 LINE",
"517 246 LINE SMOOTH",
"483 308 OFFCURVE",
"445 334 OFFCURVE",
"381 334 CURVE",
"382 324 LINE",
"533 324 OFFCURVE",
"621 397 OFFCURVE",
"621 525 CURVE SMOOTH",
"621 659 OFFCURVE",
"534 728 OFFCURVE",
"383 728 CURVE SMOOTH",
"96 728 LINE",
"96 0 LINE"
);
},
{
closed = 1;
nodes = (
"152 679 LINE",
"381 679 LINE SMOOTH",
"505 679 OFFCURVE",
"564 629 OFFCURVE",
"564 526 CURVE SMOOTH",
"564 420 OFFCURVE",
"503 368 OFFCURVE",
"381 368 CURVE SMOOTH",
"152 368 LINE"
);
}
);
};
layerId = "9E718F8A-2CEA-4931-B05D-987794BD97DA";
paths = (
{
closed = 1;
nodes = (
"152 0 LINE",
"152 327 LINE",
"363 327 LINE SMOOTH",
"439 327 OFFCURVE",
"478 313 OFFCURVE",
"504 243 CURVE SMOOTH",
"594 0 LINE",
"652 0 LINE",
"559 255 LINE SMOOTH",
"535 320 OFFCURVE",
"498 347 OFFCURVE",
"444 347 CURVE",
"372 334 LINE",
"523 334 OFFCURVE",
"611 406 OFFCURVE",
"611 530 CURVE SMOOTH",
"611 659 OFFCURVE",
"524 728 OFFCURVE",
"373 728 CURVE SMOOTH",
"96 728 LINE",
"96 0 LINE"
);
},
{
closed = 1;
nodes = (
"152 679 LINE",
"371 679 LINE SMOOTH",
"495 679 OFFCURVE",
"554 629 OFFCURVE",
"554 531 CURVE SMOOTH",
"554 430 OFFCURVE",
"493 377 OFFCURVE",
"371 377 CURVE SMOOTH",
"152 377 LINE"
);
}
);
width = 702;
},
{
anchors = (
{
name = bottom;
position = "{366, 0}";
},
{
name = top;
position = "{365, 728}";
}
);
background = {
anchors = (
{
name = bottom;
position = "{366, 0}";
},
{
name = top;
position = "{365, 728}";
}
);
paths = (
{
closed = 1;
nodes = (
"95 0 LINE",
"95 734 LINE",
"321 734 LINE SMOOTH",
"448 734 OFFCURVE",
"574 708 OFFCURVE",
"574 539 CURVE SMOOTH",
"574 450 OFFCURVE",
"534 383 OFFCURVE",
"437 359 CURVE",
"500 340 OFFCURVE",
"526 275 OFFCURVE",
"553 208 CURVE SMOOTH",
"637 0 LINE",
"533 0 LINE",
"451 213 LINE SMOOTH",
"418 300 OFFCURVE",
"399 324 OFFCURVE",
"315 324 CURVE SMOOTH",
"191 324 LINE",
"191 0 LINE"
);
},
{
closed = 1;
nodes = (
"191 406 LINE",
"318 406 LINE SMOOTH",
"405 406 OFFCURVE",
"472 433 OFFCURVE",
"472 531 CURVE SMOOTH",
"472 628 OFFCURVE",
"425 652 OFFCURVE",
"325 652 CURVE SMOOTH",
"191 652 LINE"
);
},
{
closed = 1;
nodes = (
"236 0 LINE",
"236 281 LINE",
"311 281 LINE SMOOTH",
"351 281 OFFCURVE",
"380 268 OFFCURVE",
"400 232 CURVE SMOOTH",
"526 0 LINE",
"708 0 LINE",
"590 214 LINE SMOOTH",
"558 272 OFFCURVE",
"515 300 OFFCURVE",
"455 300 CURVE",
"411 287 LINE",
"573 287 OFFCURVE",
"668 373 OFFCURVE",
"668 508 CURVE SMOOTH",
"668 651 OFFCURVE",
"581 728 OFFCURVE",
"408 728 CURVE SMOOTH",
"71 728 LINE",
"71 0 LINE"
);
},
{
closed = 1;
nodes = (
"233 601 LINE",
"383 601 LINE SMOOTH",
"474 601 OFFCURVE",
"512 572 OFFCURVE",
"512 504 CURVE SMOOTH",
"512 437 OFFCURVE",
"474 407 OFFCURVE",
"383 407 CURVE SMOOTH",
"233 407 LINE"
);
}
);
};
layerId = "E1B555A7-F4E1-459C-9C1A-AE952106EEF9";
paths = (
{
closed = 1;
nodes = (
"236 0 LINE",
"236 291 LINE",
"332 291 LINE SMOOTH",
"372 291 OFFCURVE",
"406 280 OFFCURVE",
"420 243 CURVE SMOOTH",
"513 0 LINE",
"689 0 LINE",
"602 224 LINE SMOOTH",
"578 285 OFFCURVE",
"536 315 OFFCURVE",
"486 315 CURVE",
"401 298 LINE",
"563 298 OFFCURVE",
"658 383 OFFCURVE",
"658 513 CURVE SMOOTH",
"658 651 OFFCURVE",
"570 728 OFFCURVE",
"398 728 CURVE SMOOTH",
"71 728 LINE",
"71 0 LINE"
);
},
{
closed = 1;
nodes = (
"233 601 LINE",
"373 601 LINE SMOOTH",
"464 601 OFFCURVE",
"502 572 OFFCURVE",
"502 509 CURVE SMOOTH",
"502 447 OFFCURVE",
"464 417 OFFCURVE",
"373 417 CURVE SMOOTH",
"233 417 LINE"
);
}
);
width = 725;
}
);
leftKerningGroup = H;
leftMetricsKey = H;
rightKerningGroup = R;
unicode = 0052;
userData = {
anchors = (
);
b = {
};
com.typemytype.robofont.guides = (
);
com.typemytype.robofont.layerData = {
b = {
anchors = (
);
components = (
);
contours = (
{
points = (
{
segmentType = curve;
smooth = 1;
x = 267;
y = 0;
},
{
smooth = 0;
x = 311;
y = 0;
},
{
smooth = 0;
x = 356;
y = 27;
},
{
segmentType = curve;
smooth = 1;
x = 356;
y = 84;
},
{
segmentType = line;
smooth = 0;
x = 356;
y = 628;
},
{
segmentType = line;
smooth = 1;
x = 669;
y = 628;
},
{
smooth = 0;
x = 962;
y = 628;
},
{
smooth = 0;
x = 1182;
y = 722;
},
{
segmentType = curve;
smooth = 1;
x = 1182;
y = 1026;
},
{
smooth = 0;
x = 1182;
y = 1324;
},
{
smooth = 0;
x = 993;
y = 1426;
},
{
segmentType = curve;
smooth = 1;
x = 684;
y = 1426;
},
{
segmentType = line;
smooth = 1;
x = 268;
y = 1426;
},
{
smooth = 0;
x = 217;
y = 1426;
},
{
smooth = 0;
x = 178;
y = 1387;
},
{
segmentType = curve;
smooth = 1;
x = 178;
y = 1339;
},
{
segmentType = line;
smooth = 1;
x = 178;
y = 84;
},
{
smooth = 0;
x = 178;
y = 28;
},
{
smooth = 0;
x = 222;
y = 0;
}
);
},
{
points = (
{
segmentType = line;
smooth = 0;
x = 356;
y = 764;
},
{
segmentType = line;
smooth = 0;
x = 356;
y = 1285;
},
{
segmentType = line;
smooth = 1;
x = 684;
y = 1285;
},
{
smooth = 0;
x = 914;
y = 1285;
},
{
smooth = 0;
x = 1008;
y = 1210;
},
{
segmentType = curve;
smooth = 1;
x = 1008;
y = 1026;
},
{
smooth = 0;
x = 1008;
y = 838;
},
{
smooth = 0;
x = 901;
y = 764;
},
{
segmentType = curve;
smooth = 1;
x = 670;
y = 764;
}
);
}
);
lib = {
};
name = R;
unicodes = (
);
width = 1363;
};
};
components = (
);
contours = (
);
lib = {
};
name = R;
unicodes = (
);
width = 1408;
};
},
{
glyphname = S;
lastChange = "2016-09-21 08:56:17 +0000";
layers = (
{
anchors = (
{
name = bottom;
position = "{317, 0}";
},
{
name = top;
position = "{312, 728}";
}
);
background = {
anchors = (
{
name = bottom;
position = "{317, 0}";
},
{
name = top;
position = "{312, 728}";
}
);
paths = (
{
closed = 1;
nodes = (
"437 -10 OFFCURVE",
"521 67 OFFCURVE",
"525 183 CURVE SMOOTH",
"528 295 OFFCURVE",
"495 352 OFFCURVE",
"325 396 CURVE SMOOTH",
"251 414 LINE SMOOTH",
"148 441 OFFCURVE",
"119 474 OFFCURVE",
"119 561 CURVE SMOOTH",
"119 651 OFFCURVE",
"183 703 OFFCURVE",
"292 703 CURVE SMOOTH",
"399 703 OFFCURVE",
"451 660 OFFCURVE",
"467 645 CURVE",
"491 682 LINE",
"477 691 OFFCURVE",
"428 747 OFFCURVE",
"292 747 CURVE SMOOTH",
"150 747 OFFCURVE",
"65 677 OFFCURVE",
"65 561 CURVE SMOOTH",
"65 446 OFFCURVE",
"126 399 OFFCURVE",
"239 369 CURVE SMOOTH",
"314 349 LINE SMOOTH",
"444 315 OFFCURVE",
"477 280 OFFCURVE",
"473 182 CURVE SMOOTH",
"471 94 OFFCURVE",
"404 33 OFFCURVE",
"295 33 CURVE SMOOTH",
"179 33 OFFCURVE",
"121 88 OFFCURVE",
"97 108 CURVE",
"71 71 LINE",
"90 58 OFFCURVE",
"154 -10 OFFCURVE",
"295 -10 CURVE SMOOTH"
);
}
);
};
layerId = "9E718F8A-2CEA-4931-B05D-987794BD97DA";
paths = (
{
closed = 1;
nodes = (
"474 -8 OFFCURVE",
"574 72 OFFCURVE",
"574 191 CURVE SMOOTH",
"574 336 OFFCURVE",
"426 356 OFFCURVE",
"299 387 CURVE SMOOTH",
"204 410 OFFCURVE",
"121 440 OFFCURVE",
"121 532 CURVE SMOOTH",
"121 628 OFFCURVE",
"194 685 OFFCURVE",
"320 685 CURVE SMOOTH",
"406 685 OFFCURVE",
"473 658 OFFCURVE",
"542 595 CURVE",
"567 640 LINE",
"505 703 OFFCURVE",
"419 737 OFFCURVE",
"320 737 CURVE SMOOTH",
"163 737 OFFCURVE",
"64 655 OFFCURVE",
"64 532 CURVE SMOOTH",
"64 386 OFFCURVE",
"201 356 OFFCURVE",
"324 327 CURVE SMOOTH",
"426 304 OFFCURVE",
"518 280 OFFCURVE",
"518 192 CURVE SMOOTH",
"518 97 OFFCURVE",
"445 43 OFFCURVE",
"319 43 CURVE SMOOTH",
"216 43 OFFCURVE",
"150 67 OFFCURVE",
"76 133 CURVE",
"52 88 LINE",
"121 22 OFFCURVE",
"206 -8 OFFCURVE",
"319 -8 CURVE SMOOTH"
);
}
);
width = 624;
},
{
anchors = (
{
name = bottom;
position = "{336, 0}";
},
{
name = top;
position = "{341, 728}";
}
);
background = {
anchors = (
{
name = bottom;
position = "{336, 0}";
},
{
name = top;
position = "{341, 728}";
}
);
paths = (
{
closed = 1;
nodes = (
"304 -11 CURVE SMOOTH",
"175 -11 OFFCURVE",
"84 51 OFFCURVE",
"64 71 CURVE",
"106 142 LINE",
"132 122 OFFCURVE",
"211 71 OFFCURVE",
"302 71 CURVE SMOOTH",
"401 71 OFFCURVE",
"453 114 OFFCURVE",
"453 189 CURVE SMOOTH",
"453 268 OFFCURVE",
"424 298 OFFCURVE",
"270 341 CURVE SMOOTH",
"139 379 OFFCURVE",
"62 433 OFFCURVE",
"62 554 CURVE SMOOTH",
"62 684 OFFCURVE",
"178 748 OFFCURVE",
"312 748 CURVE SMOOTH",
"448 748 OFFCURVE",
"510 695 OFFCURVE",
"535 671 CURVE",
"488 605 LINE",
"463 627 OFFCURVE",
"405 665 OFFCURVE",
"324 665 CURVE SMOOTH",
"237 665 OFFCURVE",
"164 632 OFFCURVE",
"164 557 CURVE SMOOTH",
"164 477 OFFCURVE",
"201 457 OFFCURVE",
"334 416 CURVE SMOOTH",
"505 366 OFFCURVE",
"554 305 OFFCURVE",
"554 190 CURVE SMOOTH",
"554 53 OFFCURVE",
"440 -11 OFFCURVE"
);
}
);
};
layerId = "E1B555A7-F4E1-459C-9C1A-AE952106EEF9";
paths = (
{
closed = 1;
nodes = (
"521 -9 OFFCURVE",
"632 76 OFFCURVE",
"632 214 CURVE SMOOTH",
"632 327 OFFCURVE",
"558 387 OFFCURVE",
"369 429 CURVE SMOOTH",
"251 455 OFFCURVE",
"218 475 OFFCURVE",
"218 521 CURVE SMOOTH",
"218 574 OFFCURVE",
"269 608 OFFCURVE",
"349 608 CURVE SMOOTH",
"422 608 OFFCURVE",
"494 585 OFFCURVE",
"560 536 CURVE",
"613 655 LINE",
"556 706 OFFCURVE",
"451 738 OFFCURVE",
"348 738 CURVE SMOOTH",
"171 738 OFFCURVE",
"55 640 OFFCURVE",
"55 508 CURVE SMOOTH",
"55 390 OFFCURVE",
"125 331 OFFCURVE",
"318 290 CURVE SMOOTH",
"431 267 OFFCURVE",
"469 245 OFFCURVE",
"469 199 CURVE SMOOTH",
"469 150 OFFCURVE",
"420 120 OFFCURVE",
"330 120 CURVE SMOOTH",
"245 120 OFFCURVE",
"165 144 OFFCURVE",
"94 192 CURVE",
"41 73 LINE",
"108 22 OFFCURVE",
"219 -9 OFFCURVE",
"327 -9 CURVE SMOOTH"
);
}
);
width = 675;
}
);
leftKerningGroup = S;
rightKerningGroup = S;
unicode = 0053;
userData = {
anchors = (
);
b = {
};
com.typemytype.robofont.layerData = {
b = {
anchors = (
);
components = (
);
contours = (
);
lib = {
};
name = S;
unicodes = (
);
width = 1274;
};
};
components = (
);
contours = (
);
lib = {
};
name = S;
unicodes = (
);
width = 1317;
};
},
{
glyphname = Germandbls;
lastChange = "2016-09-21 08:56:17 +0000";
layers = (
{
background = {
paths = (
{
closed = 1;
nodes = (
"140 -6 OFFCURVE",
"152 5 OFFCURVE",
"152 24 CURVE SMOOTH",
"152 470 LINE SMOOTH",
"152 617 OFFCURVE",
"217 684 OFFCURVE",
"357 684 CURVE SMOOTH",
"465 684 OFFCURVE",
"529 632 OFFCURVE",
"529 543 CURVE SMOOTH",
"529 449 OFFCURVE",
"465 396 OFFCURVE",
"354 396 CURVE SMOOTH",
"273 396 LINE SMOOTH",
"234 396 OFFCURVE",
"234 344 OFFCURVE",
"273 344 CURVE SMOOTH",
"390 344 LINE SMOOTH",
"512 344 OFFCURVE",
"576 294 OFFCURVE",
"576 199 CURVE SMOOTH",
"576 101 OFFCURVE",
"513 44 OFFCURVE",
"408 44 CURVE SMOOTH",
"361 44 OFFCURVE",
"319 57 OFFCURVE",
"273 90 CURVE SMOOTH",
"259 99 OFFCURVE",
"249 106 OFFCURVE",
"241 106 CURVE SMOOTH",
"229 106 OFFCURVE",
"220 96 OFFCURVE",
"220 84 CURVE SMOOTH",
"220 69 OFFCURVE",
"227 60 OFFCURVE",
"255 39 CURVE SMOOTH",
"294 9 OFFCURVE",
"352 -5 OFFCURVE",
"411 -5 CURVE SMOOTH",
"544 -5 OFFCURVE",
"633 75 OFFCURVE",
"633 199 CURVE SMOOTH",
"633 300 OFFCURVE",
"572 366 OFFCURVE",
"465 382 CURVE",
"456 371 LINE",
"536 392 OFFCURVE",
"586 455 OFFCURVE",
"586 543 CURVE SMOOTH",
"586 662 OFFCURVE",
"498 735 OFFCURVE",
"357 735 CURVE SMOOTH",
"183 735 OFFCURVE",
"96 650 OFFCURVE",
"96 477 CURVE SMOOTH",
"96 24 LINE SMOOTH",
"96 5 OFFCURVE",
"107 -6 OFFCURVE",
"124 -6 CURVE SMOOTH"
);
}
);
};
layerId = "9E718F8A-2CEA-4931-B05D-987794BD97DA";
paths = (
{
closed = 1;
nodes = (
"152 0 LINE",
"152 470 LINE SMOOTH",
"152 617 OFFCURVE",
"217 684 OFFCURVE",
"357 684 CURVE SMOOTH",
"465 684 OFFCURVE",
"529 631 OFFCURVE",
"529 543 CURVE SMOOTH",
"529 448 OFFCURVE",
"465 395 OFFCURVE",
"354 395 CURVE SMOOTH",
"249 395 LINE",
"249 345 LINE",
"390 345 LINE SMOOTH",
"511 345 OFFCURVE",
"576 295 OFFCURVE",
"576 199 CURVE SMOOTH",
"576 104 OFFCURVE",
"513 46 OFFCURVE",
"408 44 CURVE SMOOTH",
"353 43 OFFCURVE",
"305 62 OFFCURVE",
"248 108 CURVE",
"224 61 LINE",
"274 17 OFFCURVE",
"342 -7 OFFCURVE",
"411 -7 CURVE SMOOTH",
"544 -7 OFFCURVE",
"633 75 OFFCURVE",
"633 198 CURVE SMOOTH",
"633 300 OFFCURVE",
"572 366 OFFCURVE",
"462 382 CURVE",
"452 371 LINE",
"537 390 OFFCURVE",
"586 455 OFFCURVE",
"586 544 CURVE SMOOTH",
"586 662 OFFCURVE",
"498 735 OFFCURVE",
"357 735 CURVE SMOOTH",
"183 735 OFFCURVE",
"96 650 OFFCURVE",
"96 477 CURVE SMOOTH",
"96 0 LINE"
);
}
);
width = 702;
},
{
background = {
paths = (
{
closed = 1;
nodes = (
"202 -7 OFFCURVE",
"234 26 OFFCURVE",
"234 74 CURVE SMOOTH",
"234 459 LINE SMOOTH",
"234 555 OFFCURVE",
"285 606 OFFCURVE",
"377 606 CURVE SMOOTH",
"445 606 OFFCURVE",
"489 572 OFFCURVE",
"489 518 CURVE SMOOTH",
"489 463 OFFCURVE",
"455 435 OFFCURVE",
"387 435 CURVE SMOOTH",
"353 435 LINE SMOOTH",
"265 435 OFFCURVE",
"265 302 OFFCURVE",
"353 302 CURVE SMOOTH",
"406 302 LINE SMOOTH",
"504 302 OFFCURVE",
"541 276 OFFCURVE",
"541 209 CURVE SMOOTH",
"541 152 OFFCURVE",
"508 117 OFFCURVE",
"456 117 CURVE SMOOTH",
"418 117 OFFCURVE",
"393 133 OFFCURVE",
"368 145 CURVE SMOOTH",
"346 155 OFFCURVE",
"335 158 OFFCURVE",
"321 158 CURVE SMOOTH",
"293 158 OFFCURVE",
"274 132 OFFCURVE",
"274 95 CURVE SMOOTH",
"274 70 OFFCURVE",
"284 51 OFFCURVE",
"306 37 CURVE SMOOTH",
"350 7 OFFCURVE",
"402 -6 OFFCURVE",
"467 -6 CURVE SMOOTH",
"600 -6 OFFCURVE",
"698 83 OFFCURVE",
"698 204 CURVE SMOOTH",
"698 304 OFFCURVE",
"631 372 OFFCURVE",
"521 384 CURVE",
"521 370 LINE",
"596 393 OFFCURVE",
"644 453 OFFCURVE",
"644 531 CURVE SMOOTH",
"644 656 OFFCURVE",
"541 735 OFFCURVE",
"381 735 CURVE SMOOTH",
"185 735 OFFCURVE",
"71 633 OFFCURVE",
"71 456 CURVE SMOOTH",
"71 74 LINE SMOOTH",
"71 25 OFFCURVE",
"103 -7 OFFCURVE",
"153 -7 CURVE SMOOTH"
);
}
);
};
layerId = "E1B555A7-F4E1-459C-9C1A-AE952106EEF9";
paths = (
{
closed = 1;
nodes = (
"234 0 LINE",
"234 459 LINE SMOOTH",
"234 555 OFFCURVE",
"285 606 OFFCURVE",
"377 606 CURVE SMOOTH",
"445 606 OFFCURVE",
"489 572 OFFCURVE",
"489 517 CURVE SMOOTH",
"489 463 OFFCURVE",
"455 433 OFFCURVE",
"387 433 CURVE SMOOTH",
"305 433 LINE",
"305 304 LINE",
"406 304 LINE SMOOTH",
"504 304 OFFCURVE",
"541 276 OFFCURVE",
"541 210 CURVE SMOOTH",
"541 152 OFFCURVE",
"509 117 OFFCURVE",
"458 117 CURVE SMOOTH",
"416 117 OFFCURVE",
"371 133 OFFCURVE",
"316 168 CURVE",
"273 52 LINE",
"327 11 OFFCURVE",
"387 -6 OFFCURVE",
"467 -6 CURVE SMOOTH",
"600 -6 OFFCURVE",
"698 83 OFFCURVE",
"698 204 CURVE SMOOTH",
"698 304 OFFCURVE",
"631 372 OFFCURVE",
"521 384 CURVE",
"521 370 LINE",
"596 393 OFFCURVE",
"644 453 OFFCURVE",
"644 531 CURVE SMOOTH",
"644 656 OFFCURVE",
"541 735 OFFCURVE",
"381 735 CURVE SMOOTH",
"185 735 OFFCURVE",
"71 633 OFFCURVE",
"71 456 CURVE SMOOTH",
"71 0 LINE"
);
}
);
width = 735;
}
);
leftKerningGroup = H;
leftMetricsKey = B;
rightKerningGroup = Germandbls;
rightMetricsKey = B;
unicode = 1E9E;
},
{
glyphname = Schwa;
lastChange = "2016-09-21 08:56:23 +0000";
layers = (
{
anchors = (
{
name = bottom;
position = "{378, 0}";
},
{
name = top;
position = "{378, 728}";
}
);
background = {
anchors = (
{
name = bottom;
position = "{378, 0}";
},
{
name = top;
position = "{378, 728}";
}
);
paths = (
{
closed = 1;
nodes = (
"569 -8 OFFCURVE",
"689 134 OFFCURVE",
"689 365 CURVE SMOOTH",
"689 596 OFFCURVE",
"563 737 OFFCURVE",
"356 737 CURVE SMOOTH",
"260 737 OFFCURVE",
"173 706 OFFCURVE",
"107 646 CURVE SMOOTH",
"99 638 OFFCURVE",
"95 629 OFFCURVE",
"95 618 CURVE SMOOTH",
"95 604 OFFCURVE",
"103 593 OFFCURVE",
"114 593 CURVE SMOOTH",
"120 593 OFFCURVE",
"125 594 OFFCURVE",
"135 602 CURVE SMOOTH",
"220 667 OFFCURVE",
"272 686 OFFCURVE",
"357 686 CURVE SMOOTH",
"531 686 OFFCURVE",
"631 569 OFFCURVE",
"631 365 CURVE SMOOTH",
"631 161 OFFCURVE",
"538 43 OFFCURVE",
"378 43 CURVE SMOOTH",
"219 43 OFFCURVE",
"125 162 OFFCURVE",
"125 365 CURVE",
"109 344 LINE",
"663 344 LINE",
"663 396 LINE",
"106 396 LINE SMOOTH",
"82 396 OFFCURVE",
"67 382 OFFCURVE",
"67 356 CURVE SMOOTH",
"67 133 OFFCURVE",
"188 -8 OFFCURVE",
"378 -8 CURVE SMOOTH"
);
}
);
};
layerId = "9E718F8A-2CEA-4931-B05D-987794BD97DA";
paths = (
{
closed = 1;
nodes = (
"569 -8 OFFCURVE",
"689 134 OFFCURVE",
"689 365 CURVE SMOOTH",
"689 596 OFFCURVE",
"562 737 OFFCURVE",
"355 737 CURVE SMOOTH",
"254 737 OFFCURVE",
"158 701 OFFCURVE",
"97 640 CURVE",
"122 595 LINE",
"189 657 OFFCURVE",
"265 686 OFFCURVE",
"356 686 CURVE SMOOTH",
"531 686 OFFCURVE",
"631 569 OFFCURVE",
"631 365 CURVE SMOOTH",
"631 161 OFFCURVE",
"538 43 OFFCURVE",
"378 43 CURVE SMOOTH",
"219 43 OFFCURVE",
"125 162 OFFCURVE",
"125 365 CURVE",
"109 344 LINE",
"663 344 LINE",
"663 396 LINE",
"67 396 LINE",
"67 361 LINE SMOOTH",
"67 133 OFFCURVE",
"187 -8 OFFCURVE",
"378 -8 CURVE SMOOTH"
);
}
);
width = 756;
},
{
anchors = (
{
name = bottom;
position = "{398, 0}";
},
{
name = top;
position = "{397, 728}";
}
);
background = {
anchors = (
{
name = bottom;
position = "{398, 0}";
},
{
name = top;
position = "{397, 728}";
}
);
paths = (
{
closed = 1;
nodes = (
"608 -9 OFFCURVE",
"744 146 OFFCURVE",
"744 365 CURVE SMOOTH",
"744 593 OFFCURVE",
"599 738 OFFCURVE",
"373 738 CURVE SMOOTH",
"274 738 OFFCURVE",
"182 712 OFFCURVE",
"123 664 CURVE SMOOTH",
"102 648 OFFCURVE",
"94 632 OFFCURVE",
"94 606 CURVE SMOOTH",
"94 569 OFFCURVE",
"118 539 OFFCURVE",
"148 539 CURVE SMOOTH",
"167 539 OFFCURVE",
"180 546 OFFCURVE",
"198 557 CURVE SMOOTH",
"255 589 OFFCURVE",
"311 605 OFFCURVE",
"363 605 CURVE SMOOTH",
"504 605 OFFCURVE",
"578 524 OFFCURVE",
"578 365 CURVE SMOOTH",
"578 202 OFFCURVE",
"519 120 OFFCURVE",
"401 120 CURVE SMOOTH",
"281 120 OFFCURVE",
"212 202 OFFCURVE",
"217 365 CURVE",
"175 305 LINE",
"641 305 LINE",
"641 432 LINE",
"117 432 LINE SMOOTH",
"75 432 OFFCURVE",
"51 406 OFFCURVE",
"51 362 CURVE SMOOTH",
"51 126 OFFCURVE",
"186 -9 OFFCURVE",
"401 -9 CURVE SMOOTH"
);
}
);
};
layerId = "E1B555A7-F4E1-459C-9C1A-AE952106EEF9";
paths = (
{
closed = 1;
nodes = (
"608 -9 OFFCURVE",
"744 146 OFFCURVE",
"744 365 CURVE SMOOTH",
"744 593 OFFCURVE",
"599 738 OFFCURVE",
"373 738 CURVE SMOOTH",
"274 738 OFFCURVE",
"166 706 OFFCURVE",
"102 655 CURVE",
"155 536 LINE",
"218 583 OFFCURVE",
"290 605 OFFCURVE",
"367 605 CURVE SMOOTH",
"504 605 OFFCURVE",
"578 524 OFFCURVE",
"578 365 CURVE SMOOTH",
"578 202 OFFCURVE",
"519 120 OFFCURVE",
"403 120 CURVE SMOOTH",
"281 120 OFFCURVE",
"212 202 OFFCURVE",
"217 365 CURVE",
"175 305 LINE",
"641 305 LINE",
"641 432 LINE",
"51 432 LINE",
"51 368 LINE SMOOTH",
"51 126 OFFCURVE",
"186 -9 OFFCURVE",
"408 -9 CURVE SMOOTH"
);
}
);
width = 795;
}
);
leftKerningGroup = O;
leftMetricsKey = O;
rightKerningGroup = O;
rightMetricsKey = O;
unicode = 018F;
},
{
glyphname = T;
lastChange = "2016-09-21 08:56:17 +0000";
layers = (
{
anchors = (
{
name = bottom;
position = "{304, 0}";
},
{
name = center;
position = "{304, 365}";
},
{
name = top;
position = "{304, 728}";
}
);
background = {
anchors = (
{
name = bottom;
position = "{304, 0}";
},
{
name = center;
position = "{304, 365}";
},
{
name = top;
position = "{304, 728}";
}
);
paths = (
{
closed = 1;
nodes = (
"304 0 LINE",
"304 691 LINE",
"549 691 LINE",
"549 734 LINE",
"4 734 LINE",
"4 691 LINE",
"249 691 LINE",
"249 0 LINE"
);
}
);
};
layerId = "9E718F8A-2CEA-4931-B05D-987794BD97DA";
paths = (
{
closed = 1;
nodes = (
"332 0 LINE",
"332 679 LINE",
"595 679 LINE",
"595 728 LINE",
"12 728 LINE",
"12 679 LINE",
"276 679 LINE",
"276 0 LINE"
);
}
);
width = 607;
},
{
anchors = (
{
name = bottom;
position = "{322, 0}";
},
{
name = center;
position = "{322, 365}";
},
{
name = top;
position = "{322, 728}";
}
);
background = {
anchors = (
{
name = bottom;
position = "{322, 0}";
},
{
name = center;
position = "{322, 365}";
},
{
name = top;
position = "{322, 728}";
}
);
paths = (
{
closed = 1;
nodes = (
"240 0 LINE",
"240 652 LINE",
"5 652 LINE",
"5 734 LINE",
"572 734 LINE",
"572 652 LINE",
"336 652 LINE",
"336 0 LINE"
);
}
);
};
layerId = "E1B555A7-F4E1-459C-9C1A-AE952106EEF9";
paths = (
{
closed = 1;
nodes = (
"406 0 LINE",
"406 593 LINE",
"632 593 LINE",
"632 728 LINE",
"12 728 LINE",
"12 593 LINE",
"239 593 LINE",
"239 0 LINE"
);
}
);
width = 645;
}
);
leftKerningGroup = T;
rightKerningGroup = T;
unicode = 0054;
userData = {
anchors = (
);
b = {
};
com.typemytype.robofont.layerData = {
b = {
anchors = (
);
components = (
);
contours = (
{
points = (
{
segmentType = curve;
smooth = 1;
x = 581;
y = 0;
},
{
segmentType = line;
smooth = 1;
x = 1350;
y = 0;
},
{
smooth = 0;
x = 1399;
y = 0;
},
{
smooth = 0;
x = 1423;
y = 34;
},
{
segmentType = curve;
smooth = 1;
x = 1423;
y = 71;
},
{
smooth = 0;
x = 1423;
y = 107;
},
{
smooth = 0;
x = 1399;
y = 141;
},
{
segmentType = curve;
smooth = 1;
x = 1350;
y = 141;
},
{
segmentType = line;
smooth = 0;
x = 671;
y = 141;
},
{
segmentType = line;
smooth = 0;
x = 671;
y = 665;
},
{
segmentType = line;
smooth = 1;
x = 1290;
y = 665;
},
{
smooth = 0;
x = 1339;
y = 665;
},
{
smooth = 0;
x = 1364;
y = 698;
},
{
segmentType = curve;
smooth = 1;
x = 1364;
y = 734;
},
{
smooth = 0;
x = 1364;
y = 770;
},
{
smooth = 0;
x = 1341;
y = 803;
},
{
segmentType = curve;
smooth = 1;
x = 1290;
y = 803;
},
{
segmentType = line;
smooth = 0;
x = 671;
y = 803;
},
{
segmentType = line;
smooth = 0;
x = 671;
y = 1285;
},
{
segmentType = line;
smooth = 1;
x = 1322;
y = 1285;
},
{
smooth = 0;
x = 1371;
y = 1285;
},
{
smooth = 0;
x = 1395;
y = 1319;
},
{
segmentType = curve;
smooth = 1;
x = 1395;
y = 1356;
},
{
smooth = 0;
x = 1395;
y = 1392;
},
{
smooth = 0;
x = 1371;
y = 1426;
},
{
segmentType = curve;
smooth = 1;
x = 1322;
y = 1426;
},
{
segmentType = line;
smooth = 1;
x = 576;
y = 1426;
},
{
smooth = 0;
x = 528;
y = 1426;
},
{
smooth = 0;
x = 493;
y = 1383;
},
{
segmentType = curve;
smooth = 1;
x = 493;
y = 1340;
},
{
segmentType = line;
smooth = 1;
x = 493;
y = 86;
},
{
smooth = 0;
x = 493;
y = 41;
},
{
smooth = 0;
x = 537;
y = 0;
}
);
}
);
lib = {
};
name = T;
unicodes = (
);
width = 1158;
};
};
components = (
);
contours = (
);
lib = {
};
name = T;
unicodes = (
);
width = 1199;
};
},
{
glyphname = Tbar;
lastChange = "2016-09-21 08:56:17 +0000";
layers = (
{
background = {
components = (
{
name = T;
},
{
name = macron;
transform = "{1, 0, 0, 1, 108, -245}";
}
);
};
layerId = "9E718F8A-2CEA-4931-B05D-987794BD97DA";
paths = (
{
closed = 1;
nodes = (
"481 346 LINE",
"481 394 LINE",
"126 394 LINE",
"126 346 LINE"
);
},
{
closed = 1;
nodes = (
"332 0 LINE",
"332 679 LINE",
"595 679 LINE",
"595 728 LINE",
"12 728 LINE",
"12 679 LINE",
"276 679 LINE",
"276 0 LINE"
);
}
);
width = 607;
},
{
background = {
components = (
{
name = T;
}
);
paths = (
{
closed = 1;
nodes = (
"83 310 LINE",
"83 384 LINE",
"487 384 LINE",
"487 310 LINE"
);
}
);
};
layerId = "E1B555A7-F4E1-459C-9C1A-AE952106EEF9";
paths = (
{
closed = 1;
nodes = (
"545 305 LINE",
"545 431 LINE",
"99 431 LINE",
"99 305 LINE"
);
},
{
closed = 1;
nodes = (
"406 0 LINE",
"406 593 LINE",
"632 593 LINE",
"632 728 LINE",
"12 728 LINE",
"12 593 LINE",
"239 593 LINE",
"239 0 LINE"
);
}
);
width = 645;
}
);
leftKerningGroup = T;
leftMetricsKey = T;
rightKerningGroup = T;
rightMetricsKey = T;
unicode = 0166;
userData = {
com.typemytype.robofont.layerData = {
b = {
anchors = (
);
components = (
);
contours = (
);
lib = {
};
name = Tbar;
unicodes = (
);
width = 1158;
};
};
};
},
{
glyphname = U;
lastChange = "2016-09-21 08:56:17 +0000";
layers = (
{
anchors = (
{
name = bottom;
position = "{371, 0}";
},
{
name = ogonek;
position = "{487, 10}";
},
{
name = top;
position = "{371, 728}";
},
{
name = topright;
position = "{623, 728}";
}
);
background = {
anchors = (
{
name = bottom;
position = "{371, 0}";
},
{
name = ogonek;
position = "{487, 10}";
},
{
name = top;
position = "{371, 728}";
},
{
name = topright;
position = "{623, 728}";
}
);
paths = (
{
closed = 1;
nodes = (
"552 -10 OFFCURVE",
"648 83 OFFCURVE",
"650 259 CURVE SMOOTH",
"650 734 LINE",
"595 734 LINE",
"595 255 LINE SMOOTH",
"595 109 OFFCURVE",
"517 33 OFFCURVE",
"369 33 CURVE SMOOTH",
"221 33 OFFCURVE",
"144 109 OFFCURVE",
"144 255 CURVE SMOOTH",
"144 734 LINE",
"89 734 LINE",
"89 259 LINE SMOOTH",
"89 83 OFFCURVE",
"186 -10 OFFCURVE",
"369 -10 CURVE SMOOTH"
);
}
);
};
layerId = "9E718F8A-2CEA-4931-B05D-987794BD97DA";
paths = (
{
closed = 1;
nodes = (
"555 -8 OFFCURVE",
"651 90 OFFCURVE",
"651 279 CURVE SMOOTH",
"651 728 LINE",
"595 728 LINE",
"595 272 LINE SMOOTH",
"595 120 OFFCURVE",
"519 43 OFFCURVE",
"371 43 CURVE SMOOTH",
"222 43 OFFCURVE",
"147 120 OFFCURVE",
"147 272 CURVE SMOOTH",
"147 728 LINE",
"91 728 LINE",
"91 279 LINE SMOOTH",
"91 90 OFFCURVE",
"187 -8 OFFCURVE",
"371 -8 CURVE SMOOTH"
);
}
);
width = 742;
},
{
anchors = (
{
name = bottom;
position = "{382, 0}";
},
{
name = ogonek;
position = "{508, 10}";
},
{
name = top;
position = "{382, 728}";
},
{
name = topright;
position = "{616, 728}";
}
);
background = {
anchors = (
{
name = bottom;
position = "{382, 0}";
},
{
name = ogonek;
position = "{508, 10}";
},
{
name = top;
position = "{382, 728}";
},
{
name = topright;
position = "{616, 728}";
}
);
paths = (
{
closed = 1;
nodes = (
"374 -11 CURVE SMOOTH",
"156 -11 OFFCURVE",
"86 114 OFFCURVE",
"86 281 CURVE SMOOTH",
"86 734 LINE",
"183 734 LINE",
"183 282 LINE SMOOTH",
"183 140 OFFCURVE",
"242 71 OFFCURVE",
"377 71 CURVE SMOOTH",
"504 71 OFFCURVE",
"571 138 OFFCURVE",
"571 278 CURVE SMOOTH",
"571 734 LINE",
"668 734 LINE",
"668 283 LINE",
"667 105 OFFCURVE",
"581 -11 OFFCURVE"
);
}
);
};
layerId = "E1B555A7-F4E1-459C-9C1A-AE952106EEF9";
paths = (
{
closed = 1;
nodes = (
"587 -9 OFFCURVE",
"697 100 OFFCURVE",
"697 302 CURVE SMOOTH",
"697 728 LINE",
"534 728 LINE",
"534 294 LINE SMOOTH",
"534 182 OFFCURVE",
"480 120 OFFCURVE",
"382 120 CURVE SMOOTH",
"283 120 OFFCURVE",
"230 181 OFFCURVE",
"230 294 CURVE SMOOTH",
"230 728 LINE",
"67 728 LINE",
"67 302 LINE SMOOTH",
"67 98 OFFCURVE",
"176 -9 OFFCURVE",
"382 -9 CURVE SMOOTH"
);
}
);
width = 764;
}
);
leftKerningGroup = U;
rightKerningGroup = U;
unicode = 0055;
userData = {
anchors = (
);
b = {
};
com.typemytype.robofont.layerData = {
b = {
anchors = (
);
components = (
);
contours = (
);
lib = {
};
name = U;
unicodes = (
);
width = 1490;
};
};
components = (
);
contours = (
);
lib = {
};
name = U;
unicodes = (
);
width = 1513;
};
},
{
glyphname = Uhorn;
lastChange = "2016-09-21 08:56:17 +0000";
layers = (
{
anchors = (
{
name = bottom;
position = "{371, 0}";
},
{
name = top;
position = "{371, 728}";
}
);
background = {
anchors = (
{
name = bottom;
position = "{371, 0}";
},
{
name = top;
position = "{371, 728}";
}
);
paths = (
{
closed = 1;
nodes = (
"555 -8 OFFCURVE",
"651 90 OFFCURVE",
"651 279 CURVE SMOOTH",
"651 705 LINE",
"641 690 LINE",
"721 690 OFFCURVE",
"774 746 OFFCURVE",
"774 829 CURVE SMOOTH",
"774 852 OFFCURVE",
"765 863 OFFCURVE",
"748 863 CURVE SMOOTH",
"731 863 OFFCURVE",
"722 853 OFFCURVE",
"721 835 CURVE SMOOTH",
"717 760 OFFCURVE",
"691 733 OFFCURVE",
"623 733 CURVE SMOOTH",
"607 733 OFFCURVE",
"595 721 OFFCURVE",
"595 703 CURVE SMOOTH",
"595 272 LINE SMOOTH",
"595 120 OFFCURVE",
"519 43 OFFCURVE",
"371 43 CURVE SMOOTH",
"222 43 OFFCURVE",
"147 120 OFFCURVE",
"147 272 CURVE SMOOTH",
"147 703 LINE SMOOTH",
"147 722 OFFCURVE",
"135 733 OFFCURVE",
"119 733 CURVE SMOOTH",
"102 733 OFFCURVE",
"91 722 OFFCURVE",
"91 703 CURVE SMOOTH",
"91 279 LINE SMOOTH",
"91 90 OFFCURVE",
"187 -8 OFFCURVE",
"371 -8 CURVE SMOOTH"
);
}
);
};
layerId = "9E718F8A-2CEA-4931-B05D-987794BD97DA";
paths = (
{
closed = 1;
nodes = (
"722 845 LINE SMOOTH",
"722 762 OFFCURVE",
"690 729 OFFCURVE",
"612 728 CURVE SMOOTH",
"595 728 LINE",
"595 272 LINE SMOOTH",
"595 120 OFFCURVE",
"519 43 OFFCURVE",
"371 43 CURVE SMOOTH",
"222 43 OFFCURVE",
"147 120 OFFCURVE",
"147 272 CURVE SMOOTH",
"147 728 LINE",
"91 728 LINE",
"91 279 LINE SMOOTH",
"91 90 OFFCURVE",
"187 -8 OFFCURVE",
"371 -8 CURVE SMOOTH",
"555 -8 OFFCURVE",
"651 90 OFFCURVE",
"651 279 CURVE SMOOTH",
"651 714 LINE",
"614 685 LINE",
"716 686 OFFCURVE",
"774 740 OFFCURVE",
"774 836 CURVE SMOOTH",
"774 858 LINE",
"722 858 LINE"
);
}
);
width = 742;
},
{
anchors = (
{
name = bottom;
position = "{382, 0}";
},
{
name = top;
position = "{382, 728}";
}
);
background = {
anchors = (
{
name = bottom;
position = "{382, 0}";
},
{
name = top;
position = "{382, 728}";
}
);
paths = (
{
closed = 1;
nodes = (
"587 -9 OFFCURVE",
"697 100 OFFCURVE",
"697 302 CURVE SMOOTH",
"697 696 LINE",
"663 652 LINE",
"751 661 OFFCURVE",
"813 723 OFFCURVE",
"813 802 CURVE SMOOTH",
"813 849 OFFCURVE",
"793 870 OFFCURVE",
"749 870 CURVE SMOOTH",
"700 870 OFFCURVE",
"676 848 OFFCURVE",
"669 797 CURVE SMOOTH",
"664 754 OFFCURVE",
"647 735 OFFCURVE",
"611 734 CURVE SMOOTH",
"564 732 OFFCURVE",
"534 699 OFFCURVE",
"534 652 CURVE SMOOTH",
"534 294 LINE SMOOTH",
"534 182 OFFCURVE",
"480 120 OFFCURVE",
"382 120 CURVE SMOOTH",
"283 120 OFFCURVE",
"230 181 OFFCURVE",
"230 294 CURVE SMOOTH",
"230 652 LINE SMOOTH",
"230 701 OFFCURVE",
"198 733 OFFCURVE",
"149 733 CURVE SMOOTH",
"99 733 OFFCURVE",
"67 701 OFFCURVE",
"67 652 CURVE SMOOTH",
"67 302 LINE SMOOTH",
"67 98 OFFCURVE",
"176 -9 OFFCURVE",
"382 -9 CURVE SMOOTH"
);
}
);
};
layerId = "E1B555A7-F4E1-459C-9C1A-AE952106EEF9";
paths = (
{
closed = 1;
nodes = (
"675 833 LINE SMOOTH",
"675 755 OFFCURVE",
"651 728 OFFCURVE",
"582 728 CURVE SMOOTH",
"534 728 LINE",
"534 294 LINE SMOOTH",
"534 182 OFFCURVE",
"480 120 OFFCURVE",
"382 120 CURVE SMOOTH",
"283 120 OFFCURVE",
"230 181 OFFCURVE",
"230 294 CURVE SMOOTH",
"230 728 LINE",
"67 728 LINE",
"67 302 LINE SMOOTH",
"67 98 OFFCURVE",
"176 -9 OFFCURVE",
"382 -9 CURVE SMOOTH",
"587 -9 OFFCURVE",
"697 100 OFFCURVE",
"697 302 CURVE SMOOTH",
"697 696 LINE",
"664 652 LINE",
"753 657 OFFCURVE",
"813 722 OFFCURVE",
"813 813 CURVE SMOOTH",
"813 853 LINE",
"675 853 LINE"
);
}
);
width = 764;
}
);
leftKerningGroup = U;
leftMetricsKey = U;
widthMetricsKey = U;
rightKerningGroup = Uhorn;
unicode = 01AF;
},
{
glyphname = Uogonek;
lastChange = "2016-09-21 08:56:17 +0000";
layers = (
{
background = {
components = (
{
name = U;
},
{
name = ogonek;
transform = "{1, 0, 0, 1, 244, 0}";
}
);
};
layerId = "9E718F8A-2CEA-4931-B05D-987794BD97DA";
paths = (
{
closed = 1;
nodes = (
"595 272 LINE SMOOTH",
"595 120 OFFCURVE",
"519 43 OFFCURVE",
"371 43 CURVE SMOOTH",
"222 43 OFFCURVE",
"147 120 OFFCURVE",
"147 272 CURVE SMOOTH",
"147 728 LINE",
"91 728 LINE",
"91 279 LINE SMOOTH",
"91 90 OFFCURVE",
"187 -8 OFFCURVE",
"371 -8 CURVE SMOOTH",
"426 -8 LINE",
"413 11 LINE",
"365 -9 OFFCURVE",
"340 -43 OFFCURVE",
"340 -91 CURVE SMOOTH",
"340 -154 OFFCURVE",
"387 -197 OFFCURVE",
"457 -197 CURVE SMOOTH",
"489 -197 OFFCURVE",
"518 -189 OFFCURVE",
"539 -174 CURVE",
"523 -134 LINE",
"501 -146 OFFCURVE",
"479 -153 OFFCURVE",
"462 -153 CURVE SMOOTH",
"418 -153 OFFCURVE",
"392 -127 OFFCURVE",
"392 -85 CURVE SMOOTH",
"392 -41 OFFCURVE",
"418 -13 OFFCURVE",
"481 6 CURVE SMOOTH",
"593 41 OFFCURVE",
"651 132 OFFCURVE",
"651 279 CURVE SMOOTH",
"651 728 LINE",
"595 728 LINE"
);
}
);
width = 742;
},
{
background = {
components = (
{
name = U;
},
{
name = ogonek;
transform = "{1, 0, 0, 1, 265, 0}";
}
);
};
layerId = "E1B555A7-F4E1-459C-9C1A-AE952106EEF9";
paths = (
{
closed = 1;
nodes = (
"534 294 LINE SMOOTH",
"534 182 OFFCURVE",
"480 120 OFFCURVE",
"382 120 CURVE SMOOTH",
"283 120 OFFCURVE",
"230 181 OFFCURVE",
"230 294 CURVE SMOOTH",
"230 728 LINE",
"67 728 LINE",
"67 302 LINE SMOOTH",
"67 98 OFFCURVE",
"176 -9 OFFCURVE",
"383 -9 CURVE SMOOTH",
"405 -9 LINE",
"395 11 LINE",
"356 -11 OFFCURVE",
"335 -50 OFFCURVE",
"335 -90 CURVE SMOOTH",
"335 -156 OFFCURVE",
"389 -204 OFFCURVE",
"467 -204 CURVE SMOOTH",
"504 -204 OFFCURVE",
"540 -196 OFFCURVE",
"571 -183 CURVE",
"554 -108 LINE",
"534 -117 OFFCURVE",
"515 -121 OFFCURVE",
"498 -121 CURVE SMOOTH",
"459 -121 OFFCURVE",
"437 -102 OFFCURVE",
"437 -66 CURVE SMOOTH",
"437 -33 OFFCURVE",
"459 -6 OFFCURVE",
"499 5 CURVE SMOOTH",
"629 41 OFFCURVE",
"697 143 OFFCURVE",
"697 302 CURVE SMOOTH",
"697 728 LINE",
"534 728 LINE"
);
}
);
width = 764;
}
);
leftKerningGroup = U;
leftMetricsKey = U;
rightKerningGroup = U;
rightMetricsKey = U;
unicode = 0172;
},
{
glyphname = V;
lastChange = "2016-09-21 08:56:17 +0000";
layers = (
{
anchors = (
{
name = bottom;
position = "{350, 0}";
},
{
name = top;
position = "{349, 728}";
}
);
background = {
anchors = (
{
name = bottom;
position = "{350, 0}";
},
{
name = top;
position = "{349, 728}";
}
);
paths = (
{
closed = 1;
nodes = (
"382 0 LINE",
"649 734 LINE",
"593 734 LINE",
"408 218 LINE",
"349 45 LINE",
"288 219 LINE",
"103 734 LINE",
"48 734 LINE",
"317 0 LINE"
);
}
);
};
layerId = "9E718F8A-2CEA-4931-B05D-987794BD97DA";
paths = (
{
closed = 1;
nodes = (
"375 0 LINE",
"690 728 LINE",
"632 728 LINE",
"336 38 LINE",
"364 38 LINE",
"67 728 LINE",
"9 728 LINE",
"323 0 LINE"
);
}
);
width = 698;
},
{
anchors = (
{
name = bottom;
position = "{378, 0}";
},
{
name = top;
position = "{377, 728}";
}
);
background = {
anchors = (
{
name = bottom;
position = "{378, 0}";
},
{
name = top;
position = "{377, 728}";
}
);
paths = (
{
closed = 1;
nodes = (
"281 0 LINE",
"6 734 LINE",
"115 734 LINE",
"304 199 LINE",
"334 114 LINE",
"365 199 LINE",
"555 734 LINE",
"656 734 LINE",
"382 0 LINE"
);
}
);
};
layerId = "E1B555A7-F4E1-459C-9C1A-AE952106EEF9";
paths = (
{
closed = 1;
nodes = (
"444 0 LINE",
"773 728 LINE",
"604 728 LINE",
"355 152 LINE",
"403 152 LINE",
"155 728 LINE",
"-18 728 LINE",
"311 0 LINE"
);
}
);
width = 755;
}
);
leftKerningGroup = V;
rightKerningGroup = V;
unicode = 0056;
userData = {
anchors = (
);
b = {
};
com.typemytype.robofont.guides = (
);
com.typemytype.robofont.layerData = {
b = {
anchors = (
);
components = (
);
contours = (
{
points = (
{
segmentType = curve;
smooth = 1;
x = 644;
y = "-5";
},
{
smooth = 0;
x = 712;
y = "-5";
},
{
smooth = 0;
x = 764;
y = 38;
},
{
segmentType = curve;
smooth = 1;
x = 793;
y = 117;
},
{
segmentType = line;
smooth = 1;
x = 1243;
y = 1324;
},
{
smooth = 0;
x = 1247;
y = 1335;
},
{
smooth = 0;
x = 1248;
y = 1342;
},
{
segmentType = curve;
smooth = 1;
x = 1248;
y = 1351;
},
{
smooth = 0;
x = 1248;
y = 1395;
},
{
smooth = 0;
x = 1203;
y = 1427;
},
{
segmentType = curve;
smooth = 1;
x = 1160;
y = 1427;
},
{
smooth = 0;
x = 1125;
y = 1427;
},
{
smooth = 0;
x = 1090;
y = 1408;
},
{
segmentType = curve;
smooth = 1;
x = 1076;
y = 1369;
},
{
segmentType = line;
smooth = 0;
x = 651;
y = 192;
},
{
segmentType = line;
smooth = 0;
x = 650;
y = 190;
},
{
segmentType = line;
smooth = 1;
x = 214;
y = 1370;
},
{
smooth = 0;
x = 200;
y = 1407;
},
{
smooth = 0;
x = 170;
y = 1427;
},
{
segmentType = curve;
smooth = 1;
x = 135;
y = 1427;
},
{
smooth = 0;
x = 90;
y = 1427;
},
{
smooth = 0;
x = 43;
y = 1392;
},
{
segmentType = curve;
smooth = 1;
x = 43;
y = 1344;
},
{
smooth = 0;
x = 43;
y = 1336;
},
{
smooth = 0;
x = 44;
y = 1326;
},
{
segmentType = curve;
smooth = 0;
x = 48;
y = 1318;
},
{
segmentType = line;
smooth = 1;
x = 501;
y = 117;
},
{
smooth = 0;
x = 532;
y = 35;
},
{
smooth = 0;
x = 581;
y = "-5";
}
);
}
);
lib = {
};
name = V;
unicodes = (
);
width = 1289;
};
};
components = (
);
contours = (
);
lib = {
};
name = V;
unicodes = (
);
width = 1365;
};
},
{
glyphname = W;
lastChange = "2016-09-21 08:56:17 +0000";
layers = (
{
anchors = (
{
name = bottom;
position = "{566, 0}";
},
{
name = top;
position = "{565, 728}";
}
);
background = {
anchors = (
{
name = bottom;
position = "{566, 0}";
},
{
name = top;
position = "{565, 728}";
}
);
paths = (
{
closed = 1;
nodes = (
"323 0 LINE",
"519 666 LINE",
"711 0 LINE",
"775 0 LINE",
"958 734 LINE",
"903 734 LINE",
"754 107 LINE",
"742 59 LINE",
"729 107 LINE",
"545 734 LINE",
"491 734 LINE",
"307 107 LINE",
"293 52 LINE",
"284 107 LINE",
"127 734 LINE",
"69 734 LINE",
"259 0 LINE"
);
}
);
};
layerId = "9E718F8A-2CEA-4931-B05D-987794BD97DA";
paths = (
{
closed = 1;
nodes = (
"343 0 LINE",
"576 670 LINE",
"555 670 LINE",
"788 0 LINE",
"838 0 LINE",
"1091 728 LINE",
"1035 728 LINE",
"796 36 LINE",
"827 36 LINE",
"589 727 LINE",
"543 728 LINE",
"304 36 LINE",
"334 36 LINE",
"96 728 LINE",
"40 728 LINE",
"293 0 LINE"
);
}
);
width = 1131;
},
{
anchors = (
{
name = bottom;
position = "{576, 0}";
},
{
name = top;
position = "{576, 728}";
}
);
background = {
paths = (
{
closed = 1;
nodes = (
"212 0 LINE",
"10 734 LINE",
"115 734 LINE",
"245 222 LINE",
"271 108 LINE",
"300 218 LINE",
"455 734 LINE",
"552 734 LINE",
"707 218 LINE",
"737 111 LINE",
"760 214 LINE",
"888 734 LINE",
"988 734 LINE",
"792 0 LINE",
"680 0 LINE",
"501 605 LINE",
"323 0 LINE"
);
}
);
};
layerId = "E1B555A7-F4E1-459C-9C1A-AE952106EEF9";
paths = (
{
closed = 1;
nodes = (
"409 0 LINE",
"590 508 LINE",
"565 508 LINE",
"743 0 LINE",
"876 0 LINE",
"1135 728 LINE",
"977 728 LINE",
"789 173 LINE",
"825 173 LINE",
"639 728 LINE",
"524 728 LINE",
"328 173 LINE",
"370 173 LINE",
"186 728 LINE",
"18 728 LINE",
"276 0 LINE"
);
}
);
width = 1153;
}
);
leftKerningGroup = V;
rightKerningGroup = V;
unicode = 0057;
userData = {
anchors = (
);
b = {
};
com.typemytype.robofont.layerData = {
b = {
anchors = (
);
components = (
);
contours = (
);
lib = {
};
name = W;
unicodes = (
);
width = 2126;
};
};
components = (
);
contours = (
);
lib = {
};
name = W;
unicodes = (
);
width = 2070;
};
},
{
glyphname = X;
lastChange = "2016-09-21 08:56:17 +0000";
layers = (
{
anchors = (
{
name = bottom;
position = "{328, 0}";
},
{
name = top;
position = "{328, 728}";
}
);
background = {
anchors = (
{
name = bottom;
position = "{328, 0}";
},
{
name = top;
position = "{328, 728}";
}
);
paths = (
{
closed = 1;
nodes = (
"118 0 LINE",
"340 335 LINE",
"549 0 LINE",
"603 0 LINE",
"368 375 LINE",
"595 734 LINE",
"538 734 LINE",
"337 410 LINE",
"127 734 LINE",
"66 734 LINE",
"308 373 LINE",
"61 0 LINE"
);
}
);
};
layerId = "9E718F8A-2CEA-4931-B05D-987794BD97DA";
paths = (
{
closed = 1;
nodes = (
"328 331 LINE",
"361 373 LINE",
"622 728 LINE",
"557 728 LINE",
"330 416 LINE",
"296 374 LINE",
"20 0 LINE",
"87 0 LINE"
);
},
{
closed = 1;
nodes = (
"636 0 LINE",
"361 373 LINE",
"330 416 LINE",
"101 728 LINE",
"35 728 LINE",
"296 374 LINE",
"328 331 LINE",
"570 0 LINE"
);
}
);
width = 656;
},
{
anchors = (
{
name = bottom;
position = "{350, 0}";
},
{
name = top;
position = "{349, 728}";
}
);
background = {
paths = (
{
closed = 1;
nodes = (
"511 0 LINE",
"312 298 LINE",
"114 0 LINE",
"2 0 LINE",
"257 374 LINE",
"10 734 LINE",
"127 734 LINE",
"315 453 LINE",
"505 734 LINE",
"614 734 LINE",
"370 378 LINE",
"625 0 LINE"
);
}
);
};
layerId = "E1B555A7-F4E1-459C-9C1A-AE952106EEF9";
paths = (
{
closed = 1;
nodes = (
"349 247 LINE",
"443 369 LINE",
"715 728 LINE",
"522 728 LINE",
"349 490 LINE",
"255 369 LINE",
"-23 0 LINE",
"170 0 LINE"
);
},
{
closed = 1;
nodes = (
"721 0 LINE",
"443 369 LINE",
"349 490 LINE",
"178 728 LINE",
"-15 728 LINE",
"255 369 LINE",
"349 247 LINE",
"527 0 LINE"
);
}
);
width = 699;
}
);
leftKerningGroup = X;
rightKerningGroup = X;
unicode = 0058;
userData = {
anchors = (
);
b = {
};
com.typemytype.robofont.layerData = {
b = {
anchors = (
);
components = (
);
contours = (
{
points = (
{
segmentType = curve;
smooth = 1;
x = 151;
y = 0;
},
{
smooth = 0;
x = 176;
y = 0;
},
{
smooth = 0;
x = 201;
y = 12;
},
{
segmentType = curve;
smooth = 1;
x = 222;
y = 41;
},
{
segmentType = line;
smooth = 0;
x = 641;
y = 616;
},
{
segmentType = line;
smooth = 0;
x = 746;
y = 734;
},
{
segmentType = line;
smooth = 1;
x = 1175;
y = 1310;
},
{
smooth = 0;
x = 1186;
y = 1325;
},
{
smooth = 0;
x = 1190;
y = 1338;
},
{
segmentType = curve;
smooth = 1;
x = 1190;
y = 1353;
},
{
smooth = 0;
x = 1190;
y = 1393;
},
{
smooth = 0;
x = 1153;
y = 1426;
},
{
segmentType = curve;
smooth = 1;
x = 1110;
y = 1426;
},
{
smooth = 0;
x = 1083;
y = 1426;
},
{
smooth = 0;
x = 1058;
y = 1414;
},
{
segmentType = curve;
smooth = 1;
x = 1037;
y = 1385;
},
{
segmentType = line;
smooth = 0;
x = 648;
y = 844;
},
{
segmentType = line;
smooth = 0;
x = 542;
y = 732;
},
{
segmentType = line;
smooth = 1;
x = 84;
y = 121;
},
{
smooth = 0;
x = 73;
y = 106;
},
{
smooth = 0;
x = 68;
y = 91;
},
{
segmentType = curve;
smooth = 1;
x = 68;
y = 76;
},
{
smooth = 0;
x = 68;
y = 35;
},
{
smooth = 0;
x = 108;
y = 0;
}
);
},
{
points = (
{
segmentType = curve;
smooth = 1;
x = 1104;
y = 0;
},
{
smooth = 0;
x = 1151;
y = 0;
},
{
smooth = 0;
x = 1200;
y = 40;
},
{
segmentType = curve;
smooth = 1;
x = 1200;
y = 85;
},
{
smooth = 0;
x = 1200;
y = 98;
},
{
smooth = 0;
x = 1195;
y = 113;
},
{
segmentType = curve;
smooth = 0;
x = 1186;
y = 126;
},
{
segmentType = line;
smooth = 0;
x = 272;
y = 1385;
},
{
smooth = 0;
x = 252;
y = 1414;
},
{
smooth = 0;
x = 225;
y = 1426;
},
{
segmentType = curve;
smooth = 1;
x = 197;
y = 1426;
},
{
smooth = 0;
x = 149;
y = 1426;
},
{
smooth = 0;
x = 100;
y = 1388;
},
{
segmentType = curve;
smooth = 1;
x = 100;
y = 1343;
},
{
smooth = 0;
x = 100;
y = 1328;
},
{
smooth = 0;
x = 105;
y = 1315;
},
{
segmentType = curve;
smooth = 0;
x = 114;
y = 1303;
},
{
segmentType = line;
smooth = 0;
x = 1033;
y = 40;
},
{
smooth = 0;
x = 1052;
y = 13;
},
{
smooth = 0;
x = 1076;
y = 0;
}
);
}
);
lib = {
};
name = X;
unicodes = (
);
width = 1274;
};
};
components = (
);
contours = (
);
lib = {
};
name = X;
unicodes = (
);
width = 1322;
};
},
{
color = 4;
glyphname = Y;
lastChange = "2016-09-21 08:56:17 +0000";
layers = (
{
anchors = (
{
name = bottom;
position = "{303, 0}";
},
{
name = top;
position = "{303, 728}";
},
{
name = topleft;
position = "{20, 728}";
}
);
background = {
anchors = (
{
name = bottom;
position = "{303, 0}";
},
{
name = top;
position = "{303, 728}";
},
{
name = topleft;
position = "{20, 728}";
}
);
paths = (
{
closed = 1;
nodes = (
"337 0 LINE",
"337 300 LINE",
"583 734 LINE",
"530 734 LINE",
"311 344 LINE",
"95 734 LINE",
"40 734 LINE",
"282 299 LINE",
"282 0 LINE"
);
},
{
closed = 1;
nodes = (
"331 0 LINE",
"331 379 LINE",
"318 333 LINE",
"611 728 LINE",
"547 728 LINE",
"295 386 LINE",
"313 386 LINE",
"60 728 LINE",
"-5 728 LINE",
"288 333 LINE",
"275 379 LINE",
"275 0 LINE"
);
}
);
};
layerId = "9E718F8A-2CEA-4931-B05D-987794BD97DA";
paths = (
{
closed = 1;
nodes = (
"331 0 LINE",
"331 327 LINE",
"318 281 LINE",
"611 728 LINE",
"547 728 LINE",
"292 335 LINE",
"316 335 LINE",
"60 728 LINE",
"-5 728 LINE",
"288 281 LINE",
"275 327 LINE",
"275 0 LINE"
);
}
);
width = 606;
},
{
anchors = (
{
name = bottom;
position = "{331, 0}";
},
{
name = top;
position = "{330, 728}";
},
{
name = topleft;
position = "{20, 728}";
}
);
background = {
anchors = (
{
name = bottom;
position = "{331, 0}";
},
{
name = top;
position = "{330, 728}";
},
{
name = topleft;
position = "{20, 728}";
}
);
paths = (
{
closed = 1;
nodes = (
"257 0 LINE",
"257 290 LINE",
"4 734 LINE",
"111 734 LINE",
"307 374 LINE",
"504 734 LINE",
"612 734 LINE",
"353 291 LINE",
"353 0 LINE"
);
},
{
closed = 1;
nodes = (
"413 0 LINE",
"413 379 LINE",
"379 284 LINE",
"716 728 LINE",
"527 728 LINE",
"312 438 LINE",
"346 438 LINE",
"133 728 LINE",
"-55 728 LINE",
"281 284 LINE",
"247 379 LINE",
"247 0 LINE"
);
}
);
};
layerId = "E1B555A7-F4E1-459C-9C1A-AE952106EEF9";
paths = (
{
closed = 1;
nodes = (
"413 0 LINE",
"413 327 LINE",
"379 232 LINE",
"716 728 LINE",
"527 728 LINE",
"307 386 LINE",
"351 386 LINE",
"133 728 LINE",
"-55 728 LINE",
"281 232 LINE",
"247 327 LINE",
"247 0 LINE"
);
}
);
width = 660;
}
);
leftKerningGroup = Y;
rightKerningGroup = Y;
unicode = 0059;
userData = {
anchors = (
);
b = {
};
com.typemytype.robofont.guides = (
);
com.typemytype.robofont.layerData = {
b = {
anchors = (
);
components = (
);
contours = (
{
points = (
{
segmentType = curve;
smooth = 1;
x = 641;
y = 0;
},
{
smooth = 0;
x = 685;
y = 0;
},
{
smooth = 0;
x = 730;
y = 29;
},
{
segmentType = curve;
smooth = 1;
x = 730;
y = 85;
},
{
segmentType = line;
smooth = 0;
x = 730;
y = 1285;
},
{
segmentType = line;
smooth = 1;
x = 1115;
y = 1285;
},
{
smooth = 0;
x = 1164;
y = 1285;
},
{
smooth = 0;
x = 1190;
y = 1319;
},
{
segmentType = curve;
smooth = 1;
x = 1190;
y = 1355;
},
{
smooth = 0;
x = 1190;
y = 1392;
},
{
smooth = 0;
x = 1166;
y = 1426;
},
{
segmentType = curve;
smooth = 1;
x = 1115;
y = 1426;
},
{
segmentType = line;
smooth = 1;
x = 160;
y = 1426;
},
{
smooth = 0;
x = 111;
y = 1426;
},
{
smooth = 0;
x = 86;
y = 1392;
},
{
segmentType = curve;
smooth = 1;
x = 86;
y = 1355;
},
{
smooth = 0;
x = 86;
y = 1319;
},
{
smooth = 0;
x = 111;
y = 1285;
},
{
segmentType = curve;
smooth = 1;
x = 160;
y = 1285;
},
{
segmentType = line;
smooth = 0;
x = 552;
y = 1285;
},
{
segmentType = line;
smooth = 1;
x = 552;
y = 85;
},
{
smooth = 0;
x = 552;
y = 29;
},
{
smooth = 0;
x = 596;
y = 0;
}
);
}
);
lib = {
};
name = Y;
unicodes = (
);
width = 1278;
};
};
components = (
);
contours = (
);
lib = {
};
name = Y;
unicodes = (
);
width = 1321;
};
},
{
glyphname = Z;
lastChange = "2016-09-21 08:56:17 +0000";
layers = (
{
anchors = (
{
name = bottom;
position = "{308, 0}";
},
{
name = top;
position = "{300, 728}";
}
);
background = {
anchors = (
{
name = bottom;
position = "{308, 0}";
},
{
name = top;
position = "{300, 728}";
}
);
paths = (
{
closed = 1;
nodes = (
"538 0 LINE",
"538 43 LINE",
"131 43 LINE",
"539 706 LINE",
"539 734 LINE",
"86 734 LINE",
"86 691 LINE",
"474 691 LINE",
"67 31 LINE",
"67 0 LINE"
);
}
);
};
layerId = "9E718F8A-2CEA-4931-B05D-987794BD97DA";
paths = (
{
closed = 1;
nodes = (
"563 0 LINE",
"563 50 LINE",
"84 50 LINE",
"82 7 LINE",
"553 687 LINE",
"553 728 LINE",
"44 728 LINE",
"44 679 LINE",
"513 679 LINE",
"515 721 LINE",
"44 41 LINE",
"44 0 LINE"
);
}
);
width = 601;
},
{
anchors = (
{
name = bottom;
position = "{313, 0}";
},
{
name = top;
position = "{317, 728}";
}
);
background = {
anchors = (
{
name = bottom;
position = "{313, 0}";
},
{
name = top;
position = "{317, 728}";
}
);
paths = (
{
closed = 1;
nodes = (
"46 0 LINE",
"46 52 LINE",
"418 652 LINE",
"62 652 LINE",
"62 734 LINE",
"550 734 LINE",
"550 685 LINE",
"176 83 LINE",
"546 83 LINE",
"546 0 LINE"
);
}
);
};
layerId = "E1B555A7-F4E1-459C-9C1A-AE952106EEF9";
paths = (
{
closed = 1;
nodes = (
"595 0 LINE",
"595 131 LINE",
"206 131 LINE",
"204 86 LINE",
"584 608 LINE",
"584 728 LINE",
"52 728 LINE",
"52 597 LINE",
"429 597 LINE",
"430 643 LINE",
"52 122 LINE",
"52 0 LINE"
);
}
);
width = 631;
}
);
leftKerningGroup = Z;
rightKerningGroup = Z;
unicode = 005A;
userData = {
anchors = (
);
b = {
};
com.typemytype.robofont.layerData = {
b = {
anchors = (
);
components = (
);
contours = (
{
points = (
{
segmentType = curve;
smooth = 1;
x = 266;
y = 0;
},
{
segmentType = line;
smooth = 1;
x = 1035;
y = 0;
},
{
smooth = 0;
x = 1084;
y = 0;
},
{
smooth = 0;
x = 1108;
y = 34;
},
{
segmentType = curve;
smooth = 1;
x = 1108;
y = 71;
},
{
smooth = 0;
x = 1108;
y = 107;
},
{
smooth = 0;
x = 1084;
y = 141;
},
{
segmentType = curve;
smooth = 1;
x = 1035;
y = 141;
},
{
segmentType = line;
smooth = 0;
x = 356;
y = 141;
},
{
segmentType = line;
smooth = 0;
x = 356;
y = 665;
},
{
segmentType = line;
smooth = 1;
x = 975;
y = 665;
},
{
smooth = 0;
x = 1024;
y = 665;
},
{
smooth = 0;
x = 1049;
y = 698;
},
{
segmentType = curve;
smooth = 1;
x = 1049;
y = 734;
},
{
smooth = 0;
x = 1049;
y = 770;
},
{
smooth = 0;
x = 1026;
y = 803;
},
{
segmentType = curve;
smooth = 1;
x = 975;
y = 803;
},
{
segmentType = line;
smooth = 0;
x = 356;
y = 803;
},
{
segmentType = line;
smooth = 0;
x = 356;
y = 1285;
},
{
segmentType = line;
smooth = 1;
x = 1007;
y = 1285;
},
{
smooth = 0;
x = 1056;
y = 1285;
},
{
smooth = 0;
x = 1080;
y = 1319;
},
{
segmentType = curve;
smooth = 1;
x = 1080;
y = 1356;
},
{
smooth = 0;
x = 1080;
y = 1392;
},
{
smooth = 0;
x = 1056;
y = 1426;
},
{
segmentType = curve;
smooth = 1;
x = 1007;
y = 1426;
},
{
segmentType = line;
smooth = 1;
x = 261;
y = 1426;
},
{
smooth = 0;
x = 213;
y = 1426;
},
{
smooth = 0;
x = 178;
y = 1383;
},
{
segmentType = curve;
smooth = 1;
x = 178;
y = 1340;
},
{
segmentType = line;
smooth = 1;
x = 178;
y = 86;
},
{
smooth = 0;
x = 178;
y = 41;
},
{
smooth = 0;
x = 222;
y = 0;
}
);
}
);
lib = {
};
name = Z;
unicodes = (
);
width = 1165;
};
};
components = (
);
contours = (
);
lib = {
};
name = Z;
unicodes = (
);
width = 1222;
};
},
{
glyphname = a;
lastChange = "2016-09-21 08:56:17 +0000";
layers = (
{
anchors = (
{
name = bottom;
position = "{295, 0}";
},
{
name = ogonek;
position = "{501, 10}";
},
{
name = top;
position = "{295, 506}";
}
);
background = {
paths = (
{
closed = 1;
nodes = (
"384 -10 OFFCURVE",
"447 39 OFFCURVE",
"477 108 CURVE",
"477 0 LINE",
"527 0 LINE",
"527 518 LINE",
"477 518 LINE",
"477 416 LINE",
"449 482 OFFCURVE",
"382 531 OFFCURVE",
"293 531 CURVE SMOOTH",
"145 531 OFFCURVE",
"49 427 OFFCURVE",
"49 264 CURVE SMOOTH",
"49 97 OFFCURVE",
"144 -10 OFFCURVE",
"291 -10 CURVE SMOOTH"
);
},
{
closed = 1;
nodes = (
"175 31 OFFCURVE",
"99 122 OFFCURVE",
"99 264 CURVE SMOOTH",
"99 401 OFFCURVE",
"175 490 OFFCURVE",
"293 490 CURVE SMOOTH",
"406 490 OFFCURVE",
"477 401 OFFCURVE",
"477 264 CURVE SMOOTH",
"477 122 OFFCURVE",
"410 31 OFFCURVE",
"293 31 CURVE SMOOTH"
);
}
);
};
layerId = "9E718F8A-2CEA-4931-B05D-987794BD97DA";
paths = (
{
closed = 1;
nodes = (
"370 -7 OFFCURVE",
"437 42 OFFCURVE",
"460 131 CURVE",
"448 139 LINE",
"448 0 LINE",
"504 0 LINE",
"504 501 LINE",
"448 501 LINE",
"448 367 LINE",
"460 376 LINE",
"437 464 OFFCURVE",
"370 513 OFFCURVE",
"275 513 CURVE SMOOTH",
"142 513 OFFCURVE",
"52 409 OFFCURVE",
"52 251 CURVE SMOOTH",
"52 94 OFFCURVE",
"140 -7 OFFCURVE",
"275 -7 CURVE SMOOTH"
);
},
{
closed = 1;
nodes = (
"174 43 OFFCURVE",
"111 119 OFFCURVE",
"111 251 CURVE SMOOTH",
"111 384 OFFCURVE",
"174 463 OFFCURVE",
"280 463 CURVE SMOOTH",
"388 463 OFFCURVE",
"448 387 OFFCURVE",
"448 253 CURVE SMOOTH",
"448 120 OFFCURVE",
"388 43 OFFCURVE",
"281 43 CURVE SMOOTH"
);
}
);
width = 589;
},
{
anchors = (
{
name = bottom;
position = "{317, 0}";
},
{
name = ogonek;
position = "{550, 10}";
},
{
name = top;
position = "{317, 511}";
}
);
background = {
anchors = (
{
name = bottom;
position = "{317, 0}";
},
{
name = ogonek;
position = "{550, 10}";
},
{
name = top;
position = "{317, 511}";
}
);
paths = (
{
closed = 1;
nodes = (
"392 -11 OFFCURVE",
"452 42 OFFCURVE",
"480 114 CURVE",
"466 120 LINE",
"466 0 LINE",
"559 0 LINE",
"559 518 LINE",
"466 518 LINE",
"466 413 LINE",
"482 420 LINE",
"456 464 OFFCURVE",
"411 531 OFFCURVE",
"309 531 CURVE SMOOTH",
"143 531 OFFCURVE",
"52 410 OFFCURVE",
"52 259 CURVE SMOOTH",
"52 114 OFFCURVE",
"132 -11 OFFCURVE",
"304 -11 CURVE SMOOTH"
);
},
{
closed = 1;
nodes = (
"194 64 OFFCURVE",
"147 157 OFFCURVE",
"147 260 CURVE SMOOTH",
"147 365 OFFCURVE",
"192 456 OFFCURVE",
"311 456 CURVE SMOOTH",
"417 456 OFFCURVE",
"470 368 OFFCURVE",
"470 263 CURVE SMOOTH",
"470 146 OFFCURVE",
"414 64 OFFCURVE",
"312 64 CURVE SMOOTH"
);
}
);
};
layerId = "E1B555A7-F4E1-459C-9C1A-AE952106EEF9";
paths = (
{
closed = 1;
nodes = (
"339 -8 OFFCURVE",
"406 33 OFFCURVE",
"429 99 CURVE",
"417 101 LINE",
"417 0 LINE",
"576 0 LINE",
"576 507 LINE",
"417 507 LINE",
"417 404 LINE",
"429 412 LINE",
"406 478 OFFCURVE",
"339 520 OFFCURVE",
"258 520 CURVE SMOOTH",
"127 520 OFFCURVE",
"34 412 OFFCURVE",
"34 253 CURVE SMOOTH",
"34 94 OFFCURVE",
"126 -8 OFFCURVE",
"258 -8 CURVE SMOOTH"
);
},
{
closed = 1;
nodes = (
"234 114 OFFCURVE",
"194 163 OFFCURVE",
"194 253 CURVE SMOOTH",
"194 345 OFFCURVE",
"236 398 OFFCURVE",
"306 398 CURVE SMOOTH",
"377 398 OFFCURVE",
"417 347 OFFCURVE",
"417 255 CURVE SMOOTH",
"417 164 OFFCURVE",
"377 114 OFFCURVE",
"306 114 CURVE SMOOTH"
);
}
);
width = 635;
}
);
leftKerningGroup = o;
leftMetricsKey = o;
rightKerningGroup = u;
unicode = 0061;
userData = {
anchors = (
);
b = {
};
com.typemytype.robofont.layerData = {
b = {
anchors = (
);
components = (
);
contours = (
);
lib = {
};
name = p;
unicodes = (
);
width = 1181;
};
};
components = (
);
contours = (
);
lib = {
};
name = p;
unicodes = (
);
width = 1207;
};
},
{
glyphname = aogonek;
lastChange = "2016-09-21 08:56:17 +0000";
layers = (
{
background = {
components = (
{
name = a;
},
{
name = ogonek;
transform = "{1, 0, 0, 1, 341, 0}";
}
);
};
layerId = "9E718F8A-2CEA-4931-B05D-987794BD97DA";
paths = (
{
closed = 1;
nodes = (
"504 501 LINE",
"448 501 LINE",
"448 367 LINE",
"460 376 LINE",
"437 464 OFFCURVE",
"370 513 OFFCURVE",
"275 513 CURVE SMOOTH",
"142 513 OFFCURVE",
"52 409 OFFCURVE",
"52 251 CURVE SMOOTH",
"52 94 OFFCURVE",
"140 -7 OFFCURVE",
"275 -7 CURVE SMOOTH",
"370 -7 OFFCURVE",
"437 42 OFFCURVE",
"460 131 CURVE",
"448 114 LINE",
"448 0 LINE",
"466 0 LINE",
"487 39 LINE",
"404 26 OFFCURVE",
"353 -24 OFFCURVE",
"353 -91 CURVE SMOOTH",
"353 -154 OFFCURVE",
"401 -197 OFFCURVE",
"470 -197 CURVE SMOOTH",
"502 -197 OFFCURVE",
"531 -189 OFFCURVE",
"553 -174 CURVE",
"536 -134 LINE",
"514 -146 OFFCURVE",
"493 -153 OFFCURVE",
"475 -153 CURVE SMOOTH",
"432 -153 OFFCURVE",
"405 -127 OFFCURVE",
"405 -85 CURVE SMOOTH",
"405 -35 OFFCURVE",
"444 0 OFFCURVE",
"500 0 CURVE SMOOTH",
"504 0 LINE"
);
},
{
closed = 1;
nodes = (
"174 43 OFFCURVE",
"111 119 OFFCURVE",
"111 251 CURVE SMOOTH",
"111 384 OFFCURVE",
"174 463 OFFCURVE",
"280 463 CURVE SMOOTH",
"388 463 OFFCURVE",
"448 387 OFFCURVE",
"448 253 CURVE SMOOTH",
"448 120 OFFCURVE",
"388 43 OFFCURVE",
"281 43 CURVE SMOOTH"
);
}
);
width = 589;
},
{
background = {
components = (
{
name = a;
},
{
name = ogonek;
transform = "{1, 0, 0, 1, 335, 0}";
}
);
};
layerId = "E1B555A7-F4E1-459C-9C1A-AE952106EEF9";
paths = (
{
closed = 1;
nodes = (
"576 507 LINE",
"417 507 LINE",
"417 404 LINE",
"429 412 LINE",
"406 477 OFFCURVE",
"339 520 OFFCURVE",
"258 520 CURVE SMOOTH",
"126 520 OFFCURVE",
"34 410 OFFCURVE",
"34 253 CURVE SMOOTH",
"34 96 OFFCURVE",
"124 -8 OFFCURVE",
"258 -8 CURVE SMOOTH",
"339 -8 OFFCURVE",
"406 33 OFFCURVE",
"429 99 CURVE",
"417 103 LINE",
"417 0 LINE",
"462 0 LINE",
"475 38 LINE",
"413 13 OFFCURVE",
"378 -32 OFFCURVE",
"378 -88 CURVE SMOOTH",
"378 -156 OFFCURVE",
"433 -204 OFFCURVE",
"510 -204 CURVE SMOOTH",
"547 -204 OFFCURVE",
"584 -196 OFFCURVE",
"615 -183 CURVE",
"597 -108 LINE",
"577 -117 OFFCURVE",
"559 -121 OFFCURVE",
"541 -121 CURVE SMOOTH",
"502 -121 OFFCURVE",
"480 -102 OFFCURVE",
"480 -66 CURVE SMOOTH",
"480 -27 OFFCURVE",
"515 0 OFFCURVE",
"566 0 CURVE SMOOTH",
"576 0 LINE"
);
},
{
closed = 1;
nodes = (
"234 114 OFFCURVE",
"194 163 OFFCURVE",
"194 253 CURVE SMOOTH",
"194 344 OFFCURVE",
"236 398 OFFCURVE",
"306 398 CURVE SMOOTH",
"377 398 OFFCURVE",
"417 347 OFFCURVE",
"417 255 CURVE SMOOTH",
"417 164 OFFCURVE",
"377 114 OFFCURVE",
"306 114 CURVE SMOOTH"
);
}
);
width = 635;
}
);
leftKerningGroup = o;
leftMetricsKey = o;
widthMetricsKey = a;
rightKerningGroup = u;
unicode = 0105;
userData = {
com.typemytype.robofont.layerData = {
b = {
anchors = (
);
components = (
);
contours = (
);
lib = {
};
name = aogonek;
unicodes = (
);
width = 1040;
};
};
};
},
{
glyphname = aringacute;
lastChange = "2016-09-21 08:56:17 +0000";
layers = (
{
background = {
components = (
{
name = a;
},
{
name = ring;
transform = "{1, 0, 0, 1, 156, 0}";
},
{
name = acute;
transform = "{1, 0, 0, 1, 215, 210}";
}
);
};
layerId = "9E718F8A-2CEA-4931-B05D-987794BD97DA";
paths = (
{
closed = 1;
nodes = (
"370 -7 OFFCURVE",
"437 42 OFFCURVE",
"460 131 CURVE",
"448 139 LINE",
"448 0 LINE",
"504 0 LINE",
"504 501 LINE",
"448 501 LINE",
"448 367 LINE",
"460 376 LINE",
"437 464 OFFCURVE",
"370 513 OFFCURVE",
"275 513 CURVE SMOOTH",
"142 513 OFFCURVE",
"52 409 OFFCURVE",
"52 251 CURVE SMOOTH",
"52 94 OFFCURVE",
"140 -7 OFFCURVE",
"275 -7 CURVE SMOOTH"
);
},
{
closed = 1;
nodes = (
"174 43 OFFCURVE",
"111 119 OFFCURVE",
"111 251 CURVE SMOOTH",
"111 384 OFFCURVE",
"174 463 OFFCURVE",
"280 463 CURVE SMOOTH",
"388 463 OFFCURVE",
"448 387 OFFCURVE",
"448 253 CURVE SMOOTH",
"448 120 OFFCURVE",
"388 43 OFFCURVE",
"281 43 CURVE SMOOTH"
);
},
{
closed = 1;
nodes = (
"351 573 OFFCURVE",
"397 617 OFFCURVE",
"397 672 CURVE SMOOTH",
"397 728 OFFCURVE",
"351 772 OFFCURVE",
"295 772 CURVE SMOOTH",
"240 772 OFFCURVE",
"194 728 OFFCURVE",
"194 672 CURVE SMOOTH",
"194 617 OFFCURVE",
"240 573 OFFCURVE",
"295 573 CURVE SMOOTH"
);
},
{
closed = 1;
nodes = (
"265 619 OFFCURVE",
"244 643 OFFCURVE",
"244 672 CURVE SMOOTH",
"244 702 OFFCURVE",
"265 726 OFFCURVE",
"295 726 CURVE SMOOTH",
"325 726 OFFCURVE",
"347 702 OFFCURVE",
"347 672 CURVE SMOOTH",
"347 643 OFFCURVE",
"325 619 OFFCURVE",
"295 619 CURVE SMOOTH"
);
},
{
closed = 1;
nodes = (
"374 721 LINE",
"505 876 LINE",
"434 876 LINE",
"331 721 LINE"
);
}
);
width = 589;
},
{
layerId = "E1B555A7-F4E1-459C-9C1A-AE952106EEF9";
paths = (
{
closed = 1;
nodes = (
"339 -8 OFFCURVE",
"406 33 OFFCURVE",
"429 99 CURVE",
"417 101 LINE",
"417 0 LINE",
"576 0 LINE",
"576 507 LINE",
"417 507 LINE",
"417 404 LINE",
"429 412 LINE",
"406 478 OFFCURVE",
"339 520 OFFCURVE",
"258 520 CURVE SMOOTH",
"127 520 OFFCURVE",
"34 412 OFFCURVE",
"34 253 CURVE SMOOTH",
"34 94 OFFCURVE",
"126 -8 OFFCURVE",
"258 -8 CURVE SMOOTH"
);
},
{
closed = 1;
nodes = (
"234 114 OFFCURVE",
"194 163 OFFCURVE",
"194 253 CURVE SMOOTH",
"194 345 OFFCURVE",
"236 398 OFFCURVE",
"306 398 CURVE SMOOTH",
"377 398 OFFCURVE",
"417 347 OFFCURVE",
"417 255 CURVE SMOOTH",
"417 164 OFFCURVE",
"377 114 OFFCURVE",
"306 114 CURVE SMOOTH"
);
},
{
closed = 1;
nodes = (
"380 568 OFFCURVE",
"431 617 OFFCURVE",
"431 680 CURVE SMOOTH",
"431 743 OFFCURVE",
"380 791 OFFCURVE",
"317 791 CURVE SMOOTH",
"254 791 OFFCURVE",
"204 743 OFFCURVE",
"204 680 CURVE SMOOTH",
"204 617 OFFCURVE",
"254 568 OFFCURVE",
"317 568 CURVE SMOOTH"
);
},
{
closed = 1;
nodes = (
"291 633 OFFCURVE",
"273 654 OFFCURVE",
"273 680 CURVE SMOOTH",
"273 706 OFFCURVE",
"291 726 OFFCURVE",
"317 726 CURVE SMOOTH",
"343 726 OFFCURVE",
"362 706 OFFCURVE",
"362 680 CURVE SMOOTH",
"362 654 OFFCURVE",
"343 633 OFFCURVE",
"317 633 CURVE SMOOTH"
);
},
{
closed = 1;
nodes = (
"577 882 LINE",
"430 882 LINE",
"348 763 LINE",
"413 717 LINE"
);
}
);
width = 635;
}
);
leftKerningGroup = o;
leftMetricsKey = o;
widthMetricsKey = a;
rightKerningGroup = u;
unicode = 01FB;
},
{
color = 4;
glyphname = ae;
lastChange = "2016-09-21 08:56:17 +0000";
layers = (
{
anchors = (
{
name = bottom;
position = "{436, 0}";
},
{
name = top;
position = "{436, 506}";
}
);
background = {
paths = (
{
closed = 1;
nodes = (
"714 -7 OFFCURVE",
"787 21 OFFCURVE",
"829 62 CURVE",
"807 106 LINE",
"755 64 OFFCURVE",
"701 43 OFFCURVE",
"646 43 CURVE SMOOTH",
"529 43 OFFCURVE",
"464 118 OFFCURVE",
"464 254 CURVE SMOOTH",
"464 385 OFFCURVE",
"529 466 OFFCURVE",
"634 466 CURVE SMOOTH",
"734 466 OFFCURVE",
"789 394 OFFCURVE",
"786 264 CURVE",
"807 288 LINE",
"443 288 LINE",
"444 244 LINE",
"838 244 LINE",
"838 270 LINE SMOOTH",
"838 422 OFFCURVE",
"762 513 OFFCURVE",
"634 513 CURVE SMOOTH",
"500 513 OFFCURVE",
"408 405 OFFCURVE",
"413 249 CURVE SMOOTH",
"418 87 OFFCURVE",
"504 -7 OFFCURVE",
"647 -7 CURVE SMOOTH"
);
},
{
closed = 1;
nodes = (
"357 -7 OFFCURVE",
"430 64 OFFCURVE",
"442 177 CURVE",
"462 177 LINE",
"462 330 LINE",
"462 451 OFFCURVE",
"402 513 OFFCURVE",
"283 513 CURVE SMOOTH",
"215 513 OFFCURVE",
"139 490 OFFCURVE",
"89 452 CURVE",
"112 408 LINE",
"171 445 OFFCURVE",
"226 463 OFFCURVE",
"287 463 CURVE SMOOTH",
"372 463 OFFCURVE",
"407 421 OFFCURVE",
"407 324 CURVE SMOOTH",
"407 215 LINE SMOOTH",
"407 114 OFFCURVE",
"342 43 OFFCURVE",
"251 43 CURVE SMOOTH",
"180 43 OFFCURVE",
"128 86 OFFCURVE",
"128 147 CURVE SMOOTH",
"128 223 OFFCURVE",
"184 244 OFFCURVE",
"387 244 CURVE SMOOTH",
"418 244 LINE",
"418 288 LINE",
"385 288 LINE SMOOTH",
"144 288 OFFCURVE",
"67 253 OFFCURVE",
"68 142 CURVE SMOOTH",
"69 56 OFFCURVE",
"147 -7 OFFCURVE",
"248 -7 CURVE SMOOTH"
);
}
);
};
layerId = "9E718F8A-2CEA-4931-B05D-987794BD97DA";
paths = (
{
closed = 1;
nodes = (
"714 -7 OFFCURVE",
"787 21 OFFCURVE",
"829 62 CURVE",
"807 106 LINE",
"755 64 OFFCURVE",
"701 43 OFFCURVE",
"646 43 CURVE SMOOTH",
"529 43 OFFCURVE",
"464 118 OFFCURVE",
"464 254 CURVE SMOOTH",
"464 385 OFFCURVE",
"529 466 OFFCURVE",
"634 466 CURVE SMOOTH",
"734 466 OFFCURVE",
"789 394 OFFCURVE",
"786 264 CURVE",
"807 304 LINE",
"443 304 LINE",
"444 259 LINE",
"838 259 LINE",
"838 270 LINE SMOOTH",
"838 422 OFFCURVE",
"762 513 OFFCURVE",
"634 513 CURVE SMOOTH",
"500 513 OFFCURVE",
"408 405 OFFCURVE",
"413 249 CURVE SMOOTH",
"418 87 OFFCURVE",
"504 -7 OFFCURVE",
"647 -7 CURVE SMOOTH"
);
},
{
closed = 1;
nodes = (
"357 -7 OFFCURVE",
"430 64 OFFCURVE",
"442 177 CURVE",
"462 177 LINE",
"462 330 LINE",
"462 451 OFFCURVE",
"402 513 OFFCURVE",
"283 513 CURVE SMOOTH",
"215 513 OFFCURVE",
"139 490 OFFCURVE",
"89 452 CURVE",
"112 408 LINE",
"171 445 OFFCURVE",
"226 463 OFFCURVE",
"287 463 CURVE SMOOTH",
"372 463 OFFCURVE",
"407 421 OFFCURVE",
"407 324 CURVE SMOOTH",
"407 215 LINE SMOOTH",
"407 114 OFFCURVE",
"342 43 OFFCURVE",
"251 43 CURVE SMOOTH",
"180 43 OFFCURVE",
"128 86 OFFCURVE",
"128 152 CURVE SMOOTH",
"128 228 OFFCURVE",
"184 259 OFFCURVE",
"367 259 CURVE SMOOTH",
"418 259 LINE",
"418 304 LINE",
"365 304 LINE SMOOTH",
"144 304 OFFCURVE",
"67 258 OFFCURVE",
"68 147 CURVE SMOOTH",
"69 56 OFFCURVE",
"147 -7 OFFCURVE",
"248 -7 CURVE SMOOTH"
);
}
);
width = 887;
},
{
anchors = (
{
name = bottom;
position = "{431, 0}";
},
{
name = top;
position = "{431, 511}";
}
);
background = {
paths = (
{
closed = 1;
nodes = (
"696 -8 OFFCURVE",
"773 15 OFFCURVE",
"822 54 CURVE",
"780 161 LINE",
"735 129 OFFCURVE",
"682 112 OFFCURVE",
"626 112 CURVE SMOOTH",
"542 112 OFFCURVE",
"507 158 OFFCURVE",
"507 272 CURVE SMOOTH",
"507 361 OFFCURVE",
"543 409 OFFCURVE",
"608 409 CURVE SMOOTH",
"664 409 OFFCURVE",
"695 366 OFFCURVE",
"695 287 CURVE",
"734 303 LINE",
"497 303 LINE",
"496 223 LINE",
"831 223 LINE",
"831 262 LINE SMOOTH",
"831 416 OFFCURVE",
"742 520 OFFCURVE",
"612 520 CURVE SMOOTH",
"470 520 OFFCURVE",
"375 413 OFFCURVE",
"375 255 CURVE SMOOTH",
"375 87 OFFCURVE",
"466 -8 OFFCURVE",
"625 -8 CURVE SMOOTH"
);
},
{
closed = 1;
nodes = (
"359 -8 OFFCURVE",
"439 67 OFFCURVE",
"439 199 CURVE",
"491 209 LINE",
"491 299 LINE SMOOTH",
"491 450 OFFCURVE",
"426 520 OFFCURVE",
"284 520 CURVE SMOOTH",
"211 520 OFFCURVE",
"116 493 OFFCURVE",
"59 457 CURVE",
"101 349 LINE",
"155 381 OFFCURVE",
"220 400 OFFCURVE",
"275 400 CURVE SMOOTH",
"331 400 OFFCURVE",
"354 376 OFFCURVE",
"354 320 CURVE SMOOTH",
"354 209 LINE SMOOTH",
"354 149 OFFCURVE",
"315 102 OFFCURVE",
"263 102 CURVE SMOOTH",
"222 102 OFFCURVE",
"193 127 OFFCURVE",
"193 165 CURVE SMOOTH",
"193 209 OFFCURVE",
"231 225 OFFCURVE",
"337 225 CURVE SMOOTH",
"361 225 LINE",
"361 303 LINE",
"327 303 LINE SMOOTH",
"116 303 OFFCURVE",
"38 263 OFFCURVE",
"38 154 CURVE SMOOTH",
"38 59 OFFCURVE",
"124 -8 OFFCURVE",
"242 -8 CURVE SMOOTH"
);
}
);
};
layerId = "E1B555A7-F4E1-459C-9C1A-AE952106EEF9";
paths = (
{
closed = 1;
nodes = (
"696 -8 OFFCURVE",
"773 15 OFFCURVE",
"822 54 CURVE",
"780 161 LINE",
"735 129 OFFCURVE",
"682 112 OFFCURVE",
"636 112 CURVE SMOOTH",
"542 112 OFFCURVE",
"507 168 OFFCURVE",
"507 251 CURVE SMOOTH",
"507 364 OFFCURVE",
"543 409 OFFCURVE",
"608 409 CURVE SMOOTH",
"664 409 OFFCURVE",
"695 366 OFFCURVE",
"695 287 CURVE",
"734 318 LINE",
"497 318 LINE",
"496 239 LINE",
"831 239 LINE",
"831 262 LINE SMOOTH",
"831 416 OFFCURVE",
"742 520 OFFCURVE",
"612 520 CURVE SMOOTH",
"470 520 OFFCURVE",
"375 413 OFFCURVE",
"375 255 CURVE SMOOTH",
"375 87 OFFCURVE",
"466 -8 OFFCURVE",
"625 -8 CURVE SMOOTH"
);
},
{
closed = 1;
nodes = (
"359 -8 OFFCURVE",
"439 67 OFFCURVE",
"439 199 CURVE",
"491 209 LINE",
"491 299 LINE SMOOTH",
"491 450 OFFCURVE",
"426 520 OFFCURVE",
"284 520 CURVE SMOOTH",
"211 520 OFFCURVE",
"116 493 OFFCURVE",
"59 457 CURVE",
"101 349 LINE",
"155 381 OFFCURVE",
"220 400 OFFCURVE",
"275 400 CURVE SMOOTH",
"331 400 OFFCURVE",
"354 376 OFFCURVE",
"354 320 CURVE SMOOTH",
"354 209 LINE SMOOTH",
"354 149 OFFCURVE",
"324 102 OFFCURVE",
"263 102 CURVE SMOOTH",
"222 102 OFFCURVE",
"193 127 OFFCURVE",
"193 165 CURVE SMOOTH",
"193 214 OFFCURVE",
"231 241 OFFCURVE",
"326 241 CURVE SMOOTH",
"361 241 LINE",
"361 318 LINE",
"317 318 LINE SMOOTH",
"116 318 OFFCURVE",
"38 269 OFFCURVE",
"38 159 CURVE SMOOTH",
"38 59 OFFCURVE",
"124 -8 OFFCURVE",
"242 -8 CURVE SMOOTH"
);
}
);
width = 864;
}
);
leftKerningGroup = a;
rightKerningGroup = e;
rightMetricsKey = e;
unicode = 00E6;
userData = {
com.typemytype.robofont.layerData = {
b = {
anchors = (
);
components = (
);
contours = (
);
lib = {
};
name = ae;
unicodes = (
);
width = 1734;
};
};
};
},
{
glyphname = b;
lastChange = "2016-09-21 08:56:17 +0000";
layers = (
{
anchors = (
{
name = bottom;
position = "{311, 0}";
},
{
name = top;
position = "{314, 506}";
}
);
background = {
anchors = (
{
name = bottom;
position = "{311, 0}";
},
{
name = top;
position = "{314, 506}";
}
);
paths = (
{
closed = 1;
nodes = (
"494 -10 OFFCURVE",
"585 96 OFFCURVE",
"585 262 CURVE SMOOTH",
"585 426 OFFCURVE",
"494 531 OFFCURVE",
"351 531 CURVE SMOOTH",
"259 531 OFFCURVE",
"180 480 OFFCURVE",
"149 403 CURVE",
"149 764 LINE",
"99 764 LINE",
"99 135 LINE SMOOTH",
"99 82 OFFCURVE",
"95 1 OFFCURVE",
"95 0 CURVE",
"146 0 LINE",
"148 121 LINE",
"177 41 OFFCURVE",
"256 -10 OFFCURVE",
"351 -10 CURVE SMOOTH"
);
},
{
closed = 1;
nodes = (
"227 31 OFFCURVE",
"149 122 OFFCURVE",
"149 262 CURVE SMOOTH",
"149 401 OFFCURVE",
"227 490 OFFCURVE",
"351 490 CURVE SMOOTH",
"469 490 OFFCURVE",
"536 401 OFFCURVE",
"536 262 CURVE SMOOTH",
"536 122 OFFCURVE",
"469 31 OFFCURVE",
"351 31 CURVE SMOOTH"
);
}
);
};
layerId = "9E718F8A-2CEA-4931-B05D-987794BD97DA";
paths = (
{
closed = 1;
nodes = (
"140 0 LINE",
"140 139 LINE",
"129 131 LINE",
"152 42 OFFCURVE",
"219 -7 OFFCURVE",
"314 -7 CURVE SMOOTH",
"447 -7 OFFCURVE",
"537 97 OFFCURVE",
"537 255 CURVE SMOOTH",
"537 412 OFFCURVE",
"448 513 OFFCURVE",
"314 513 CURVE SMOOTH",
"219 513 OFFCURVE",
"152 464 OFFCURVE",
"129 375 CURVE",
"140 367 LINE",
"140 728 LINE",
"85 728 LINE",
"85 0 LINE"
);
},
{
closed = 1;
nodes = (
"200 43 OFFCURVE",
"140 120 OFFCURVE",
"140 253 CURVE SMOOTH",
"140 386 OFFCURVE",
"200 463 OFFCURVE",
"308 463 CURVE SMOOTH",
"415 463 OFFCURVE",
"478 387 OFFCURVE",
"478 255 CURVE SMOOTH",
"478 122 OFFCURVE",
"415 43 OFFCURVE",
"309 43 CURVE SMOOTH"
);
}
);
width = 589;
},
{
anchors = (
{
name = bottom;
position = "{318, 0}";
},
{
name = top;
position = "{377, 511}";
}
);
background = {
anchors = (
{
name = bottom;
position = "{318, 0}";
},
{
name = top;
position = "{377, 511}";
}
);
paths = (
{
closed = 1;
nodes = (
"357 -11 CURVE SMOOTH",
"267 -11 OFFCURVE",
"205 37 OFFCURVE",
"180 88 CURVE",
"179 0 LINE",
"85 0 LINE",
"86 30 OFFCURVE",
"88 121 OFFCURVE",
"88 136 CURVE SMOOTH",
"88 749 LINE",
"181 749 LINE",
"181 432 LINE",
"207 482 OFFCURVE",
"269 531 OFFCURVE",
"357 531 CURVE SMOOTH",
"498 531 OFFCURVE",
"591 430 OFFCURVE",
"591 269 CURVE SMOOTH",
"591 95 OFFCURVE",
"494 -11 OFFCURVE"
);
},
{
closed = 1;
nodes = (
"346 64 CURVE SMOOTH",
"443 64 OFFCURVE",
"495 142 OFFCURVE",
"495 269 CURVE SMOOTH",
"495 378 OFFCURVE",
"437 456 OFFCURVE",
"342 456 CURVE SMOOTH",
"242 456 OFFCURVE",
"179 377 OFFCURVE",
"179 259 CURVE SMOOTH",
"179 142 OFFCURVE",
"243 64 OFFCURVE"
);
}
);
};
layerId = "E1B555A7-F4E1-459C-9C1A-AE952106EEF9";
paths = (
{
closed = 1;
nodes = (
"218 0 LINE",
"218 122 LINE",
"207 99 LINE",
"229 33 OFFCURVE",
"296 -8 OFFCURVE",
"377 -8 CURVE SMOOTH",
"508 -8 OFFCURVE",
"601 99 OFFCURVE",
"601 258 CURVE SMOOTH",
"601 417 OFFCURVE",
"509 520 OFFCURVE",
"377 520 CURVE SMOOTH",
"296 520 OFFCURVE",
"229 478 OFFCURVE",
"207 412 CURVE",
"220 393 LINE",
"220 728 LINE",
"59 728 LINE",
"59 0 LINE"
);
},
{
closed = 1;
nodes = (
"258 114 OFFCURVE",
"218 164 OFFCURVE",
"218 256 CURVE SMOOTH",
"218 347 OFFCURVE",
"258 398 OFFCURVE",
"330 398 CURVE SMOOTH",
"401 398 OFFCURVE",
"441 348 OFFCURVE",
"441 258 CURVE SMOOTH",
"441 166 OFFCURVE",
"400 114 OFFCURVE",
"330 114 CURVE SMOOTH"
);
}
);
width = 635;
}
);
leftKerningGroup = h;
rightKerningGroup = o;
rightMetricsKey = o;
unicode = 0062;
userData = {
anchors = (
);
b = {
};
com.typemytype.robofont.layerData = {
b = {
anchors = (
);
components = (
);
contours = (
{
points = (
{
segmentType = curve;
smooth = 1;
x = 238;
y = 1425;
},
{
smooth = 0;
x = 198;
y = 1425;
},
{
smooth = 0;
x = 158;
y = 1400;
},
{
segmentType = curve;
smooth = 1;
x = 158;
y = 1351;
},
{
segmentType = line;
smooth = 1;
x = 158;
y = 76;
},
{
smooth = 0;
x = 158;
y = 27;
},
{
smooth = 0;
x = 197;
y = 3;
},
{
segmentType = curve;
smooth = 1;
x = 237;
y = 3;
},
{
smooth = 0;
x = 297;
y = 3;
},
{
smooth = 0;
x = 318;
y = 38;
},
{
segmentType = curve;
smooth = 1;
x = 318;
y = 76;
},
{
segmentType = line;
smooth = 0;
x = 318;
y = 183;
},
{
smooth = 0;
x = 384;
y = 46;
},
{
smooth = 0;
x = 516;
y = "-20";
},
{
segmentType = curve;
smooth = 1;
x = 666;
y = "-20";
},
{
smooth = 0;
x = 957;
y = "-20";
},
{
smooth = 0;
x = 1095;
y = 225;
},
{
segmentType = curve;
smooth = 1;
x = 1095;
y = 502;
},
{
smooth = 0;
x = 1095;
y = 777;
},
{
smooth = 0;
x = 939;
y = 1013;
},
{
segmentType = curve;
smooth = 1;
x = 650;
y = 1013;
},
{
smooth = 0;
x = 503;
y = 1013;
},
{
smooth = 0;
x = 376;
y = 942;
},
{
segmentType = curve;
smooth = 0;
x = 318;
y = 814;
},
{
segmentType = line;
smooth = 1;
x = 318;
y = 1351;
},
{
smooth = 0;
x = 318;
y = 1400;
},
{
smooth = 0;
x = 278;
y = 1425;
}
);
},
{
points = (
{
segmentType = curve;
smooth = 1;
x = 632;
y = 903;
},
{
smooth = 0;
x = 859;
y = 903;
},
{
smooth = 0;
x = 935;
y = 685;
},
{
segmentType = curve;
smooth = 1;
x = 935;
y = 496;
},
{
smooth = 0;
x = 935;
y = 316;
},
{
smooth = 0;
x = 869;
y = 93;
},
{
segmentType = curve;
smooth = 0;
x = 645;
y = 90;
},
{
smooth = 0;
x = 395;
y = 90;
},
{
smooth = 0;
x = 319;
y = 279;
},
{
segmentType = curve;
smooth = 1;
x = 319;
y = 501;
},
{
smooth = 0;
x = 319;
y = 701;
},
{
smooth = 0;
x = 407;
y = 903;
}
);
}
);
lib = {
};
name = b;
unicodes = (
);
width = 1181;
};
};
components = (
);
contours = (
);
lib = {
};
name = b;
unicodes = (
);
width = 1203;
};
},
{
glyphname = c;
lastChange = "2016-09-21 08:56:17 +0000";
layers = (
{
anchors = (
{
name = bottom;
position = "{282, 0}";
},
{
name = top;
position = "{284, 506}";
}
);
background = {
anchors = (
{
name = bottom;
position = "{799, 0}";
},
{
name = top;
position = "{801, 506}";
}
);
paths = (
{
closed = 1;
nodes = (
"379 -10 OFFCURVE",
"448 13 OFFCURVE",
"487 51 CURVE",
"469 85 LINE",
"428 52 OFFCURVE",
"374 31 OFFCURVE",
"309 31 CURVE SMOOTH",
"181 31 OFFCURVE",
"99 118 OFFCURVE",
"99 253 CURVE SMOOTH",
"99 397 OFFCURVE",
"183 490 OFFCURVE",
"314 490 CURVE SMOOTH",
"372 490 OFFCURVE",
"421 473 OFFCURVE",
"453 444 CURVE",
"471 480 LINE",
"435 511 OFFCURVE",
"374 531 OFFCURVE",
"314 531 CURVE SMOOTH",
"152 531 OFFCURVE",
"49 422 OFFCURVE",
"49 253 CURVE SMOOTH",
"49 93 OFFCURVE",
"151 -10 OFFCURVE",
"309 -10 CURVE SMOOTH"
);
}
);
};
layerId = "9E718F8A-2CEA-4931-B05D-987794BD97DA";
paths = (
{
closed = 1;
nodes = (
"351 -7 OFFCURVE",
"418 19 OFFCURVE",
"460 60 CURVE",
"437 104 LINE",
"385 62 OFFCURVE",
"340 43 OFFCURVE",
"288 43 CURVE SMOOTH",
"178 43 OFFCURVE",
"111 120 OFFCURVE",
"111 251 CURVE SMOOTH",
"111 383 OFFCURVE",
"179 463 OFFCURVE",
"289 463 CURVE SMOOTH",
"340 463 OFFCURVE",
"385 444 OFFCURVE",
"437 402 CURVE",
"460 446 LINE",
"420 488 OFFCURVE",
"354 513 OFFCURVE",
"287 513 CURVE SMOOTH",
"144 513 OFFCURVE",
"52 408 OFFCURVE",
"52 251 CURVE SMOOTH",
"52 96 OFFCURVE",
"143 -7 OFFCURVE",
"285 -7 CURVE SMOOTH"
);
}
);
width = 489;
},
{
anchors = (
{
name = bottom;
position = "{295, 0}";
},
{
name = top;
position = "{305, 511}";
}
);
background = {
paths = (
{
closed = 1;
nodes = (
"383 -11 OFFCURVE",
"441 9 OFFCURVE",
"487 44 CURVE",
"458 111 LINE",
"425 86 OFFCURVE",
"374 64 OFFCURVE",
"317 64 CURVE SMOOTH",
"213 64 OFFCURVE",
"147 137 OFFCURVE",
"147 256 CURVE SMOOTH",
"147 395 OFFCURVE",
"228 455 OFFCURVE",
"320 455 CURVE SMOOTH",
"372 455 OFFCURVE",
"418 435 OFFCURVE",
"449 408 CURVE",
"481 469 LINE",
"441 509 OFFCURVE",
"382 531 OFFCURVE",
"315 531 CURVE SMOOTH",
"158 531 OFFCURVE",
"51 420 OFFCURVE",
"51 255 CURVE SMOOTH",
"51 97 OFFCURVE",
"154 -11 OFFCURVE",
"312 -11 CURVE SMOOTH"
);
}
);
};
layerId = "E1B555A7-F4E1-459C-9C1A-AE952106EEF9";
paths = (
{
closed = 1;
nodes = (
"381 -8 OFFCURVE",
"457 15 OFFCURVE",
"502 54 CURVE",
"460 164 LINE",
"421 133 OFFCURVE",
"370 115 OFFCURVE",
"325 115 CURVE SMOOTH",
"246 115 OFFCURVE",
"199 162 OFFCURVE",
"199 256 CURVE SMOOTH",
"199 350 OFFCURVE",
"247 397 OFFCURVE",
"325 397 CURVE SMOOTH",
"370 397 OFFCURVE",
"421 378 OFFCURVE",
"460 347 CURVE",
"502 458 LINE",
"459 496 OFFCURVE",
"383 520 OFFCURVE",
"310 520 CURVE SMOOTH",
"144 520 OFFCURVE",
"34 413 OFFCURVE",
"34 253 CURVE SMOOTH",
"34 93 OFFCURVE",
"135 -8 OFFCURVE",
"303 -8 CURVE SMOOTH"
);
}
);
width = 511;
}
);
leftKerningGroup = o;
leftMetricsKey = o;
rightKerningGroup = c;
unicode = 0063;
userData = {
anchors = (
);
b = {
};
com.typemytype.robofont.layerData = {
b = {
anchors = (
);
components = (
);
contours = (
);
lib = {
};
name = c;
unicodes = (
);
width = 956.1410;
};
};
components = (
);
contours = (
);
lib = {
};
name = c;
unicodes = (
);
width = 992;
};
},
{
glyphname = d;
lastChange = "2016-09-21 08:56:17 +0000";
layers = (
{
anchors = (
{
name = bottom;
position = "{296, 0}";
},
{
name = center;
position = "{296, 253}";
},
{
name = top;
position = "{296, 506}";
},
{
name = topright;
position = "{545, 728}";
}
);
background = {
anchors = (
{
name = bottom;
position = "{296, 0}";
},
{
name = center;
position = "{296, 253}";
},
{
name = top;
position = "{296, 506}";
},
{
name = topright;
position = "{545, 728}";
}
);
paths = (
{
closed = 1;
nodes = (
"377 -10 OFFCURVE",
"457 41 OFFCURVE",
"486 121 CURVE",
"489 0 LINE",
"538 0 LINE",
"538 1 OFFCURVE",
"535 82 OFFCURVE",
"535 135 CURVE SMOOTH",
"535 764 LINE",
"486 764 LINE",
"486 403 LINE",
"453 480 OFFCURVE",
"374 531 OFFCURVE",
"282 531 CURVE SMOOTH",
"140 531 OFFCURVE",
"49 426 OFFCURVE",
"49 262 CURVE SMOOTH",
"49 96 OFFCURVE",
"140 -10 OFFCURVE",
"282 -10 CURVE SMOOTH"
);
},
{
closed = 1;
nodes = (
"164 31 OFFCURVE",
"98 122 OFFCURVE",
"98 262 CURVE SMOOTH",
"98 401 OFFCURVE",
"164 490 OFFCURVE",
"282 490 CURVE SMOOTH",
"406 490 OFFCURVE",
"486 401 OFFCURVE",
"486 262 CURVE SMOOTH",
"486 122 OFFCURVE",
"406 31 OFFCURVE",
"282 31 CURVE SMOOTH"
);
}
);
};
layerId = "9E718F8A-2CEA-4931-B05D-987794BD97DA";
paths = (
{
closed = 1;
nodes = (
"504 728 LINE",
"448 728 LINE",
"448 367 LINE",
"460 375 LINE",
"437 464 OFFCURVE",
"370 513 OFFCURVE",
"275 513 CURVE SMOOTH",
"140 513 OFFCURVE",
"52 412 OFFCURVE",
"52 255 CURVE SMOOTH",
"52 97 OFFCURVE",
"142 -7 OFFCURVE",
"275 -7 CURVE SMOOTH",
"370 -7 OFFCURVE",
"437 42 OFFCURVE",
"460 131 CURVE",
"448 139 LINE",
"448 0 LINE",
"504 0 LINE"
);
},
{
closed = 1;
nodes = (
"174 43 OFFCURVE",
"111 122 OFFCURVE",
"111 255 CURVE SMOOTH",
"111 387 OFFCURVE",
"174 463 OFFCURVE",
"281 463 CURVE SMOOTH",
"388 463 OFFCURVE",
"448 386 OFFCURVE",
"448 253 CURVE SMOOTH",
"448 120 OFFCURVE",
"388 43 OFFCURVE",
"280 43 CURVE SMOOTH"
);
}
);
width = 589;
},
{
anchors = (
{
name = bottom;
position = "{318, 0}";
},
{
name = center;
position = "{318, 256}";
},
{
name = top;
position = "{318, 511}";
},
{
name = topright;
position = "{602, 728}";
}
);
background = {
paths = (
{
closed = 1;
nodes = (
"289 -11 CURVE SMOOTH",
"151 -11 OFFCURVE",
"51 91 OFFCURVE",
"51 255 CURVE SMOOTH",
"51 418 OFFCURVE",
"143 531 OFFCURVE",
"293 531 CURVE SMOOTH",
"378 531 OFFCURVE",
"438 487 OFFCURVE",
"459 441 CURVE",
"459 749 LINE",
"551 749 LINE",
"551 131 LINE SMOOTH",
"551 98 OFFCURVE",
"552 58 OFFCURVE",
"554 0 CURVE",
"460 0 LINE",
"458 86 LINE",
"438 38 OFFCURVE",
"382 -11 OFFCURVE"
);
},
{
closed = 1;
nodes = (
"302 64 CURVE SMOOTH",
"402 64 OFFCURVE",
"460 142 OFFCURVE",
"460 265 CURVE SMOOTH",
"460 375 OFFCURVE",
"403 456 OFFCURVE",
"305 456 CURVE SMOOTH",
"207 456 OFFCURVE",
"147 376 OFFCURVE",
"147 257 CURVE SMOOTH",
"147 142 OFFCURVE",
"204 64 OFFCURVE"
);
}
);
};
layerId = "E1B555A7-F4E1-459C-9C1A-AE952106EEF9";
paths = (
{
closed = 1;
nodes = (
"576 728 LINE",
"415 728 LINE",
"415 393 LINE",
"429 412 LINE",
"406 478 OFFCURVE",
"339 520 OFFCURVE",
"258 520 CURVE SMOOTH",
"126 520 OFFCURVE",
"34 417 OFFCURVE",
"34 258 CURVE SMOOTH",
"34 99 OFFCURVE",
"127 -8 OFFCURVE",
"258 -8 CURVE SMOOTH",
"339 -8 OFFCURVE",
"406 33 OFFCURVE",
"429 99 CURVE",
"417 122 LINE",
"417 0 LINE",
"576 0 LINE"
);
},
{
closed = 1;
nodes = (
"236 114 OFFCURVE",
"194 166 OFFCURVE",
"194 258 CURVE SMOOTH",
"194 348 OFFCURVE",
"234 398 OFFCURVE",
"306 398 CURVE SMOOTH",
"377 398 OFFCURVE",
"417 347 OFFCURVE",
"417 256 CURVE SMOOTH",
"417 164 OFFCURVE",
"377 114 OFFCURVE",
"306 114 CURVE SMOOTH"
);
}
);
width = 635;
}
);
leftKerningGroup = o;
leftMetricsKey = o;
rightKerningGroup = l;
unicode = 0064;
userData = {
anchors = (
);
b = {
};
com.typemytype.robofont.layerData = {
b = {
anchors = (
);
components = (
);
contours = (
);
lib = {
};
name = d;
unicodes = (
);
width = 1181;
};
};
components = (
);
contours = (
);
lib = {
};
name = d;
unicodes = (
);
width = 1207;
};
},
{
glyphname = eth;
lastChange = "2016-09-21 08:56:17 +0000";
layers = (
{
background = {
paths = (
{
closed = 1;
nodes = (
"472 -11 OFFCURVE",
"555 106 OFFCURVE",
"555 304 CURVE SMOOTH",
"555 483 OFFCURVE",
"490 600 OFFCURVE",
"384 678 CURVE",
"457 733 LINE",
"431 766 LINE",
"347 702 LINE",
"294 735 OFFCURVE",
"233 761 OFFCURVE",
"166 781 CURVE",
"145 743 LINE",
"209 722 OFFCURVE",
"263 699 OFFCURVE",
"309 672 CURVE",
"241 621 LINE",
"265 587 LINE",
"347 649 LINE",
"459 572 OFFCURVE",
"504 472 OFFCURVE",
"511 341 CURVE",
"481 393 OFFCURVE",
"414 449 OFFCURVE",
"304 449 CURVE SMOOTH",
"152 449 OFFCURVE",
"63 358 OFFCURVE",
"63 217 CURVE SMOOTH",
"63 79 OFFCURVE",
"157 -11 OFFCURVE",
"312 -11 CURVE SMOOTH"
);
},
{
closed = 1;
nodes = (
"188 30 OFFCURVE",
"114 103 OFFCURVE",
"114 217 CURVE SMOOTH",
"114 334 OFFCURVE",
"183 408 OFFCURVE",
"304 408 CURVE SMOOTH",
"419 408 OFFCURVE",
"501 341 OFFCURVE",
"501 245 CURVE SMOOTH",
"501 115 OFFCURVE",
"435 30 OFFCURVE",
"312 30 CURVE SMOOTH"
);
}
);
};
guideLines = (
{
angle = 90;
position = "{173, 512}";
},
{
angle = 90;
position = "{511, 512}";
}
);
layerId = "9E718F8A-2CEA-4931-B05D-987794BD97DA";
paths = (
{
closed = 1;
nodes = (
"432 -7 OFFCURVE",
"511 95 OFFCURVE",
"511 293 CURVE SMOOTH",
"511 519 OFFCURVE",
"398 669 OFFCURVE",
"181 734 CURVE",
"165 690 LINE",
"356 633 OFFCURVE",
"459 497 OFFCURVE",
"457 301 CURVE",
"483 299 LINE",
"461 410 OFFCURVE",
"390 470 OFFCURVE",
"280 470 CURVE SMOOTH",
"143 470 OFFCURVE",
"52 376 OFFCURVE",
"52 231 CURVE SMOOTH",
"52 87 OFFCURVE",
"142 -7 OFFCURVE",
"279 -7 CURVE SMOOTH"
);
},
{
closed = 1;
nodes = (
"171 43 OFFCURVE",
"111 111 OFFCURVE",
"111 231 CURVE SMOOTH",
"111 350 OFFCURVE",
"174 419 OFFCURVE",
"280 419 CURVE SMOOTH",
"386 419 OFFCURVE",
"449 350 OFFCURVE",
"449 231 CURVE SMOOTH",
"449 114 OFFCURVE",
"385 43 OFFCURVE",
"279 43 CURVE SMOOTH"
);
},
{
closed = 1;
nodes = (
"509 652 LINE",
"494 694 LINE",
"173 566 LINE",
"188 524 LINE"
);
}
);
width = 563;
},
{
background = {
paths = (
{
closed = 1;
nodes = (
"301 -11 CURVE SMOOTH",
"465 -11 OFFCURVE",
"559 117 OFFCURVE",
"559 317 CURVE SMOOTH",
"559 528 OFFCURVE",
"425 694 OFFCURVE",
"178 751 CURVE",
"137 688 LINE",
"245 664 OFFCURVE",
"460 577 OFFCURVE",
"463 380 CURVE",
"464 377 OFFCURVE",
"465 371 OFFCURVE",
"465 369 CURVE",
"435 412 OFFCURVE",
"381 453 OFFCURVE",
"293 453 CURVE SMOOTH",
"153 453 OFFCURVE",
"53 361 OFFCURVE",
"53 228 CURVE SMOOTH",
"53 94 OFFCURVE",
"149 -11 OFFCURVE"
);
},
{
closed = 1;
nodes = (
"300 66 CURVE SMOOTH",
"214 66 OFFCURVE",
"151 130 OFFCURVE",
"151 224 CURVE SMOOTH",
"151 314 OFFCURVE",
"211 375 OFFCURVE",
"302 375 CURVE SMOOTH",
"378 375 OFFCURVE",
"455 319 OFFCURVE",
"455 238 CURVE SMOOTH",
"455 143 OFFCURVE",
"404 66 OFFCURVE"
);
},
{
closed = 1;
nodes = (
"251 535 LINE",
"491 708 LINE",
"456 757 LINE",
"215 585 LINE"
);
}
);
};
guideLines = (
{
angle = 90;
position = "{153, 302}";
},
{
angle = 90;
position = "{582, 302}";
}
);
layerId = "E1B555A7-F4E1-459C-9C1A-AE952106EEF9";
paths = (
{
closed = 1;
nodes = (
"480 -8 OFFCURVE",
"583 106 OFFCURVE",
"583 308 CURVE SMOOTH",
"583 499 OFFCURVE",
"446 705 OFFCURVE",
"187 740 CURVE",
"152 630 LINE",
"306 609 OFFCURVE",
"432 498 OFFCURVE",
"432 337 CURVE",
"474 332 LINE",
"448 425 OFFCURVE",
"385 470 OFFCURVE",
"283 470 CURVE SMOOTH",
"137 470 OFFCURVE",
"34 372 OFFCURVE",
"34 232 CURVE SMOOTH",
"34 89 OFFCURVE",
"142 -8 OFFCURVE",
"299 -8 CURVE SMOOTH"
);
},
{
closed = 1;
nodes = (
"232 114 OFFCURVE",
"194 154 OFFCURVE",
"194 232 CURVE SMOOTH",
"194 311 OFFCURVE",
"232 351 OFFCURVE",
"305 351 CURVE SMOOTH",
"377 351 OFFCURVE",
"415 311 OFFCURVE",
"415 232 CURVE SMOOTH",
"415 156 OFFCURVE",
"376 114 OFFCURVE",
"305 114 CURVE SMOOTH"
);
},
{
closed = 1;
nodes = (
"577 590 LINE",
"556 671 LINE",
"151 563 LINE",
"173 481 LINE"
);
}
);
width = 617;
}
);
leftKerningGroup = o;
leftMetricsKey = o;
rightKerningGroup = o;
rightMetricsKey = o;
unicode = 00F0;
userData = {
com.typemytype.robofont.layerData = {
b = {
anchors = (
);
components = (
);
contours = (
);
lib = {
};
name = eth;
unicodes = (
);
width = 1230;
};
};
};
},
{
glyphname = dcaron;
lastChange = "2016-09-21 08:56:17 +0000";
layers = (
{
background = {
components = (
{
name = d;
},
{
name = caron.alt;
transform = "{1, 0, 0, 1, 406, 0}";
}
);
};
components = (
{
name = d;
}
);
layerId = "9E718F8A-2CEA-4931-B05D-987794BD97DA";
paths = (
{
closed = 1;
nodes = (
"602 728 LINE",
"541 728 LINE",
"541 533 LINE",
"575 533 LINE"
);
}
);
width = 589;
},
{
background = {
components = (
{
name = comma;
transform = "{1, 0, 0, 1, 596, 616}";
},
{
name = d;
}
);
};
components = (
{
name = d;
}
);
layerId = "E1B555A7-F4E1-459C-9C1A-AE952106EEF9";
paths = (
{
closed = 1;
nodes = (
"684 728 LINE",
"602 728 LINE",
"602 528 LINE",
"657 528 LINE"
);
}
);
width = 635;
}
);
leftKerningGroup = o;
leftMetricsKey = d;
widthMetricsKey = d;
rightKerningGroup = lcaron;
unicode = 010F;
},
{
glyphname = dcroat;
lastChange = "2016-09-21 08:56:17 +0000";
layers = (
{
background = {
components = (
{
name = d;
},
{
name = macron;
transform = "{1, 0, 0, 1, 325, -6}";
}
);
};
layerId = "9E718F8A-2CEA-4931-B05D-987794BD97DA";
paths = (
{
closed = 1;
nodes = (
"602 582 LINE",
"602 628 LINE",
"247 628 LINE",
"247 582 LINE"
);
},
{
closed = 1;
nodes = (
"504 728 LINE",
"448 728 LINE",
"448 367 LINE",
"460 375 LINE",
"437 464 OFFCURVE",
"370 513 OFFCURVE",
"275 513 CURVE SMOOTH",
"140 513 OFFCURVE",
"52 412 OFFCURVE",
"52 255 CURVE SMOOTH",
"52 97 OFFCURVE",
"142 -7 OFFCURVE",
"275 -7 CURVE SMOOTH",
"370 -7 OFFCURVE",
"437 42 OFFCURVE",
"460 131 CURVE",
"448 139 LINE",
"448 0 LINE",
"504 0 LINE"
);
},
{
closed = 1;
nodes = (
"174 43 OFFCURVE",
"111 122 OFFCURVE",
"111 255 CURVE SMOOTH",
"111 387 OFFCURVE",
"174 463 OFFCURVE",
"281 463 CURVE SMOOTH",
"388 463 OFFCURVE",
"448 386 OFFCURVE",
"448 253 CURVE SMOOTH",
"448 120 OFFCURVE",
"388 43 OFFCURVE",
"280 43 CURVE SMOOTH"
);
}
);
width = 589;
},
{
background = {
components = (
{
name = d;
}
);
paths = (
{
closed = 1;
nodes = (
"296 614 LINE",
"296 685 LINE",
"604 685 LINE",
"604 614 LINE"
);
}
);
};
layerId = "E1B555A7-F4E1-459C-9C1A-AE952106EEF9";
paths = (
{
closed = 1;
nodes = (
"664 549 LINE",
"664 660 LINE",
"224 660 LINE",
"224 549 LINE"
);
},
{
closed = 1;
nodes = (
"576 728 LINE",
"415 728 LINE",
"415 393 LINE",
"429 412 LINE",
"406 478 OFFCURVE",
"339 520 OFFCURVE",
"258 520 CURVE SMOOTH",
"126 520 OFFCURVE",
"34 417 OFFCURVE",
"34 258 CURVE SMOOTH",
"34 99 OFFCURVE",
"127 -8 OFFCURVE",
"258 -8 CURVE SMOOTH",
"339 -8 OFFCURVE",
"406 33 OFFCURVE",
"429 99 CURVE",
"417 122 LINE",
"417 0 LINE",
"576 0 LINE"
);
},
{
closed = 1;
nodes = (
"236 114 OFFCURVE",
"194 166 OFFCURVE",
"194 258 CURVE SMOOTH",
"194 348 OFFCURVE",
"234 398 OFFCURVE",
"306 398 CURVE SMOOTH",
"377 398 OFFCURVE",
"417 347 OFFCURVE",
"417 256 CURVE SMOOTH",
"417 164 OFFCURVE",
"377 114 OFFCURVE",
"306 114 CURVE SMOOTH"
);
}
);
width = 635;
}
);
leftKerningGroup = o;
leftMetricsKey = d;
widthMetricsKey = d;
rightKerningGroup = l;
unicode = 0111;
userData = {
com.typemytype.robofont.layerData = {
b = {
anchors = (
);
components = (
);
contours = (
);
lib = {
};
name = dcroat;
unicodes = (
);
width = 1181;
};
};
};
},
{
color = 4;
glyphname = e;
lastChange = "2016-09-21 08:56:17 +0000";
layers = (
{
anchors = (
{
name = bottom;
position = "{296, 0}";
},
{
name = ogonek;
position = "{389, 10}";
},
{
name = top;
position = "{285, 506}";
}
);
background = {
paths = (
{
closed = 1;
nodes = (
"462 106 LINE",
"409 63 OFFCURVE",
"356 43 OFFCURVE",
"295 43 CURVE SMOOTH",
"176 43 OFFCURVE",
"111 118 OFFCURVE",
"111 254 CURVE SMOOTH",
"111 386 OFFCURVE",
"177 466 OFFCURVE",
"285 466 CURVE SMOOTH",
"389 466 OFFCURVE",
"445 394 OFFCURVE",
"441 264 CURVE",
"462 288 LINE",
"100 288 LINE",
"101 244 LINE",
"493 244 LINE",
"493 272 LINE SMOOTH",
"493 424 OFFCURVE",
"415 513 OFFCURVE",
"285 513 CURVE SMOOTH",
"147 513 OFFCURVE",
"52 408 OFFCURVE",
"52 252 CURVE SMOOTH",
"52 90 OFFCURVE",
"145 -7 OFFCURVE",
"296 -7 CURVE SMOOTH",
"368 -7 OFFCURVE",
"441 20 OFFCURVE",
"484 62 CURVE"
);
}
);
};
guideLines = (
{
angle = 90;
position = "{493, 192}";
}
);
layerId = "9E718F8A-2CEA-4931-B05D-987794BD97DA";
paths = (
{
closed = 1;
nodes = (
"462 106 LINE",
"409 63 OFFCURVE",
"356 43 OFFCURVE",
"295 43 CURVE SMOOTH",
"176 43 OFFCURVE",
"111 118 OFFCURVE",
"111 254 CURVE SMOOTH",
"111 386 OFFCURVE",
"177 466 OFFCURVE",
"285 466 CURVE SMOOTH",
"389 466 OFFCURVE",
"445 394 OFFCURVE",
"441 264 CURVE",
"462 304 LINE",
"100 304 LINE",
"101 259 LINE",
"493 259 LINE",
"493 272 LINE SMOOTH",
"493 424 OFFCURVE",
"415 513 OFFCURVE",
"285 513 CURVE SMOOTH",
"147 513 OFFCURVE",
"52 408 OFFCURVE",
"52 252 CURVE SMOOTH",
"52 90 OFFCURVE",
"145 -7 OFFCURVE",
"296 -7 CURVE SMOOTH",
"368 -7 OFFCURVE",
"441 20 OFFCURVE",
"484 62 CURVE"
);
}
);
width = 542;
},
{
anchors = (
{
name = bottom;
position = "{307, 0}";
},
{
name = ogonek;
position = "{411, 10}";
},
{
name = top;
position = "{285, 511}";
}
);
background = {
paths = (
{
closed = 1;
nodes = (
"467 161 LINE",
"425 129 OFFCURVE",
"371 112 OFFCURVE",
"319 112 CURVE SMOOTH",
"229 112 OFFCURVE",
"188 157 OFFCURVE",
"188 269 CURVE SMOOTH",
"188 361 OFFCURVE",
"224 409 OFFCURVE",
"289 409 CURVE SMOOTH",
"350 409 OFFCURVE",
"382 368 OFFCURVE",
"382 287 CURVE",
"421 303 LINE",
"178 303 LINE",
"177 223 LINE",
"518 223 LINE",
"518 262 LINE SMOOTH",
"518 421 OFFCURVE",
"428 520 OFFCURVE",
"285 520 CURVE SMOOTH",
"138 520 OFFCURVE",
"34 411 OFFCURVE",
"34 255 CURVE SMOOTH",
"34 93 OFFCURVE",
"139 -8 OFFCURVE",
"312 -8 CURVE SMOOTH",
"383 -8 OFFCURVE",
"460 15 OFFCURVE",
"509 54 CURVE"
);
}
);
};
guideLines = (
{
angle = 90;
position = "{518, 192}";
}
);
layerId = "E1B555A7-F4E1-459C-9C1A-AE952106EEF9";
paths = (
{
closed = 1;
nodes = (
"467 161 LINE",
"425 129 OFFCURVE",
"371 112 OFFCURVE",
"319 112 CURVE SMOOTH",
"229 112 OFFCURVE",
"188 157 OFFCURVE",
"188 269 CURVE SMOOTH",
"188 361 OFFCURVE",
"224 409 OFFCURVE",
"289 409 CURVE SMOOTH",
"350 409 OFFCURVE",
"382 368 OFFCURVE",
"382 287 CURVE",
"421 318 LINE",
"178 318 LINE",
"177 239 LINE",
"518 239 LINE",
"518 262 LINE SMOOTH",
"518 421 OFFCURVE",
"428 520 OFFCURVE",
"285 520 CURVE SMOOTH",
"138 520 OFFCURVE",
"34 411 OFFCURVE",
"34 255 CURVE SMOOTH",
"34 93 OFFCURVE",
"139 -8 OFFCURVE",
"312 -8 CURVE SMOOTH",
"383 -8 OFFCURVE",
"460 15 OFFCURVE",
"509 54 CURVE"
);
}
);
width = 551;
}
);
leftKerningGroup = o;
leftMetricsKey = o;
rightKerningGroup = e;
unicode = 0065;
userData = {
anchors = (
);
b = {
};
com.typemytype.robofont.layerData = {
b = {
anchors = (
);
components = (
);
contours = (
);
lib = {
};
name = e;
unicodes = (
);
width = 1132;
};
};
components = (
);
contours = (
);
lib = {
};
name = e;
unicodes = (
);
width = 1132;
};
},
{
color = 4;
glyphname = eogonek;
lastChange = "2016-09-21 08:56:17 +0000";
layers = (
{
anchors = (
{
name = top;
position = "{285, 506}";
}
);
background = {
paths = (
{
closed = 1;
nodes = (
"434 -197 OFFCURVE",
"463 -189 OFFCURVE",
"484 -174 CURVE",
"468 -134 LINE",
"446 -146 OFFCURVE",
"425 -153 OFFCURVE",
"407 -153 CURVE SMOOTH",
"364 -153 OFFCURVE",
"337 -127 OFFCURVE",
"337 -85 CURVE SMOOTH",
"337 -43 OFFCURVE",
"363 -12 OFFCURVE",
"434 28 CURVE SMOOTH",
"467 46 OFFCURVE",
"475 53 OFFCURVE",
"484 63 CURVE",
"462 106 LINE",
"409 63 OFFCURVE",
"356 43 OFFCURVE",
"295 43 CURVE SMOOTH",
"176 43 OFFCURVE",
"111 118 OFFCURVE",
"111 254 CURVE SMOOTH",
"111 386 OFFCURVE",
"177 466 OFFCURVE",
"285 466 CURVE SMOOTH",
"389 466 OFFCURVE",
"445 394 OFFCURVE",
"441 264 CURVE",
"462 288 LINE",
"100 288 LINE",
"101 244 LINE",
"493 244 LINE",
"493 272 LINE SMOOTH",
"493 424 OFFCURVE",
"415 513 OFFCURVE",
"285 513 CURVE SMOOTH",
"147 513 OFFCURVE",
"52 408 OFFCURVE",
"52 252 CURVE SMOOTH",
"52 90 OFFCURVE",
"145 -7 OFFCURVE",
"296 -7 CURVE SMOOTH",
"321 -7 OFFCURVE",
"336 -4 OFFCURVE",
"363 5 CURVE",
"349 13 LINE",
"308 -11 OFFCURVE",
"285 -48 OFFCURVE",
"285 -91 CURVE SMOOTH",
"285 -154 OFFCURVE",
"333 -197 OFFCURVE",
"402 -197 CURVE SMOOTH"
);
}
);
};
layerId = "9E718F8A-2CEA-4931-B05D-987794BD97DA";
paths = (
{
closed = 1;
nodes = (
"434 -197 OFFCURVE",
"463 -189 OFFCURVE",
"484 -174 CURVE",
"468 -134 LINE",
"446 -146 OFFCURVE",
"425 -153 OFFCURVE",
"407 -153 CURVE SMOOTH",
"364 -153 OFFCURVE",
"337 -127 OFFCURVE",
"337 -85 CURVE SMOOTH",
"337 -43 OFFCURVE",
"363 -12 OFFCURVE",
"434 28 CURVE SMOOTH",
"467 46 OFFCURVE",
"475 53 OFFCURVE",
"484 63 CURVE",
"462 106 LINE",
"409 63 OFFCURVE",
"356 43 OFFCURVE",
"295 43 CURVE SMOOTH",
"176 43 OFFCURVE",
"111 118 OFFCURVE",
"111 254 CURVE SMOOTH",
"111 386 OFFCURVE",
"177 466 OFFCURVE",
"285 466 CURVE SMOOTH",
"389 466 OFFCURVE",
"445 394 OFFCURVE",
"441 264 CURVE",
"462 304 LINE",
"100 304 LINE",
"101 259 LINE",
"493 259 LINE",
"493 272 LINE SMOOTH",
"493 424 OFFCURVE",
"415 513 OFFCURVE",
"285 513 CURVE SMOOTH",
"147 513 OFFCURVE",
"52 408 OFFCURVE",
"52 252 CURVE SMOOTH",
"52 90 OFFCURVE",
"145 -7 OFFCURVE",
"296 -7 CURVE SMOOTH",
"321 -7 OFFCURVE",
"336 -4 OFFCURVE",
"363 5 CURVE",
"349 13 LINE",
"308 -11 OFFCURVE",
"285 -48 OFFCURVE",
"285 -91 CURVE SMOOTH",
"285 -154 OFFCURVE",
"333 -197 OFFCURVE",
"402 -197 CURVE SMOOTH"
);
}
);
width = 542;
},
{
anchors = (
{
name = top;
position = "{285, 511}";
}
);
background = {
paths = (
{
closed = 1;
nodes = (
"441 -204 OFFCURVE",
"477 -196 OFFCURVE",
"508 -183 CURVE",
"491 -108 LINE",
"471 -117 OFFCURVE",
"452 -121 OFFCURVE",
"435 -121 CURVE SMOOTH",
"396 -121 OFFCURVE",
"374 -102 OFFCURVE",
"374 -66 CURVE SMOOTH",
"374 -31 OFFCURVE",
"395 -7 OFFCURVE",
"450 21 CURVE SMOOTH",
"487 38 OFFCURVE",
"499 45 OFFCURVE",
"509 54 CURVE",
"467 161 LINE",
"425 129 OFFCURVE",
"371 112 OFFCURVE",
"319 112 CURVE SMOOTH",
"229 112 OFFCURVE",
"188 157 OFFCURVE",
"188 269 CURVE SMOOTH",
"188 357 OFFCURVE",
"224 409 OFFCURVE",
"289 409 CURVE SMOOTH",
"350 409 OFFCURVE",
"382 368 OFFCURVE",
"382 287 CURVE",
"421 303 LINE",
"178 303 LINE",
"177 223 LINE",
"518 223 LINE",
"518 262 LINE SMOOTH",
"518 421 OFFCURVE",
"428 520 OFFCURVE",
"285 520 CURVE SMOOTH",
"138 520 OFFCURVE",
"34 411 OFFCURVE",
"34 255 CURVE SMOOTH",
"34 93 OFFCURVE",
"139 -8 OFFCURVE",
"312 -8 CURVE SMOOTH",
"327 -8 OFFCURVE",
"343 -6 OFFCURVE",
"364 -3 CURVE",
"334 13 LINE",
"293 -10 OFFCURVE",
"272 -48 OFFCURVE",
"272 -90 CURVE SMOOTH",
"272 -156 OFFCURVE",
"326 -204 OFFCURVE",
"404 -204 CURVE SMOOTH"
);
}
);
};
guideLines = (
{
angle = 90;
position = "{514, 160}";
}
);
layerId = "E1B555A7-F4E1-459C-9C1A-AE952106EEF9";
paths = (
{
closed = 1;
nodes = (
"441 -204 OFFCURVE",
"477 -196 OFFCURVE",
"508 -183 CURVE",
"491 -108 LINE",
"471 -117 OFFCURVE",
"452 -121 OFFCURVE",
"435 -121 CURVE SMOOTH",
"396 -121 OFFCURVE",
"374 -102 OFFCURVE",
"374 -66 CURVE SMOOTH",
"374 -31 OFFCURVE",
"395 -7 OFFCURVE",
"450 21 CURVE SMOOTH",
"487 38 OFFCURVE",
"499 45 OFFCURVE",
"509 54 CURVE",
"467 161 LINE",
"425 129 OFFCURVE",
"371 112 OFFCURVE",
"319 112 CURVE SMOOTH",
"229 112 OFFCURVE",
"188 157 OFFCURVE",
"188 269 CURVE SMOOTH",
"188 357 OFFCURVE",
"224 409 OFFCURVE",
"289 409 CURVE SMOOTH",
"350 409 OFFCURVE",
"382 368 OFFCURVE",
"382 287 CURVE",
"421 318 LINE",
"178 318 LINE",
"177 239 LINE",
"518 239 LINE",
"518 262 LINE SMOOTH",
"518 421 OFFCURVE",
"428 520 OFFCURVE",
"285 520 CURVE SMOOTH",
"138 520 OFFCURVE",
"34 411 OFFCURVE",
"34 255 CURVE SMOOTH",
"34 93 OFFCURVE",
"139 -8 OFFCURVE",
"312 -8 CURVE SMOOTH",
"327 -8 OFFCURVE",
"343 -6 OFFCURVE",
"364 -3 CURVE",
"334 13 LINE",
"293 -10 OFFCURVE",
"272 -48 OFFCURVE",
"272 -90 CURVE SMOOTH",
"272 -156 OFFCURVE",
"326 -204 OFFCURVE",
"404 -204 CURVE SMOOTH"
);
}
);
width = 551;
}
);
leftKerningGroup = o;
leftMetricsKey = e;
widthMetricsKey = e;
rightKerningGroup = e;
unicode = 0119;
},
{
color = 4;
glyphname = schwa;
lastChange = "2016-09-21 08:56:22 +0000";
layers = (
{
background = {
paths = (
{
closed = 1;
nodes = (
"80 400 LINE",
"138 443 OFFCURVE",
"192 463 OFFCURVE",
"250 463 CURVE SMOOTH",
"366 463 OFFCURVE",
"432 387 OFFCURVE",
"432 252 CURVE SMOOTH",
"432 118 OFFCURVE",
"370 40 OFFCURVE",
"262 40 CURVE SMOOTH",
"157 40 OFFCURVE",
"99 113 OFFCURVE",
"103 242 CURVE",
"80 218 LINE",
"441 218 LINE",
"440 262 LINE",
"49 262 LINE",
"49 237 LINE SMOOTH",
"49 83 OFFCURVE",
"128 -7 OFFCURVE",
"262 -7 CURVE SMOOTH",
"401 -7 OFFCURVE",
"490 94 OFFCURVE",
"490 254 CURVE SMOOTH",
"490 415 OFFCURVE",
"398 513 OFFCURVE",
"249 513 CURVE SMOOTH",
"181 513 OFFCURVE",
"105 487 OFFCURVE",
"57 444 CURVE"
);
}
);
};
layerId = "9E718F8A-2CEA-4931-B05D-987794BD97DA";
paths = (
{
closed = 1;
nodes = (
"80 400 LINE",
"138 443 OFFCURVE",
"192 463 OFFCURVE",
"250 463 CURVE SMOOTH",
"366 463 OFFCURVE",
"432 387 OFFCURVE",
"432 252 CURVE SMOOTH",
"432 118 OFFCURVE",
"370 40 OFFCURVE",
"262 40 CURVE SMOOTH",
"157 40 OFFCURVE",
"99 113 OFFCURVE",
"103 242 CURVE",
"80 202 LINE",
"441 202 LINE",
"440 247 LINE",
"49 247 LINE",
"49 237 LINE SMOOTH",
"49 83 OFFCURVE",
"128 -7 OFFCURVE",
"262 -7 CURVE SMOOTH",
"401 -7 OFFCURVE",
"490 94 OFFCURVE",
"490 254 CURVE SMOOTH",
"490 415 OFFCURVE",
"398 513 OFFCURVE",
"249 513 CURVE SMOOTH",
"181 513 OFFCURVE",
"105 487 OFFCURVE",
"57 444 CURVE"
);
}
);
width = 542;
},
{
background = {
paths = (
{
closed = 1;
nodes = (
"84 350 LINE",
"140 383 OFFCURVE",
"191 400 OFFCURVE",
"240 400 CURVE SMOOTH",
"325 400 OFFCURVE",
"363 356 OFFCURVE",
"366 250 CURVE SMOOTH",
"369 153 OFFCURVE",
"334 102 OFFCURVE",
"267 102 CURVE SMOOTH",
"205 102 OFFCURVE",
"173 145 OFFCURVE",
"173 224 CURVE",
"129 209 LINE",
"373 209 LINE",
"374 288 LINE",
"33 288 LINE",
"33 248 LINE SMOOTH",
"33 88 OFFCURVE",
"126 -8 OFFCURVE",
"274 -8 CURVE SMOOTH",
"418 -8 OFFCURVE",
"517 98 OFFCURVE",
"517 256 CURVE SMOOTH",
"517 417 OFFCURVE",
"412 520 OFFCURVE",
"251 520 CURVE SMOOTH",
"173 520 OFFCURVE",
"94 497 OFFCURVE",
"41 458 CURVE"
);
}
);
};
layerId = "E1B555A7-F4E1-459C-9C1A-AE952106EEF9";
paths = (
{
closed = 1;
nodes = (
"84 350 LINE",
"140 383 OFFCURVE",
"191 400 OFFCURVE",
"240 400 CURVE SMOOTH",
"325 400 OFFCURVE",
"363 356 OFFCURVE",
"366 250 CURVE SMOOTH",
"369 153 OFFCURVE",
"334 102 OFFCURVE",
"267 102 CURVE SMOOTH",
"205 102 OFFCURVE",
"173 145 OFFCURVE",
"173 224 CURVE",
"129 193 LINE",
"373 193 LINE",
"374 273 LINE",
"33 273 LINE",
"33 248 LINE SMOOTH",
"33 88 OFFCURVE",
"126 -8 OFFCURVE",
"274 -8 CURVE SMOOTH",
"418 -8 OFFCURVE",
"517 98 OFFCURVE",
"517 256 CURVE SMOOTH",
"517 417 OFFCURVE",
"412 520 OFFCURVE",
"251 520 CURVE SMOOTH",
"173 520 OFFCURVE",
"94 497 OFFCURVE",
"41 458 CURVE"
);
}
);
width = 551;
}
);
leftKerningGroup = o;
leftMetricsKey = "=|e";
rightKerningGroup = o;
rightMetricsKey = o;
unicode = 0259;
},
{
color = 4;
glyphname = f;
lastChange = "2016-09-21 08:56:17 +0000";
layers = (
{
anchors = (
{
name = bottom;
position = "{135, 0}";
},
{
name = top;
position = "{135, 506}";
}
);
background = {
anchors = (
{
name = bottom;
position = "{135, 0}";
},
{
name = top;
position = "{135, 506}";
}
);
paths = (
{
closed = 1;
nodes = (
"163 -27 LINE",
"163 458 LINE",
"295 458 LINE",
"295 491 LINE",
"163 491 LINE",
"163 583 LINE SMOOTH",
"163 660 OFFCURVE",
"167 687 OFFCURVE",
"303 687 CURVE",
"303 729 LINE",
"285 729 LINE SMOOTH",
"140 729 OFFCURVE",
"114 683 OFFCURVE",
"114 570 CURVE SMOOTH",
"114 491 LINE",
"26 491 LINE",
"26 458 LINE",
"114 458 LINE",
"114 -27 LINE"
);
},
{
closed = 1;
nodes = (
"680 4 LINE",
"680 536 LINE SMOOTH",
"680 631 OFFCURVE",
"719 680 OFFCURVE",
"805 685 CURVE SMOOTH",
"852 688 LINE",
"847 734 LINE",
"812 732 LINE SMOOTH",
"685 725 OFFCURVE",
"624 660 OFFCURVE",
"624 532 CURVE SMOOTH",
"624 4 LINE"
);
},
{
closed = 1;
nodes = (
"828 459 LINE",
"828 505 LINE",
"525 505 LINE",
"525 459 LINE"
);
}
);
};
layerId = "9E718F8A-2CEA-4931-B05D-987794BD97DA";
paths = (
{
closed = 1;
nodes = (
"163 0 LINE",
"163 553 LINE SMOOTH",
"163 664 OFFCURVE",
"185 685 OFFCURVE",
"288 685 CURVE SMOOTH",
"313 685 LINE",
"313 731 LINE",
"285 731 LINE SMOOTH",
"152 731 OFFCURVE",
"107 682 OFFCURVE",
"107 569 CURVE SMOOTH",
"107 0 LINE"
);
},
{
closed = 1;
nodes = (
"292 455 LINE",
"292 501 LINE",
"8 501 LINE",
"8 455 LINE"
);
}
);
width = 320;
},
{
anchors = (
{
name = bottom;
position = "{181, 0}";
},
{
name = top;
position = "{181, 511}";
}
);
background = {
anchors = (
{
name = bottom;
position = "{181, 0}";
},
{
name = top;
position = "{181, 511}";
}
);
paths = (
{
closed = 1;
nodes = (
"127 0 LINE",
"127 457 LINE",
"34 457 LINE",
"34 518 LINE",
"127 518 LINE",
"127 561 LINE SMOOTH",
"127 692 OFFCURVE",
"149 751 OFFCURVE",
"325 751 CURVE SMOOTH",
"349 751 LINE",
"348 679 LINE",
"229 679 OFFCURVE",
"220 656 OFFCURVE",
"220 570 CURVE SMOOTH",
"220 518 LINE",
"343 518 LINE",
"343 457 LINE",
"220 457 LINE",
"220 0 LINE"
);
}
);
};
layerId = "E1B555A7-F4E1-459C-9C1A-AE952106EEF9";
paths = (
{
closed = 1;
nodes = (
"261 0 LINE",
"261 524 LINE SMOOTH",
"261 603 OFFCURVE",
"275 615 OFFCURVE",
"358 615 CURVE SMOOTH",
"382 615 LINE",
"382 731 LINE",
"340 731 LINE SMOOTH",
"162 731 OFFCURVE",
"100 681 OFFCURVE",
"100 537 CURVE SMOOTH",
"100 0 LINE"
);
},
{
closed = 1;
nodes = (
"363 387 LINE",
"363 507 LINE",
"4 507 LINE",
"4 387 LINE"
);
}
);
width = 392;
}
);
leftKerningGroup = f;
rightKerningGroup = f;
unicode = 0066;
userData = {
anchors = (
);
b = {
};
com.typemytype.robofont.layerData = {
b = {
anchors = (
);
components = (
);
contours = (
);
lib = {
};
name = f;
unicodes = (
);
width = 696;
};
};
components = (
);
contours = (
);
lib = {
};
name = f;
unicodes = (
);
width = 723;
};
},
